<svg xmlns="http://www.w3.org/2000/svg" xmlns:xlink="http://www.w3.org/1999/xlink" viewBox="0 0 1771.38 1435.8"><defs><style>.cls-1,.cls-19,.cls-2,.cls-20,.cls-21,.cls-27,.cls-33,.cls-34,.cls-36,.cls-7{fill:none;}.cls-1{stroke:#b6d4ff;}.cls-1,.cls-10,.cls-11,.cls-15,.cls-19,.cls-2,.cls-21,.cls-27,.cls-33,.cls-34,.cls-36,.cls-7,.cls-9{stroke-miterlimit:10;}.cls-1,.cls-2{stroke-width:13px;}.cls-2,.cls-7{stroke:#cce3ff;}.cls-3{fill:url(#linear-gradient);}.cls-4{fill:url(#linear-gradient-2);}.cls-15,.cls-5{fill:#ecf6ff;}.cls-6,.cls-9{fill:#dceeff;}.cls-15,.cls-7{stroke-linecap:round;}.cls-7{stroke-width:33px;}.cls-8{fill:#cce3ff;}.cls-10,.cls-11,.cls-15,.cls-9{stroke:#dceeff;}.cls-10,.cls-27,.cls-9{stroke-width:9px;}.cls-10,.cls-11,.cls-18{fill:#fff;}.cls-11,.cls-34{stroke-width:5px;}.cls-12{fill:#b6d4ff;}.cls-13{fill:#c5e0fc;}.cls-14{fill:#e6f4ff;}.cls-15{stroke-width:20px;}.cls-16{fill:#afb3c6;}.cls-17{fill:#d6d7d8;}.cls-19,.cls-20,.cls-21{stroke:#b1b8bc;}.cls-19{stroke-width:2px;}.cls-20{stroke-linejoin:round;}.cls-20,.cls-33{stroke-width:3px;}.cls-21{stroke-width:4px;}.cls-22{fill:#7d8489;}.cls-23{fill:#b8bfc4;}.cls-24{fill:#6ca1ff;}.cls-25{fill:#e576c6;}.cls-26{fill:#0d0b6d;}.cls-27{stroke:#032466;}.cls-28{fill:#405fd3;}.cls-29{fill:#cf3e83;}.cls-30{fill:#141419;}.cls-31{fill:#35353d;}.cls-32{fill:#ffc000;}.cls-33{stroke:#161649;}.cls-34{stroke:#db8b21;}.cls-35{fill:#353a3d;}.cls-36{stroke:#e576c6;stroke-width:7px;}.cls-37{fill:#d8c4a7;}</style><linearGradient id="linear-gradient" x1="1071.58" y1="132.92" x2="1071.58" y2="438.72" gradientTransform="matrix(1.08, 0, 0, -1, -200.51, 265.87)" gradientUnits="userSpaceOnUse"><stop offset="0" stop-color="#cce3ff" stop-opacity="0"/><stop offset="1" stop-color="#ecf6ff"/></linearGradient><linearGradient id="linear-gradient-2" x1="1071.58" y1="132.92" x2="1071.58" y2="438.72" gradientTransform="matrix(1.08, 0, 0, -1, -200.51, 265.87)" gradientUnits="userSpaceOnUse"><stop offset="0" stop-color="#cce3ff" stop-opacity="0"/><stop offset="1" stop-color="#cce3ff" stop-opacity="0.4"/></linearGradient></defs><title>back and obj 12</title><g id="Back"><line class="cls-1" x1="676.4" y1="736.45" x2="676.4" y2="491.67"/><line class="cls-2" x1="687.4" y1="736.45" x2="687.4" y2="491.67"/><rect class="cls-3" x="799.53" y="-230.75" width="308.45" height="727.38" transform="translate(1795.64 494.97) rotate(179.88)"/><rect class="cls-4" x="829.13" y="-230.75" width="249.24" height="727.38" transform="translate(1795.64 494.97) rotate(179.88)"/><path class="cls-5" d="M1191.79,916.25H1644a0,0,0,0,1,0,0V933.8a0,0,0,0,1,0,0h-452.2A8.77,8.77,0,0,1,1183,925v0A8.77,8.77,0,0,1,1191.79,916.25Z" transform="translate(2714.87 2081.12) rotate(-180)"/><rect class="cls-6" x="1254.81" y="933.8" width="378.33" height="52.39" transform="translate(2775.81 2151.06) rotate(-180)"/><path class="cls-5" d="M1263.58,986.19h452.2a0,0,0,0,1,0,0v17.55a0,0,0,0,1,0,0h-452.2a8.77,8.77,0,0,1-8.77-8.77v0a8.77,8.77,0,0,1,8.77-8.77Z" transform="translate(2858.46 2221) rotate(-180)"/><rect class="cls-6" x="1326.6" y="1003.74" width="378.33" height="52.39" transform="translate(2919.4 2290.94) rotate(-180)"/><path class="cls-5" d="M761,496.62h452.2a0,0,0,0,1,0,0v17.55a0,0,0,0,1,0,0H761a8.77,8.77,0,0,1-8.77-8.77v0A8.77,8.77,0,0,1,761,496.62Z" transform="translate(1853.33 1241.84) rotate(-180)"/><path class="cls-5" d="M1048.2,776.37h452.2a0,0,0,0,1,0,0v17.55a0,0,0,0,1,0,0H1048.2a8.77,8.77,0,0,1-8.77-8.77v0A8.77,8.77,0,0,1,1048.2,776.37Z" transform="translate(2427.69 1801.36) rotate(-180)"/><rect class="cls-6" x="1111.22" y="793.92" width="378.33" height="52.39" transform="translate(2488.63 1871.3) rotate(-180)"/><path class="cls-5" d="M1120,846.31h452.2a0,0,0,0,1,0,0v17.55a0,0,0,0,1,0,0H1120a8.77,8.77,0,0,1-8.77-8.77v0a8.77,8.77,0,0,1,8.77-8.77Z" transform="translate(2571.28 1941.24) rotate(-180)"/><rect class="cls-6" x="1183.01" y="863.86" width="378.33" height="52.39" transform="translate(2632.22 2011.18) rotate(-180)"/><path class="cls-5" d="M904.61,636.49h452.2a0,0,0,0,1,0,0V654a0,0,0,0,1,0,0H904.61a8.77,8.77,0,0,1-8.77-8.77v0a8.77,8.77,0,0,1,8.77-8.77Z" transform="translate(2140.51 1521.6) rotate(-180)"/><rect class="cls-6" x="967.63" y="654.04" width="378.33" height="52.39" transform="translate(2201.45 1591.54) rotate(-180)"/><path class="cls-5" d="M976.4,706.43h452.2a0,0,0,0,1,0,0V724a0,0,0,0,1,0,0H976.4a8.77,8.77,0,0,1-8.77-8.77v0a8.77,8.77,0,0,1,8.77-8.77Z" transform="translate(2284.1 1661.48) rotate(180)"/><rect class="cls-6" x="1039.42" y="723.98" width="378.33" height="52.39" transform="translate(2345.04 1731.42) rotate(-180)"/><rect class="cls-6" x="824.04" y="514.16" width="378.33" height="52.39" transform="translate(1914.27 1311.78) rotate(-180)"/><path class="cls-5" d="M832.81,566.56H1285a0,0,0,0,1,0,0V584.1a0,0,0,0,1,0,0H832.81a8.77,8.77,0,0,1-8.77-8.77v0A8.77,8.77,0,0,1,832.81,566.56Z" transform="translate(1996.92 1381.72) rotate(-180)"/><rect class="cls-6" x="895.83" y="584.1" width="378.33" height="52.39" transform="translate(2057.86 1451.66) rotate(-180)"/><line class="cls-1" x1="1178.96" y1="1226.03" x2="1178.96" y2="981.24"/><line class="cls-1" x1="1107.17" y1="1156.09" x2="1107.17" y2="911.3"/><line class="cls-1" x1="1035.37" y1="1086.15" x2="1035.37" y2="841.36"/><line class="cls-1" x1="963.58" y1="1016.21" x2="963.58" y2="771.42"/><line class="cls-1" x1="891.78" y1="946.27" x2="891.78" y2="701.48"/><line class="cls-1" x1="819.99" y1="876.33" x2="819.99" y2="631.54"/><line class="cls-1" x1="748.19" y1="806.39" x2="748.19" y2="561.61"/><line class="cls-2" x1="1189.96" y1="1226.03" x2="1189.96" y2="981.24"/><line class="cls-2" x1="1118.17" y1="1156.09" x2="1118.17" y2="911.3"/><line class="cls-2" x1="1046.37" y1="1086.15" x2="1046.37" y2="841.36"/><line class="cls-2" x1="974.58" y1="1016.21" x2="974.58" y2="771.42"/><line class="cls-2" x1="902.78" y1="946.27" x2="902.78" y2="701.48"/><line class="cls-2" x1="759.19" y1="806.39" x2="759.19" y2="561.61"/><line class="cls-7" x1="666.97" y1="478.59" x2="1223.24" y2="1020.48"/><rect class="cls-8" x="1254.81" y="986.19" width="80.56" height="17.55" transform="translate(2478.05 2221) rotate(-180)"/><rect class="cls-8" x="1183.01" y="916.25" width="80.56" height="17.55" transform="translate(2334.46 2081.12) rotate(-180)"/><rect class="cls-8" x="1111.22" y="846.31" width="80.56" height="17.55" transform="translate(2190.87 1941.24) rotate(-180)"/><rect class="cls-8" x="1039.42" y="776.37" width="80.56" height="17.55" transform="translate(2047.28 1801.36) rotate(-180)"/><rect class="cls-8" x="967.63" y="706.43" width="80.56" height="17.55" transform="translate(1903.69 1661.48) rotate(-180)"/><rect class="cls-8" x="895.83" y="636.49" width="80.56" height="17.55" transform="translate(1760.1 1521.6) rotate(-180)"/><rect class="cls-8" x="824.04" y="566.56" width="80.56" height="17.55" transform="translate(1616.51 1381.72) rotate(-180)"/><rect class="cls-8" x="752.24" y="496.62" width="80.56" height="17.55" transform="translate(1472.92 1241.84) rotate(-180)"/><line class="cls-2" x1="830.99" y1="876.33" x2="830.99" y2="631.54"/><rect class="cls-9" x="1584.57" y="358.24" width="124.56" height="103.25" transform="translate(3181.57 1050.78) rotate(-180)"/><rect class="cls-10" x="1577.25" y="358.38" width="124.56" height="103.25" transform="translate(3166.92 1051.06) rotate(-180)"/><rect class="cls-6" x="1486.33" y="610.49" width="80.35" height="60.86"/><rect class="cls-9" x="1666.53" y="530.6" width="175.85" height="229.53" transform="translate(3396.77 1521.79) rotate(-180)"/><rect class="cls-10" x="1659.86" y="530.91" width="175.85" height="229.53" transform="translate(3383.44 1522.41) rotate(-180)"/><rect class="cls-6" x="1584.84" y="809.75" width="99.14" height="133.35"/><rect class="cls-9" x="1384.02" y="268.23" width="124.56" height="193.39" transform="translate(2780.47 960.92) rotate(-180)"/><rect class="cls-10" x="1266.01" y="268.23" width="233.44" height="193.39" transform="translate(2653.33 960.92) rotate(-180)"/><rect class="cls-11" x="1287.5" y="289.27" width="190.46" height="151.31" transform="translate(2653.33 960.92) rotate(-180)"/><rect class="cls-12" x="1215.11" y="552.06" width="110.98" height="87.86"/><rect class="cls-9" x="1477.95" y="530.91" width="128.74" height="140.88" transform="translate(2972.51 1433.76) rotate(-180)"/><rect class="cls-10" x="1471" y="530.91" width="131.13" height="140.88" transform="translate(2961.01 1433.76) rotate(-180)"/><rect class="cls-8" x="1386.18" y="794.63" width="70.49" height="75.31"/><rect class="cls-12" x="641.8" y="993.22" width="145.54" height="110.46"/><rect class="cls-12" x="641.8" y="1120.3" width="145.54" height="109.34"/><polygon class="cls-12" points="784.33 976.6 641.8 976.6 641.8 837.76 709.49 903.7 784.33 976.6"/><polygon class="cls-12" points="1044.09 1229.64 803.95 1229.64 803.95 995.71 867.95 1058.06 1044.09 1229.64"/><polygon class="cls-8" points="709.49 903.7 709.49 976.6 641.8 976.6 641.8 837.76 709.49 903.7"/><rect class="cls-8" x="641.8" y="993.22" width="67.69" height="110.46"/><rect class="cls-8" x="641.8" y="1120.3" width="67.69" height="109.34"/><polygon class="cls-8" points="867.95 1058.06 867.95 1229.64 803.95 1229.64 803.95 995.71 867.95 1058.06"/><path class="cls-5" d="M943.93,979.23l10.2-99.42H986l10.2,99.42a17.67,17.67,0,0,1-17.58,19.47H961.51A17.66,17.66,0,0,1,943.93,979.23Z" transform="translate(-112.13 231.07)"/><path class="cls-5" d="M899.47,825.28v23.66H807.3a11.83,11.83,0,1,1,0-23.66Z" transform="translate(-112.13 231.07)"/><path class="cls-8" d="M899.47,830.26V844H873.92a6.85,6.85,0,1,1,0-13.7Z" transform="translate(-112.13 231.07)"/><path class="cls-5" d="M899.47,849.24v23.07a11.6,11.6,0,0,1-2.66.3H780.61V848.94h116.2A11.6,11.6,0,0,1,899.47,849.24Z" transform="translate(-112.13 231.07)"/><path class="cls-8" d="M801.11,833.5h13.57a0,0,0,0,1,0,0v47.77a6.78,6.78,0,0,1-6.78,6.78h0a6.78,6.78,0,0,1-6.78-6.78V833.5A0,0,0,0,1,801.11,833.5Z" transform="translate(-165.02 1899.74) rotate(-90)"/><rect class="cls-6" x="677.26" y="1152.77" width="20.12" height="76.87"/><rect class="cls-5" x="657.14" y="1152.77" width="20.12" height="76.87"/><rect class="cls-5" x="697.39" y="1152.77" width="20.12" height="76.87"/><path class="cls-8" d="M717.51,1152.77h53a5.13,5.13,0,0,1,5.13,5.13v66.62a5.13,5.13,0,0,1-5.13,5.13h-53a0,0,0,0,1,0,0v-76.87A0,0,0,0,1,717.51,1152.77Z"/><rect class="cls-12" x="854.91" y="916.25" width="7.61" height="40.92" transform="translate(-190.12 2026.49) rotate(-90)"/><rect class="cls-12" x="854.91" y="937.11" width="7.61" height="22.68" transform="translate(-201.86 2038.23) rotate(-90)"/><rect class="cls-5" x="1019.15" y="951.46" width="13.54" height="13.54" transform="translate(-476.07 991.79) rotate(-34.96)"/><rect class="cls-5" x="922.2" y="1183.27" width="13.54" height="13.54"/><rect class="cls-5" x="1056.08" y="954.46" width="13.54" height="13.54" transform="translate(-341.98 573.8) rotate(-16.56)"/><rect class="cls-5" x="1045.31" y="950.05" width="13.54" height="13.54" transform="translate(193.4 -22.5) rotate(16.05)"/><path class="cls-6" d="M1073.79,972.45a30.65,30.65,0,0,1-14.6,26.12H1027a30.69,30.69,0,0,1-11.1-40.34h54.35A30.5,30.5,0,0,1,1073.79,972.45Z" transform="translate(-112.13 231.07)"/><path class="cls-6" d="M417.19,512.28h90.54a0,0,0,0,1,0,0v26.4a44.38,44.38,0,0,1-44.38,44.38h-1.77a44.38,44.38,0,0,1-44.38-44.38v-26.4A0,0,0,0,1,417.19,512.28Z"/><path class="cls-6" d="M316,493.88h56.32a8.32,8.32,0,0,1,8.32,8.32v46.5a27.64,27.64,0,0,1-27.64,27.64H335.36a27.64,27.64,0,0,1-27.64-27.64v-46.5A8.32,8.32,0,0,1,316,493.88Z"/><rect class="cls-6" x="325.29" y="460.6" width="37.84" height="74.51"/><polygon class="cls-12" points="135.68 1289.3 115.19 1289.3 115.19 1240.51 146.25 1240.51 135.68 1289.3"/><rect class="cls-5" x="94.71" y="596.09" width="355.82" height="644.41"/><polygon class="cls-5" points="115.19 1289.3 94.71 1289.3 94.71 1240.51 124.8 1240.51 115.19 1289.3"/><polygon class="cls-8" points="467 1289.3 450.53 1289.3 450.53 1240.51 474.72 1240.51 467 1289.3"/><polygon class="cls-5" points="430.04 1289.3 450.53 1289.3 450.53 1240.51 420.43 1240.51 430.04 1289.3"/><polygon class="cls-12" points="260.4 1289.3 239.91 1289.3 239.91 1240.51 268.08 1240.51 260.4 1289.3"/><rect class="cls-8" x="104.95" y="986.6" width="162.25" height="113.28"/><polygon class="cls-12" points="556.38 1289.3 537.51 1289.3 530.43 1240.51 556.38 1240.51 556.38 1289.3"/><polygon class="cls-8" points="575.24 1289.3 556.38 1289.3 550.18 1240.51 575.24 1240.51 575.24 1289.3"/><polygon class="cls-13" points="239.91 1289.3 219.42 1289.3 211.74 1240.51 239.91 1240.51 239.91 1289.3"/><rect class="cls-8" x="278.04" y="986.6" width="162.25" height="113.28"/><rect class="cls-8" x="104.95" y="1113.12" width="162.25" height="113.28"/><rect class="cls-8" x="278.04" y="1113.12" width="162.25" height="113.28"/><rect class="cls-12" x="104.95" y="855.47" width="335.33" height="118.07"/><rect class="cls-8" x="104.95" y="855.47" width="103.74" height="118.07"/><rect class="cls-12" x="104.95" y="601.24" width="335.33" height="118.07"/><rect class="cls-8" x="104.95" y="601.24" width="103.74" height="118.07"/><rect class="cls-12" x="104.95" y="731.49" width="335.33" height="112.62"/><rect class="cls-8" x="104.95" y="731.49" width="103.74" height="112.62"/><rect class="cls-8" x="450.53" y="596.09" width="124.72" height="644.41"/><rect class="cls-14" x="86.33" y="574.84" width="352.43" height="21.25"/><rect class="cls-8" x="438.75" y="574.84" width="144.66" height="21.25"/><path class="cls-8" d="M413,519.6H437.9a0,0,0,0,1,0,0V619.71a12.19,12.19,0,0,1-12.19,12.19h-.49A12.19,12.19,0,0,1,413,619.71V519.6A0,0,0,0,1,413,519.6Z" transform="translate(-262.41 1232.28) rotate(-90)"/><path class="cls-6" d="M384.43,553.59h14.1a.15.15,0,0,1,.15.15v37.12a7.06,7.06,0,0,1-7.06,7.06h-.28a7.06,7.06,0,0,1-7.06-7.06V553.73a.15.15,0,0,1,.15-.15Z" transform="translate(-296.4 1198.29) rotate(-90)"/><path class="cls-8" d="M434.7,539.84h.49A12.19,12.19,0,0,1,447.38,552V661.38a0,0,0,0,1,0,0H422.52a0,0,0,0,1,0,0V552A12.19,12.19,0,0,1,434.7,539.84Z" transform="translate(-277.79 1266.62) rotate(-90)"/><path class="cls-6" d="M469.68,574.71H470a7,7,0,0,1,7,7v44.81a0,0,0,0,1,0,0H462.69a0,0,0,0,1,0,0V581.7a7,7,0,0,1,7-7Z" transform="translate(-242.92 1301.5) rotate(-90)"/><path class="cls-8" d="M437.82,493.69h.49a12.19,12.19,0,0,1,12.19,12.19v102.2a0,0,0,0,1,0,0H425.63a0,0,0,0,1,0,0V505.88A12.19,12.19,0,0,1,437.82,493.69Z" transform="translate(-224.95 1220.02) rotate(-90)"/><path class="cls-6" d="M472.8,528.57h.28a7,7,0,0,1,7,7v37.65a0,0,0,0,1,0,0H465.81a0,0,0,0,1,0,0V535.56A7,7,0,0,1,472.8,528.57Z" transform="translate(-190.08 1254.89) rotate(-90)"/><path class="cls-6" d="M520.55,692.69a58.44,58.44,0,0,1-27.79,49.79h-61.2a58.5,58.5,0,0,1-21.13-76.9H513.9A58.26,58.26,0,0,1,520.55,692.69Z" transform="translate(-112.13 231.07)"/><circle class="cls-12" cx="186.07" cy="1169.76" r="9.63"/><circle class="cls-12" cx="359.16" cy="1169.76" r="9.63"/><circle class="cls-12" cx="358.86" cy="1043.33" r="9.63"/><circle class="cls-12" cx="186.07" cy="1043.33" r="9.63"/><rect class="cls-6" x="169.01" y="765.62" width="56.14" height="78.49"/><rect class="cls-6" x="169.01" y="758" width="56.14" height="4.85"/><rect class="cls-14" x="160.84" y="762.85" width="72.48" height="13.58" rx="6.05"/><line class="cls-15" x1="1761.38" y1="1297.21" x2="10" y2="1297.21"/></g><g id="Man_phone" data-name="Man phone"><ellipse class="cls-16" cx="947.42" cy="1431.81" rx="223.78" ry="3.99"/><rect class="cls-17" x="825.03" y="371.65" width="384.12" height="325.13" rx="12.92" transform="translate(219.7 -156.83) rotate(25.67)"/><rect class="cls-18" x="807.88" y="522.99" width="367.29" height="128.84" rx="12.92" transform="translate(240.22 -140.5) rotate(25.67)"/><rect class="cls-19" x="860.86" y="564.34" width="16.75" height="16.75" rx="3.85" transform="translate(221.79 -88.97) rotate(25.67)"/><polyline class="cls-20" points="752.88 800.82 754.96 806.56 767.89 800.68"/><line class="cls-21" x1="717.5" y1="777.7" x2="731.86" y2="784.61"/><line class="cls-21" x1="714.82" y1="783.29" x2="729.18" y2="790.19"/><line class="cls-21" x1="712.13" y1="788.87" x2="719.58" y2="792.45"/><rect class="cls-22" x="830.33" y="554.83" width="303.99" height="15.96" transform="translate(228.66 -138.94) rotate(25.67)"/><rect class="cls-22" x="828.2" y="538.37" width="120.52" height="15.96" transform="translate(212.26 -99.9) rotate(25.67)"/><rect class="cls-22" x="920.7" y="339.41" width="63.43" height="15.96" transform="translate(132.38 -147.25) rotate(25.67)"/><rect class="cls-23" x="795.18" y="607.07" width="120.52" height="15.96" transform="translate(238.76 -78.81) rotate(25.67)"/><rect class="cls-24" x="852.32" y="479.41" width="61.16" height="12.59" rx="5.74" transform="translate(185.44 -103.48) rotate(25.67)"/><rect class="cls-18" x="863.45" y="421.43" width="367.29" height="100.73" rx="12.92" transform="translate(195.62 -175.99) rotate(25.67)"/><rect class="cls-19" x="921.26" y="438.68" width="16.75" height="16.75" rx="3.85" transform="translate(173.31 -127.54) rotate(25.67)"/><polyline class="cls-20" points="813.29 675.15 815.36 680.89 828.3 675.01"/><line class="cls-21" x1="777.91" y1="652.03" x2="792.27" y2="658.94"/><line class="cls-21" x1="775.22" y1="657.62" x2="789.58" y2="664.52"/><line class="cls-21" x1="772.54" y1="663.21" x2="779.98" y2="666.79"/><rect class="cls-22" x="879.82" y="451.88" width="303.99" height="15.96" transform="translate(188.95 -170.54) rotate(25.67)"/><rect class="cls-24" x="901.8" y="376.46" width="61.16" height="12.59" rx="5.74" transform="translate(145.73 -135.08) rotate(25.67)"/><path class="cls-25" d="M891.31,734.13l-37.48-13.52s-30.34,19-38.81,18.59c0,0-26.31-26.88-31.69-51.84l15.87-36.6,44.95-16.6L867,671.28c-.78-7.75,16.11-25.6,27.94-12.8,15.26,16.51-8.34,36.37-8.34,36.37l20,4.55Z" transform="translate(-112.13 231.07)"/><path class="cls-26" d="M885.23,654s14.8-20-21.39-34.25-52.1,8.93-52.1,8.93-18-23.12-35.07-15.26c-24.34,11.21-10.95,50.6-10.95,50.6s-15.42-17.72-21.07-11.61,18.93,77.08,100.85-.25c0,0-2.45,25.43,21.51,19.12C867,671.28,869.44,656.54,885.23,654Z" transform="translate(-112.13 231.07)"/><polyline class="cls-27" points="730.03 831.67 734.71 850.06 742.47 850.21 748.78 832.87"/><polygon class="cls-28" points="695.8 931.96 696.66 950.88 704.51 947.37 695.8 931.96"/><circle class="cls-26" cx="703.59" cy="926.51" r="4.34"/><circle class="cls-26" cx="684.03" cy="933.96" r="4.34"/><polygon class="cls-29" points="741.67 951.54 762.9 934.52 753.25 955.84 741.67 951.54"/><path class="cls-26" d="M940,1200.74c22.46-15.83,73.13-26.58,73.13-26.58l-2.63-17.37h26l5.88,44Z" transform="translate(-112.13 231.07)"/><polygon class="cls-29" points="924.06 1379.38 926.42 1404.22 900.98 1405.23 898.36 1388.21 924.06 1379.38"/><path class="cls-26" d="M1096,1200.74c20.86-16.52,62.74-27,62.74-27l-7.35-16.94H1180l19.31,44Z" transform="translate(-112.13 231.07)"/><polygon class="cls-29" points="1063.06 1376.29 1074.59 1403.14 1046.6 1404.8 1038.35 1385.8 1063.06 1376.29"/><path class="cls-30" d="M1041.28,828.84l-65.81,133.6a29.12,29.12,0,0,0-2.82,16.07l25.05,182.57,54.84-.12-14.77-175.59,87.63-133.75s25.67-62-31.31-98.46" transform="translate(-112.13 231.07)"/><path class="cls-31" d="M1049,817.76l.8,152a56,56,0,0,0,6.54,26l83.11,168.34,48-18.55-70.23-163L1133.43,858s14.87-86.63-37.53-107.45" transform="translate(-112.13 231.07)"/><path class="cls-32" d="M899.77,696c-8.78.37-13.51,7.8-16.36,16.11-8.38,24.47,4.43,46.33,43,71.44,37.16,24.2,114.88,45.33,114.88,45.33l54.62-78.27s-96.8-43.74-138.4-51.44C936.64,695.27,913.81,695.36,899.77,696Z" transform="translate(-112.13 231.07)"/><path class="cls-25" d="M1127.32,722.85l-3.54,24.1-112.55-22.87L943,741.59l-34-51.94s69.65-9.78,88.12-10.71S1127.32,722.85,1127.32,722.85Z" transform="translate(-112.13 231.07)"/><path class="cls-25" d="M1132.78,749s-.34,0-9.11-2.07c-10.86-2.49,3.55-24.3,3.55-24.3l9.08,2.75s11.5-14.73,13.53-22.36,3.55,2.56,3.55,2.56S1149.41,737.87,1132.78,749Z" transform="translate(-112.13 231.07)"/><path class="cls-33" d="M821.87,722.51s1.23-7.36,5.62-9.16" transform="translate(-112.13 231.07)"/><path class="cls-32" d="M886,706s15.86-30.95,77.3-27.89l2.18,68.24-36,10.22Z" transform="translate(-112.13 231.07)"/><line class="cls-34" x1="854.33" y1="981.68" x2="816.56" y2="986.76"/><rect class="cls-24" x="789" y="408.04" width="75.39" height="6.48" transform="translate(-160.86 935.95) rotate(-44.99)"/><path class="cls-24" d="M802.32,440.22l-9.57,5.56c-.43.25-.82-.13-.57-.56l5.56-9.58Z" transform="translate(-112.13 231.07)"/><path class="cls-35" d="M794.68,444.67l-2.4,1.75c-.59.43-1.17-.15-.74-.74l1.75-2.39Z" transform="translate(-112.13 231.07)"/><rect class="cls-28" x="843.78" y="382.52" width="16.88" height="6.48" transform="translate(1615.53 287.13) rotate(135.01)"/><rect class="cls-28" x="853.55" y="375.5" width="2.97" height="6.48" transform="translate(1615.36 273.15) rotate(135.01)"/><rect class="cls-24" x="822.23" y="387.66" width="37.23" height="2.22" transform="translate(1598.23 300.31) rotate(135.01)"/><rect class="cls-35" x="857.19" y="375.58" width="6.84" height="3.59" transform="translate(1623.92 266.89) rotate(135.01)"/><path class="cls-35" d="M1036.55,263.2c4.12,7-13.9,8.6-32.11,4.26C986,263.07,968,267.28,968,263.2s19.2-31.43,31.86-17.36S1033.21,257.48,1036.55,263.2Z" transform="translate(-112.13 231.07)"/><path class="cls-35" d="M1044.17,273.2a3.07,3.07,0,0,1-3.84,2c-1.62-.5-5-3-4.54-4.62s4.73-1.76,6.35-1.26A3.08,3.08,0,0,1,1044.17,273.2Z" transform="translate(-112.13 231.07)"/><path class="cls-25" d="M1021.14,271.82c-20.23,15.16-40.34,26.89-57.35,34.09l-27.92-37.26c11.69-14.3,28.59-30.31,48.83-45.47" transform="translate(-112.13 231.07)"/><path class="cls-36" d="M1010.87,276.64a19.71,19.71,0,0,1-9.33,26.16,19.51,19.51,0,0,1-26.15-9" transform="translate(-112.13 231.07)"/><rect class="cls-32" x="1052.59" y="333.91" width="74.77" height="8.03" transform="translate(1970.84 1131.3) rotate(-167.7)"/><polygon class="cls-37" points="1015.22 573.03 1026.2 579.53 1013.51 580.88 1015.22 573.03"/><polygon class="cls-35" points="1022.91 577.58 1028.74 580.09 1022.39 579.94 1022.91 577.58"/><rect class="cls-22" x="1046.74" y="325.23" width="6.78" height="8.03" transform="translate(-17.92 14.97) rotate(12.3)"/><rect class="cls-25" x="1040.11" y="323.79" width="6.78" height="8.03" transform="translate(-18.38 16.35) rotate(12.3)"/><path class="cls-25" d="M1094.09,307.64l-7.52,3.3-3.09-7.05,12.69-5.56a.72.72,0,0,1,1,.89l-2.66,8A.73.73,0,0,1,1094.09,307.64Z" transform="translate(-112.13 231.07)"/><path class="cls-24" d="M1076,307.19l7.52-3.3,3.09,7.05-12.69,5.56a.72.72,0,0,1-1-.89l2.67-8A.72.72,0,0,1,1076,307.19Z" transform="translate(-112.13 231.07)"/></g></svg>