<?xml version="1.0" encoding="UTF-8" standalone="no"?>
<svg
   xmlns:dc="http://purl.org/dc/elements/1.1/"
   xmlns:cc="http://creativecommons.org/ns#"
   xmlns:rdf="http://www.w3.org/1999/02/22-rdf-syntax-ns#"
   xmlns:svg="http://www.w3.org/2000/svg"
   xmlns="http://www.w3.org/2000/svg"
   viewBox="0 0 1440 1440"
   height="1440"
   width="1440"
   xml:space="preserve"
   id="svg2"
   version="1.1"><metadata
     id="metadata8"><rdf:RDF><cc:Work
         rdf:about=""><dc:format>image/svg+xml</dc:format><dc:type
           rdf:resource="http://purl.org/dc/dcmitype/StillImage" /></cc:Work></rdf:RDF></metadata><defs
     id="defs6"><clipPath
       id="clipPath40"
       clipPathUnits="userSpaceOnUse"><path
         id="path38"
         d="M 0,1080 H 1080 V 0 H 0 Z" /></clipPath><clipPath
       id="clipPath68"
       clipPathUnits="userSpaceOnUse"><path
         id="path66"
         d="M 819.546,255.748 796.745,115.75 h 20.4 l 4.001,27.399 h 25 v 0.401 l 3.999,-27.8 h 21.999 l -22.8,139.998 z m 13.799,-24.399 h 0.4 l 9.8,-69.2 h -19.8 z m -100.201,24.399 v -20 h 22.999 V 115.75 h 22.001 v 119.998 h 22.998 v 20 z m -48.2,0 -22.8,-139.998 h 20.4 l 4,27.399 h 25 v 0.401 l 4,-27.8 h 22 l -22.801,139.998 z m 13.8,-24.399 h 0.399 l 9.801,-69.2 H 689.143 Z M 587.146,255.748 V 115.75 h 33.599 c 22,0 32.8,12.2 32.8,34.6 v 0 70.798 c 0,22.4 -10.8,34.6 -32.8,34.6 v 0 z m 21.999,-20 h 11.201 c 7,0 11.2,-3.599 11.2,-13.599 v 0 -72.799 c 0,-10 -4.2,-13.6 -11.2,-13.6 v 0 h -11.201 z" /></clipPath><linearGradient
       id="linearGradient78"
       spreadMethod="pad"
       gradientTransform="matrix(284.99902,0,0,-284.99902,587.14575,185.74902)"
       gradientUnits="userSpaceOnUse"
       y2="0"
       x2="1"
       y1="0"
       x1="0"><stop
         id="stop74"
         offset="0"
         style="stop-opacity:1;stop-color:#05a6fe" /><stop
         id="stop76"
         offset="1"
         style="stop-opacity:1;stop-color:#00aaff" /></linearGradient></defs><g
     transform="matrix(1.3333333,0,0,-1.3333333,0,1440)"
     id="g10"><path
       id="path12"
       style="fill:#000000;fill-opacity:1;fill-rule:nonzero;stroke:none"
       d="M 0,0 H 1080 V 1080 H 0 Z" /><path
       id="path14"
       style="fill:#1335bb;fill-opacity:1;fill-rule:nonzero;stroke:none"
       d="M 360.975,811.131 H 207.855 V 964.25 h 153.12 z" /><path
       id="path16"
       style="fill:#1335bb;fill-opacity:1;fill-rule:nonzero;stroke:none"
       d="m 360.975,640.977 h -153.12 v 153.12 h 153.12 z" /><path
       id="path18"
       style="fill:#1335bb;fill-opacity:1;fill-rule:nonzero;stroke:none"
       d="m 360.975,470.823 h -153.12 v 153.119 h 153.12 z" /><path
       id="path20"
       style="fill:#1335bb;fill-opacity:1;fill-rule:nonzero;stroke:none"
       d="m 360.975,300.669 h -153.12 v 153.119 h 153.12 z" /><path
       id="path22"
       style="fill:#054dbb;fill-opacity:1;fill-rule:nonzero;stroke:none"
       d="M 531.128,640.977 H 378.009 v 153.12 h 153.119 z" /><path
       id="path24"
       style="fill:#054dbb;fill-opacity:1;fill-rule:nonzero;stroke:none"
       d="M 531.128,470.823 H 378.009 v 153.119 h 153.119 z" /><path
       id="path26"
       style="fill:#054dbb;fill-opacity:1;fill-rule:nonzero;stroke:none"
       d="M 531.128,300.669 H 378.009 v 153.119 h 153.119 z" /><path
       id="path28"
       style="fill:#365be0;fill-opacity:1;fill-rule:nonzero;stroke:none"
       d="M 701.282,470.823 H 548.163 v 153.119 h 153.119 z" /><path
       id="path30"
       style="fill:#365be0;fill-opacity:1;fill-rule:nonzero;stroke:none"
       d="M 701.282,300.669 H 548.163 v 153.119 h 153.119 z" /><path
       id="path32"
       style="fill:#06acff;fill-opacity:1;fill-rule:nonzero;stroke:none"
       d="M 871.437,300.669 H 718.318 v 153.119 h 153.119 z" /><g
       id="g34"><g
         clip-path="url(#clipPath40)"
         id="g36"><g
           transform="translate(240.855,135.75)"
           id="g42"><path
             id="path44"
             style="fill:#ffffff;fill-opacity:1;fill-rule:nonzero;stroke:none"
             d="M 0,0 C 6.875,0 11,3.6 11,13.6 V 86.4 C 11,96.4 6.875,100 0,100 H -11 V 0 Z M -33,120 H 0.398 C 22.265,120 33,107.8 33,85.4 V 14.6 C 33,-7.8 22.265,-20 0.398,-20 H -33 Z" /></g><g
           transform="translate(288.855,255.75)"
           id="g46"><path
             id="path48"
             style="fill:#ffffff;fill-opacity:1;fill-rule:nonzero;stroke:none"
             d="M 0,0 H 60 V -20 H 22 V -57 H 52 V -77 H 22 v -43 h 38 v -20 H 0 Z" /></g><g
           transform="translate(361.855,255.75)"
           id="g50"><path
             id="path52"
             style="fill:#ffffff;fill-opacity:1;fill-rule:nonzero;stroke:none"
             d="m 0,0 h 22 v -120 h 36 v -20 H 0 Z" /></g><g
           transform="translate(431.855,235.75)"
           id="g54"><path
             id="path56"
             style="fill:#ffffff;fill-opacity:1;fill-rule:nonzero;stroke:none"
             d="M 0,0 H -23 V 20 H 45 V 0 H 22 V -120 H 0 Z" /></g><g
           transform="translate(519.6255,161.75)"
           id="g58"><path
             id="path60"
             style="fill:#ffffff;fill-opacity:1;fill-rule:nonzero;stroke:none"
             d="M 0,0 -9.771,69 H -10.17 L -19.743,0 Z m -23.971,94 h 29.8 L 28.628,-46 H 6.171 L 2.229,-18.605 V -19 h -24.634 l -3.942,-27 h -20.424 z" /></g></g></g><g
       id="g62"><g
         clip-path="url(#clipPath68)"
         id="g64"><g
           id="g70"><g
             id="g72"><path
               id="path80"
               style="fill:url(#linearGradient78);stroke:none"
               d="M 819.546,255.748 796.745,115.75 h 20.4 l 4.001,27.399 h 25 v 0.401 l 3.999,-27.8 h 21.999 l -22.8,139.998 z m 13.799,-24.399 h 0.4 l 9.8,-69.2 h -19.8 z m -100.201,24.399 v -20 h 22.999 V 115.75 h 22.001 v 119.998 h 22.998 v 20 z m -48.2,0 -22.8,-139.998 h 20.4 l 4,27.399 h 25 v 0.401 l 4,-27.8 h 22 l -22.801,139.998 z m 13.8,-24.399 h 0.399 l 9.801,-69.2 H 689.143 Z M 587.146,255.748 V 115.75 h 33.599 c 22,0 32.8,12.2 32.8,34.6 v 0 70.798 c 0,22.4 -10.8,34.6 -32.8,34.6 v 0 z m 21.999,-20 h 11.201 c 7,0 11.2,-3.599 11.2,-13.599 v 0 -72.799 c 0,-10 -4.2,-13.6 -11.2,-13.6 v 0 h -11.201 z" /></g></g></g></g></g></svg>