<?xml version="1.0" encoding="UTF-8" standalone="no"?>
<svg
   xmlns:dc="http://purl.org/dc/elements/1.1/"
   xmlns:cc="http://creativecommons.org/ns#"
   xmlns:rdf="http://www.w3.org/1999/02/22-rdf-syntax-ns#"
   xmlns:svg="http://www.w3.org/2000/svg"
   xmlns="http://www.w3.org/2000/svg"
   viewBox="0 0 1600 1333.3333"
   height="1333.3333"
   width="1600"
   xml:space="preserve"
   id="svg2"
   version="1.1"><metadata
     id="metadata8"><rdf:RDF><cc:Work
         rdf:about=""><dc:format>image/svg+xml</dc:format><dc:type
           rdf:resource="http://purl.org/dc/dcmitype/StillImage" /></cc:Work></rdf:RDF></metadata><defs
     id="defs6" /><g
     transform="matrix(1.3333333,0,0,-1.3333333,0,1333.3333)"
     id="g10"><g
       transform="scale(0.1)"
       id="g12"><path
         id="path14"
         style="fill:#ffffff;fill-opacity:1;fill-rule:nonzero;stroke:none"
         d="M 12000,0 H 0 V 10000 H 12000 V 0" /><path
         id="path16"
         style="fill:#d4d1e2;fill-opacity:1;fill-rule:nonzero;stroke:none"
         d="M 12000,0 H 0 V 1366.24 H 12000 V 0" /><path
         id="path18"
         style="fill:#f3f2f7;fill-opacity:1;fill-rule:nonzero;stroke:none"
         d="M 6312.18,7548.1 V 2723.17 h 1.67 l 350.29,-1230.91 641.28,-125.74 683.82,516.15 553.37,78.34 647.76,1451.42 -158.18,1822.88 -285.56,527.54 174.44,604.4 -520.83,840.28 -613.84,248.57 -301.08,577.81 -565.86,234.84 -505.32,-144.56 c 0,0 -98.65,-387.33 -101.48,-486.7 -0.84,-29.63 -0.42,-59.76 0.97,-90.19 l -1.45,0.8" /><path
         id="path20"
         style="fill:#d4d1e2;fill-opacity:1;fill-rule:nonzero;stroke:none"
         d="m 6408.85,4678.09 -21.21,21.22 1062.06,1062.06 v 1379.24 l 326.1,326.1 21.21,-21.22 -317.31,-317.3 V 5748.94 L 6408.85,4678.09" /><path
         id="path22"
         style="fill:#ef3363;fill-opacity:1;fill-rule:nonzero;stroke:none"
         d="m 7906.53,7456.1 c 0,-66.35 -53.78,-120.13 -120.13,-120.13 -66.35,0 -120.14,53.78 -120.14,120.13 0,66.35 53.79,120.14 120.14,120.14 66.35,0 120.13,-53.79 120.13,-120.14" /><path
         id="path24"
         style="fill:#d4d1e2;fill-opacity:1;fill-rule:nonzero;stroke:none"
         d="m 7225.53,4625.2 h -776.67 v 30 h 764.25 l 1114.95,1114.95 h 360.38 v -30 H 8340.48 L 7225.53,4625.2" /><path
         id="path26"
         style="fill:#d4d1e2;fill-opacity:1;fill-rule:nonzero;stroke:none"
         d="m 7989.56,2014.83 h -30 v 367.05 l -611.81,611.8 v 481.95 l -989.01,989 21.21,21.22 997.8,-997.8 v -481.94 l 611.81,-611.81 v -379.47" /><path
         id="path28"
         style="fill:#4a5bb3;fill-opacity:1;fill-rule:nonzero;stroke:none"
         d="m 8872.99,5755.15 c 0,-66.34 -53.79,-120.13 -120.13,-120.13 -66.35,0 -120.14,53.79 -120.14,120.13 0,66.35 53.79,120.14 120.14,120.14 66.34,0 120.13,-53.79 120.13,-120.14" /><path
         id="path30"
         style="fill:#d4d1e2;fill-opacity:1;fill-rule:nonzero;stroke:none"
         d="m 8145.03,1894.7 c 0,-94.15 -76.32,-170.48 -170.47,-170.48 -94.15,0 -170.48,76.33 -170.48,170.48 0,94.15 76.33,170.47 170.48,170.47 94.15,0 170.47,-76.32 170.47,-170.47" /><path
         id="path32"
         style="fill:#f3f2f7;fill-opacity:1;fill-rule:nonzero;stroke:none"
         d="m 6220.51,7547.3 c 1.38,30.43 1.81,60.56 0.97,90.19 -2.83,99.37 -101.48,486.7 -101.48,486.7 l -505.32,144.56 -565.86,-234.84 -301.09,-577.81 -613.84,-248.57 -520.83,-840.28 174.45,-604.4 -285.56,-527.54 -158.18,-1822.88 647.76,-1451.42 553.36,-78.34 683.83,-516.15 641.28,125.74 350.29,1230.91 h 1.67 V 7548.1 l -1.45,-0.8" /><path
         id="path34"
         style="fill:#d4d1e2;fill-opacity:1;fill-rule:nonzero;stroke:none"
         d="M 6125.29,4678.09 5054.44,5748.94 v 1379.25 l -317.31,317.3 21.21,21.22 326.1,-326.1 V 5761.37 l 1062.06,-1062.06 -21.21,-21.22" /><path
         id="path36"
         style="fill:#f79226;fill-opacity:1;fill-rule:nonzero;stroke:none"
         d="m 4627.6,7456.1 c 0,-66.35 53.79,-120.13 120.13,-120.13 66.36,0 120.14,53.78 120.14,120.13 0,66.35 -53.78,120.14 -120.14,120.14 -66.34,0 -120.13,-53.79 -120.13,-120.14" /><path
         id="path38"
         style="fill:#d4d1e2;fill-opacity:1;fill-rule:nonzero;stroke:none"
         d="M 6085.28,4625.2 H 5308.61 L 4193.65,5740.15 H 3845.7 v 30 h 360.37 L 5321.03,4655.2 h 764.25 v -30" /><path
         id="path40"
         style="fill:#d4d1e2;fill-opacity:1;fill-rule:nonzero;stroke:none"
         d="m 4574.58,2014.83 h -30 v 379.47 l 611.81,611.81 v 481.94 l 997.79,997.8 21.22,-21.22 -989.01,-989 v -481.95 l -611.81,-611.8 v -367.05" /><path
         id="path42"
         style="fill:#4a5bb3;fill-opacity:1;fill-rule:nonzero;stroke:none"
         d="m 3661.15,5755.15 c 0,-66.34 53.78,-120.13 120.13,-120.13 66.35,0 120.14,53.79 120.14,120.13 0,66.35 -53.79,120.14 -120.14,120.14 -66.35,0 -120.13,-53.79 -120.13,-120.14" /><path
         id="path44"
         style="fill:#f79226;fill-opacity:1;fill-rule:nonzero;stroke:none"
         d="m 4389.11,1894.7 c 0,-94.15 76.32,-170.48 170.47,-170.48 94.16,0 170.48,76.33 170.48,170.48 0,94.15 -76.32,170.47 -170.48,170.47 -94.15,0 -170.47,-76.32 -170.47,-170.47" /><path
         id="path46"
         style="fill:#f79226;fill-opacity:1;fill-rule:nonzero;stroke:none"
         d="m 6473.85,4997.82 h -412.63 l -206.31,-357.35 206.31,-357.34 h 412.63 l 206.32,357.34 -206.32,357.35" /><path
         id="path48"
         style="fill:#ffffff;fill-opacity:1;fill-rule:nonzero;stroke:none"
         d="m 6442.36,4640.47 c 0,-96.55 -78.27,-174.82 -174.83,-174.82 -96.55,0 -174.82,78.27 -174.82,174.82 0,96.56 78.27,174.83 174.82,174.83 96.56,0 174.83,-78.27 174.83,-174.83" /><path
         id="path50"
         style="fill:#fcd0cd;fill-opacity:1;fill-rule:nonzero;stroke:none"
         d="m 4018.16,6866.52 69.56,29.05 c 18.18,7.52 32.39,22.29 39.2,40.74 l 21.34,57.79 c 1.38,3.74 -2.99,6.95 -6.15,4.52 l -58.96,-45.43 c -6.13,-4.73 -14.4,-5.62 -21.4,-2.3 -15.7,7.44 -34.05,6.61 -49.02,-2.21 l -24.31,-14.36 29.74,-67.8" /><path
         id="path52"
         style="fill:#4a5bb3;fill-opacity:1;fill-rule:nonzero;stroke:none"
         d="m 3182.69,7806.25 31.6,163.34 29.02,-5.61 c 33.58,-6.5 55.54,-38.99 49.04,-72.57 l -2.46,-12.71 c -9.59,-49.61 -57.59,-82.04 -107.2,-72.45" /><path
         id="path54"
         style="fill:#1a304e;fill-opacity:1;fill-rule:nonzero;stroke:none"
         d="m 2860.42,6581.16 68.01,-954.74 61.78,-913.34 h 70.88 l 61.1,913.35 -15.37,689.78 h 38.34 l 62.81,-660.34 -540.81,-821.97 48.7,-51.46 642.46,785.16 c 31.03,37.93 47.27,85.82 45.71,134.8 l -27.94,878.76 h -515.67" /><path
         id="path56"
         style="fill:#ef3363;fill-opacity:1;fill-rule:nonzero;stroke:none"
         d="m 3193.57,4634.02 h -66.24 l -66.25,21.37 v 57.69 l 66.25,-32.05 66.24,-15.63 v -31.38" /><path
         id="path58"
         style="fill:#ef3363;fill-opacity:1;fill-rule:nonzero;stroke:none"
         d="m 3040.47,4634.02 h -50.23 v 79.06 h 70.84 v -57.69 l -20.61,-21.37" /><path
         id="path60"
         style="fill:#ef3363;fill-opacity:1;fill-rule:nonzero;stroke:none"
         d="m 2749.51,4631.87 -45.54,48.11 -30.01,62.8 41.9,39.66 22.26,-70.14 34.18,-58.86 -22.79,-21.57" /><path
         id="path62"
         style="fill:#ef3363;fill-opacity:1;fill-rule:nonzero;stroke:none"
         d="m 2644.27,4743.06 -34.53,36.49 57.42,54.35 48.7,-51.46 -41.9,-39.66 -29.69,0.28" /><path
         id="path64"
         style="fill:#f79226;fill-opacity:1;fill-rule:nonzero;stroke:none"
         d="m 2860.42,6497.04 h 515.67 v 455.66 l 84.3,462.21 c 28.14,71.96 -24.93,149.69 -102.2,149.69 h -529.3 c -77.26,0 -130.33,-77.73 -102.2,-149.69 l 133.73,-462.21 v -455.66" /><path
         id="path66"
         style="fill:#fcd0cd;fill-opacity:1;fill-rule:nonzero;stroke:none"
         d="m 3139.37,7661.72 -58.06,11.23 c -25.6,4.95 -42.34,29.72 -37.38,55.32 l 32.81,169.66 187.22,-36.21 -25.77,-133.21 c -8.85,-45.74 -53.09,-75.64 -98.82,-66.79" /><path
         id="path68"
         style="fill:#fcd0cd;fill-opacity:1;fill-rule:nonzero;stroke:none"
         d="m 3173.76,7755.04 -89.22,-20.39 -46.56,-171.15 110.63,-38.07 44.97,38.07 -19.82,191.54" /><path
         id="path70"
         style="fill:#4a5bb3;fill-opacity:1;fill-rule:nonzero;stroke:none"
         d="m 3060.45,7765.73 -5.31,1.03 c -12.23,2.37 -20.24,14.21 -17.87,26.44 l 21.19,109.57 27.47,-5.32 -25.48,-131.72" /><path
         id="path72"
         style="fill:#4a5bb3;fill-opacity:1;fill-rule:nonzero;stroke:none"
         d="m 3183.61,7873.9 -126.02,24.37 10.43,53.89 c 6.7,34.64 40.21,57.29 74.86,50.59 l 63.29,-12.24 c 32.2,-6.23 53.25,-37.38 47.02,-69.59 -6.22,-32.2 -37.38,-53.25 -69.58,-47.02" /><path
         id="path74"
         style="fill:#4a5bb3;fill-opacity:1;fill-rule:nonzero;stroke:none"
         d="m 3072.7,7842.82 29.21,151.04 27.47,-5.31 -23.91,-123.57 c -2.93,-15.17 -17.6,-25.09 -32.77,-22.16" /><path
         id="path76"
         style="fill:#fcd0cd;fill-opacity:1;fill-rule:nonzero;stroke:none"
         d="m 3054.45,7838.07 c -1.78,-9.22 4.25,-18.14 13.47,-19.93 9.22,-1.78 18.14,4.25 19.93,13.47 1.78,9.22 -4.25,18.14 -13.47,19.93 -9.22,1.78 -18.14,-4.25 -19.93,-13.47" /><path
         id="path78"
         style="fill:#f79226;fill-opacity:1;fill-rule:nonzero;stroke:none"
         d="m 4018.16,6866.52 -447.54,-62.68 c -47.95,0 -89.46,33.31 -99.83,80.13 l -199.15,571.7 192.14,29.25 163.63,-508.07 361.01,-42.53 29.74,-67.8" /><path
         id="path80"
         style="fill:#1a304e;fill-opacity:1;fill-rule:nonzero;stroke:none"
         d="M 4080.46,6945.83 H 3630.9 c -12.41,0 -22.47,10.05 -22.47,22.46 v 8.71 c 0,12.41 10.06,22.47 22.47,22.47 h 449.56 c 12.41,0 22.46,-10.06 22.46,-22.47 v -8.71 c 0,-12.41 -10.05,-22.46 -22.46,-22.46" /><path
         id="path82"
         style="fill:#1a304e;fill-opacity:1;fill-rule:nonzero;stroke:none"
         d="m 4054.95,6965.8 143.17,460.71 c 2.32,7.48 10.27,11.66 17.75,9.34 7.48,-2.33 11.66,-10.28 9.34,-17.76 l -143.16,-460.71 c -2.33,-7.48 -10.28,-11.66 -17.76,-9.34 -7.48,2.33 -11.66,10.28 -9.34,17.76" /><path
         id="path84"
         style="fill:#f79226;fill-opacity:1;fill-rule:nonzero;stroke:none"
         d="m 3023.14,6907.59 -296.68,528.56 150.88,84.69 241.82,-430.84 570.33,1.75 -9.83,-73.38 -656.52,-110.78" /><path
         id="path86"
         style="fill:#fcd0cd;fill-opacity:1;fill-rule:nonzero;stroke:none"
         d="m 3689.49,7091.75 74.89,-8.67 c 19.54,-2.2 37.28,-12.46 48.93,-28.31 l 36.49,-49.63 c 2.37,-3.21 -0.95,-7.51 -4.65,-6.05 l -69.23,27.35 c -7.2,2.85 -15.39,1.42 -21.2,-3.71 -13.03,-11.49 -30.9,-15.77 -47.72,-11.43 l -27.34,7.07 9.83,73.38" /><path
         id="path88"
         style="fill:#f79226;fill-opacity:1;fill-rule:nonzero;stroke:none"
         d="m 3591.17,1352.47 h -34.97 v 3148.31 h 34.97 V 1352.47" /><path
         id="path90"
         style="fill:#f79226;fill-opacity:1;fill-rule:nonzero;stroke:none"
         d="m 2593.74,1578.36 h -34.98 v 2922.42 h 34.98 V 1578.36" /><path
         id="path92"
         style="fill:#1a304e;fill-opacity:1;fill-rule:nonzero;stroke:none"
         d="m 1405.11,1341.09 -32.84,12.03 1198.25,3267.87 h 1062.62 l -7.88,-23.13 -1108.72,-3256.39 -33.1,11.27 1100.85,3233.27 H 2594.95 L 1405.11,1341.09" /><path
         id="path94"
         style="fill:#1a304e;fill-opacity:1;fill-rule:nonzero;stroke:none"
         d="M 3417.79,4020.51 H 2375.76 v 34.97 h 1042.03 v -34.97" /><path
         id="path96"
         style="fill:#1a304e;fill-opacity:1;fill-rule:nonzero;stroke:none"
         d="M 3215.97,3427.1 H 2168.94 v 34.97 h 1047.03 v -34.97" /><path
         id="path98"
         style="fill:#1a304e;fill-opacity:1;fill-rule:nonzero;stroke:none"
         d="M 3013.5,2833.7 H 1932.56 v 34.97 H 3013.5 v -34.97" /><path
         id="path100"
         style="fill:#1a304e;fill-opacity:1;fill-rule:nonzero;stroke:none"
         d="M 2796.42,2240.28 H 1735.58 v 34.98 h 1060.84 v -34.98" /><path
         id="path102"
         style="fill:#4a5bb3;fill-opacity:1;fill-rule:nonzero;stroke:none"
         d="M 3630.64,4500.78 H 2483.76 c -14.31,0 -25.91,11.61 -25.91,25.92 v 78.79 c 0,14.31 11.6,25.92 25.91,25.92 h 1146.88 c 14.32,0 25.92,-11.61 25.92,-25.92 v -78.79 c 0,-14.31 -11.6,-25.92 -25.92,-25.92" /><path
         id="path104"
         style="fill:#ffffff;fill-opacity:1;fill-rule:nonzero;stroke:none"
         d="m 4576.36,4261.27 c -251.48,66.46 -401.47,324.2 -335.02,575.68 66.46,251.48 324.2,401.47 575.68,335.02 251.48,-66.46 401.48,-324.2 335.02,-575.68 -66.46,-251.48 -324.2,-401.47 -575.68,-335.02" /><path
         id="path106"
         style="fill:#ffffff;fill-opacity:1;fill-rule:nonzero;stroke:none"
         d="m 4640.34,4503.39 c -117.76,31.12 -188.01,151.81 -156.88,269.58 31.12,117.77 151.81,188.01 269.58,156.89 117.77,-31.12 188,-151.82 156.89,-269.59 -31.13,-117.76 -151.82,-188 -269.59,-156.88" /><path
         id="path108"
         style="fill:#d4d1e2;fill-opacity:1;fill-rule:nonzero;stroke:none"
         d="m 4294.07,4351.6 c -29.09,-35.93 -56.97,-73.21 -83.56,-111.75 33.37,-34.25 70.57,-64.82 110.52,-91.14 32.78,33.41 64.07,67.86 93.8,103.24 31.67,-19.21 65.35,-35.09 100.28,-47.48 l 36.73,103.62 c -47.7,17.22 -92.17,42.08 -131.06,74.07 -38.72,32.15 -71.87,71.08 -97.54,114.6 l -94.78,-55.72 c 18.76,-31.93 40.69,-62.04 65.61,-89.44" /><path
         id="path110"
         style="fill:#d4d1e2;fill-opacity:1;fill-rule:nonzero;stroke:none"
         d="m 4153.72,4695.83 c -45.65,-8.89 -91.02,-19.58 -135.85,-32.06 3.75,-47.68 12.54,-94.92 26.1,-140.7 46.25,4.44 92.71,10.83 138.33,18.84 11.92,-35.07 27.42,-68.92 46.16,-100.87 l 94.78,55.72 c -51.34,87.1 -71.36,192.19 -53.98,291.41 l -108.4,18.31 c -6.17,-36.51 -8.57,-73.65 -7.14,-110.65" /><path
         id="path112"
         style="fill:#d4d1e2;fill-opacity:1;fill-rule:nonzero;stroke:none"
         d="m 4267.37,5049.72 c -40.73,22.57 -82.21,43.44 -124.65,62.75 -27.8,-38.94 -51.44,-80.83 -70.41,-124.6 38.33,-26.34 77.81,-51.2 118.06,-74.47 -13.4,-34.53 -23.34,-70.41 -29.51,-106.92 l 108.4,-18.31 c 4.22,24.83 10.56,49.34 18.89,73.3 8.63,23.86 19.14,46.89 31.51,68.83 24.59,43.97 57.15,83.29 95.6,115.9 l -71.29,83.69 c -28.18,-24.02 -53.9,-50.92 -76.6,-80.17" /><path
         id="path114"
         style="fill:#d4d1e2;fill-opacity:1;fill-rule:nonzero;stroke:none"
         d="m 4581.95,5247.74 c -16.66,43.17 -35.08,85.96 -55.24,128.27 -46.23,-12.02 -91.15,-28.9 -133.85,-50.21 12.55,-45.14 26.49,-89.08 42.4,-132.92 -32.46,-17.84 -63.1,-38.97 -91.29,-62.99 l 71.29,-83.69 c 38.41,32.59 82.45,58.98 129.88,76.43 47.35,17.62 97.62,26.98 147.95,27.56 l -0.93,109.93 c -37.04,-0.25 -74.03,-4.51 -110.21,-12.38" /><path
         id="path116"
         style="fill:#d4d1e2;fill-opacity:1;fill-rule:nonzero;stroke:none"
         d="m 4950.19,5197.23 c 14.97,43.77 28.34,88.39 40.08,133.75 -43.13,20.59 -88.13,36.54 -134.6,47.72 -19.45,-42.63 -37.16,-85.7 -53.11,-129.13 -36.31,7.28 -73.37,10.83 -110.4,10.55 l 0.93,-109.93 c 50.35,0.34 100.55,-8.37 148.45,-25.04 47.7,-17.22 92.17,-42.08 131.06,-74.07 l 69.97,84.8 c -28.59,23.54 -59.6,44.13 -92.38,61.35" /><path
         id="path118"
         style="fill:#d4d1e2;fill-opacity:1;fill-rule:nonzero;stroke:none"
         d="m 5199.74,4921.84 c 39.97,24.02 78.48,49.37 116.66,76.51 -19.74,43.46 -43.99,84.86 -72.34,123.32 -42.3,-20.17 -83.56,-41.8 -123.69,-64.83 -23.15,28.9 -49.19,55.51 -77.8,79.04 l -69.97,-84.8 c 38.72,-32.15 71.88,-71.08 97.55,-114.59 25.84,-43.43 43.42,-91.67 52.72,-141.18 l 108.09,20.09 c -6.76,36.41 -17.25,72.13 -31.22,106.44" /><path
         id="path120"
         style="fill:#d4d1e2;fill-opacity:1;fill-rule:nonzero;stroke:none"
         d="m 5213.89,4550.51 c 45.91,-7.28 92.23,-12.84 138.59,-16.53 12.84,45.94 20.87,93.37 23.81,141.13 -45.12,11.73 -90.48,21.65 -136.34,29.77 0.8,37.02 -2.23,74.12 -8.99,110.52 l -108.09,-20.09 c 9.33,-49.55 9.85,-100.6 1.25,-150.23 -4.22,-24.84 -10.56,-49.35 -18.9,-73.31 -8.61,-23.85 -19.13,-46.89 -31.49,-68.83 l 95.72,-54.06 c 18.21,32.24 33.09,66.37 44.44,101.63" /><path
         id="path122"
         style="fill:#d4d1e2;fill-opacity:1;fill-rule:nonzero;stroke:none"
         d="m 4986.14,4256.9 c 30.38,-34.95 62.44,-69.18 95.56,-101.76 39.38,27.01 75.97,58.16 108.91,92.83 -26.96,37.93 -55.46,74.81 -85.31,110.47 24.41,27.84 45.95,58.2 64.15,90.44 l -95.72,54.06 c -49.01,-88 -130.75,-157.01 -225.49,-192.33 l 38.51,-102.97 c 34.69,13.01 68.04,29.54 99.39,49.26" /><path
         id="path124"
         style="fill:#d4d1e2;fill-opacity:1;fill-rule:nonzero;stroke:none"
         d="m 4622.89,4178.18 c 0.81,-46.21 3.41,-92.67 7.82,-139.28 47.61,-4.7 95.75,-4.4 143.25,1.18 3.63,46.68 5.45,93.19 5.49,139.43 36.62,5.57 72.62,15.15 107.3,28.13 l -38.51,102.97 c -47.35,-17.62 -97.62,-26.97 -147.94,-27.55 -50.36,-0.35 -100.56,8.36 -148.46,25.03 l -36.73,-103.62 c 34.93,-12.37 71.09,-21.26 107.78,-26.29" /><path
         id="path126"
         style="fill:#d4d1e2;fill-opacity:1;fill-rule:nonzero;stroke:none"
         d="m 8187.66,3004.94 c -186.04,89 -264.71,311.96 -175.71,498 89,186.04 311.97,264.71 498.01,175.71 186.04,-89.01 264.7,-311.97 175.7,-498.01 -88.99,-186.04 -311.96,-264.7 -498,-175.7" /><path
         id="path128"
         style="fill:#ffffff;fill-opacity:1;fill-rule:nonzero;stroke:none"
         d="m 8273.34,3184.04 c -87.12,41.68 -123.96,146.09 -82.28,233.21 41.68,87.12 146.09,123.96 233.21,82.29 87.12,-41.68 123.96,-146.09 82.28,-233.21 -41.67,-87.12 -146.09,-123.96 -233.21,-82.29" /><path
         id="path130"
         style="fill:#d4d1e2;fill-opacity:1;fill-rule:nonzero;stroke:none"
         d="m 7981.16,3117.09 c -27.99,-23.68 -55.22,-48.58 -81.64,-74.67 20.93,-31.62 45.38,-60.94 72.59,-87.36 30.48,21.18 59.95,43.37 88.35,66.53 21.82,-19.65 45.7,-37.01 71.08,-51.83 l 43.95,75.27 c -34.6,20.48 -65.55,46.43 -91.11,77.1 -25.4,30.78 -45.46,66.01 -59.01,103.7 l -82.07,-29.36 c 9.88,-27.65 22.5,-54.35 37.86,-79.38" /><path
         id="path132"
         style="fill:#d4d1e2;fill-opacity:1;fill-rule:nonzero;stroke:none"
         d="m 7922.8,3405.99 c -36.87,-0.16 -73.79,-1.77 -110.55,-4.85 -4.14,-37.69 -4.3,-75.79 -0.5,-113.46 36.67,-3.39 73.81,-5.29 110.53,-5.81 4.09,-29.08 11.15,-57.74 21.02,-85.4 l 82.07,29.36 c -27.09,75.45 -27.12,160.27 1.1,234.98 l -81.71,30.31 c -10.22,-27.52 -17.59,-56.1 -21.96,-85.13" /><path
         id="path134"
         style="fill:#d4d1e2;fill-opacity:1;fill-rule:nonzero;stroke:none"
         d="m 8063.73,3664.81 c -28.38,23.61 -57.61,46.01 -87.79,67.34 -27.42,-26.22 -52.04,-55.35 -73.3,-86.63 25.96,-26.2 53.02,-51.4 80.93,-75.48 -15.55,-24.92 -28.61,-51.39 -38.81,-78.92 l 81.71,-30.31 c 6.97,18.72 15.54,36.86 25.58,54.29 10.24,17.31 21.84,33.7 34.73,48.95 25.66,30.61 56.84,56.42 91.62,76.12 l -43.13,75.74 c -25.51,-14.53 -49.53,-31.68 -71.54,-51.1" /><path
         id="path136"
         style="fill:#d4d1e2;fill-opacity:1;fill-rule:nonzero;stroke:none"
         d="m 8338.08,3772.47 c -6.59,36.09 -14.6,72.15 -24.03,108.09 -37.8,-2.52 -75.28,-9.01 -111.7,-19.29 3.09,-37.01 7.44,-73.31 13.35,-109.81 -27.92,-9.09 -54.92,-21.01 -80.43,-35.55 l 43.13,-75.74 c 34.74,19.7 72.96,33.73 112.48,40.3 39.49,6.72 80.03,6.56 119.32,-0.44 l 15.56,85.76 c -28.89,5.29 -58.33,7.45 -87.68,6.68" /><path
         id="path138"
         style="fill:#d4d1e2;fill-opacity:1;fill-rule:nonzero;stroke:none"
         d="m 8617.42,3678.6 c 18.14,31.88 35.16,64.65 51.03,98.24 -30.55,22.43 -63.24,41.52 -97.78,57.1 -21.46,-30.32 -41.64,-61.24 -60.49,-92.71 -27.21,11.05 -55.54,19.3 -84.42,24.56 l -15.56,-85.76 c 39.27,-7.19 77.08,-21.4 111.92,-41.48 34.6,-20.48 65.56,-46.43 91.12,-77.1 l 67.05,55.69 c -18.78,22.57 -39.88,43.19 -62.87,61.46" /><path
         id="path140"
         style="fill:#d4d1e2;fill-opacity:1;fill-rule:nonzero;stroke:none"
         d="m 8771.02,3427.15 c 34.69,12.79 68.44,26.83 102.19,42.32 -8.94,36.77 -21.69,72.61 -38.08,106.76 -35.93,-9.44 -71.27,-20.18 -105.94,-32.18 -13.75,25.95 -30.1,50.53 -48.9,73.09 l -67.05,-55.69 c 25.4,-30.78 45.46,-66.01 59.01,-103.7 13.7,-37.66 20.25,-77.84 20.16,-117.77 l 87.17,-0.36 c 0.12,29.36 -2.76,58.74 -8.56,87.53" /><path
         id="path142"
         style="fill:#d4d1e2;fill-opacity:1;fill-rule:nonzero;stroke:none"
         d="m 8727.06,3135.83 c 34.68,-12.48 69.94,-23.67 105.5,-33.4 16.81,33.88 30.08,69.64 39.44,106.4 -33.4,15.81 -67.27,30.26 -101.79,43.38 6.11,28.71 9.24,58.05 9.37,87.41 l -87.17,0.36 c -0.07,-39.98 -7.22,-79.82 -21.27,-117.21 -6.96,-18.71 -15.53,-36.86 -25.57,-54.29 -10.25,-17.31 -21.84,-33.7 -34.73,-48.95 l 66.56,-56.29 c 18.95,22.42 35.6,46.8 49.66,72.59" /><path
         id="path144"
         style="fill:#d4d1e2;fill-opacity:1;fill-rule:nonzero;stroke:none"
         d="m 8506.19,2940.85 c 18.49,-31.72 38.39,-63.13 59.37,-93.41 34.67,15.21 67.77,34.06 98.57,56.18 -15.38,33.54 -32.12,66.48 -50.09,98.68 23.14,18.07 44.4,38.52 63.36,60.94 l -66.56,56.29 c -51.2,-61.3 -125.09,-102.94 -204.11,-116.42 l 14.75,-85.91 c 28.94,5 57.37,12.94 84.71,23.65" /><path
         id="path146"
         style="fill:#d4d1e2;fill-opacity:1;fill-rule:nonzero;stroke:none"
         d="m 8211.6,2933.32 c -6.22,-36.11 -11.07,-72.68 -14.53,-109.64 36.38,-10.71 73.93,-17.6 111.75,-20.29 9.73,35.82 18.05,71.78 24.92,107.78 29.35,-1.07 58.8,1.06 87.74,6.03 l -14.75,85.91 c -39.48,-6.72 -80.03,-6.56 -119.31,0.44 -39.28,7.19 -77.09,21.4 -111.93,41.48 l -43.95,-75.27 c 25.37,-14.81 52.22,-27.09 80.06,-36.44" /><path
         id="path148"
         style="fill:#4a5bb3;fill-opacity:1;fill-rule:nonzero;stroke:none"
         d="m 7150.67,2056.92 c -110.87,53.04 -157.75,185.91 -104.71,296.78 53.04,110.86 185.92,157.75 296.78,104.71 110.87,-53.04 157.75,-185.91 104.71,-296.78 -53.04,-110.87 -185.91,-157.75 -296.78,-104.71" /><path
         id="path150"
         style="fill:#ffffff;fill-opacity:1;fill-rule:nonzero;stroke:none"
         d="m 7201.74,2163.66 c -51.92,24.83 -73.87,87.06 -49.04,138.97 24.84,51.92 87.06,73.88 138.98,49.04 51.92,-24.84 73.87,-87.06 49.03,-138.98 -24.83,-51.92 -87.05,-73.87 -138.97,-49.03" /><path
         id="path152"
         style="fill:#4a5bb3;fill-opacity:1;fill-rule:nonzero;stroke:none"
         d="m 7027.61,2123.76 c -16.67,-14.12 -32.9,-28.96 -48.65,-44.5 12.47,-18.84 27.04,-36.32 43.26,-52.06 18.17,12.62 35.73,25.84 52.65,39.64 13.01,-11.71 27.24,-22.05 42.36,-30.88 l 26.19,44.85 c -20.62,12.21 -39.06,27.67 -54.3,45.95 -15.13,18.34 -27.08,39.34 -35.16,61.8 l -48.91,-17.5 c 5.89,-16.48 13.41,-32.39 22.56,-47.3" /><path
         id="path154"
         style="fill:#4a5bb3;fill-opacity:1;fill-rule:nonzero;stroke:none"
         d="m 6992.84,2295.92 c -21.98,-0.09 -43.98,-1.05 -65.89,-2.89 -2.47,-22.46 -2.56,-45.16 -0.29,-67.61 21.85,-2.02 43.98,-3.16 65.86,-3.47 2.45,-17.32 6.65,-34.4 12.53,-50.89 l 48.91,17.5 c -16.14,44.96 -16.16,95.51 0.66,140.03 l -48.7,18.06 c -6.09,-16.4 -10.48,-33.43 -13.08,-50.73" /><path
         id="path156"
         style="fill:#4a5bb3;fill-opacity:1;fill-rule:nonzero;stroke:none"
         d="m 7076.82,2450.16 c -16.91,14.07 -34.33,27.42 -52.32,40.13 -16.34,-15.62 -31.01,-32.98 -43.68,-51.63 15.47,-15.6 31.6,-30.63 48.23,-44.98 -9.27,-14.85 -17.05,-30.62 -23.13,-47.03 l 48.7,-18.06 c 4.14,11.15 9.26,21.97 15.24,32.36 6.1,10.31 13.02,20.07 20.69,29.17 15.29,18.24 33.88,33.62 54.61,45.36 l -25.71,45.14 c -15.2,-8.67 -29.51,-18.88 -42.63,-30.46" /><path
         id="path158"
         style="fill:#4a5bb3;fill-opacity:1;fill-rule:nonzero;stroke:none"
         d="m 7240.31,2514.32 c -3.92,21.51 -8.69,43 -14.31,64.41 -22.53,-1.49 -44.87,-5.37 -66.57,-11.49 1.84,-22.06 4.44,-43.69 7.96,-65.44 -16.65,-5.42 -32.74,-12.52 -47.94,-21.18 l 25.71,-45.14 c 20.7,11.74 43.47,20.1 67.03,24.02 23.53,4 47.69,3.9 71.1,-0.27 l 9.27,51.11 c -17.21,3.15 -34.76,4.44 -52.25,3.98" /><path
         id="path160"
         style="fill:#4a5bb3;fill-opacity:1;fill-rule:nonzero;stroke:none"
         d="m 7406.78,2458.38 c 10.81,19 20.96,38.53 30.41,58.55 -18.2,13.36 -37.68,24.74 -58.26,34.02 -12.8,-18.06 -24.82,-36.5 -36.05,-55.25 -16.21,6.59 -33.1,11.5 -50.32,14.64 l -9.27,-51.11 c 23.41,-4.28 45.94,-12.75 66.71,-24.72 20.62,-12.2 39.06,-27.66 54.29,-45.94 l 39.96,33.18 c -11.19,13.45 -23.77,25.75 -37.47,36.63" /><path
         id="path162"
         style="fill:#4a5bb3;fill-opacity:1;fill-rule:nonzero;stroke:none"
         d="m 7498.32,2308.53 c 20.67,7.62 40.79,15.99 60.9,25.22 -5.33,21.91 -12.93,43.27 -22.69,63.62 -21.42,-5.62 -42.48,-12.02 -63.14,-19.17 -8.19,15.46 -17.94,30.11 -29.14,43.55 l -39.96,-33.18 c 15.14,-18.34 27.09,-39.34 35.17,-61.8 8.16,-22.44 12.07,-46.39 12.01,-70.19 l 51.95,-0.21 c 0.08,17.5 -1.64,35 -5.1,52.16" /><path
         id="path164"
         style="fill:#4a5bb3;fill-opacity:1;fill-rule:nonzero;stroke:none"
         d="m 7472.12,2134.92 c 20.67,-7.43 41.68,-14.1 62.88,-19.9 10.01,20.19 17.92,41.5 23.5,63.4 -19.91,9.43 -40.09,18.04 -60.66,25.86 3.64,17.11 5.5,34.59 5.58,52.09 l -51.95,0.21 c -0.04,-23.82 -4.3,-47.56 -12.67,-69.84 -4.15,-11.16 -9.26,-21.97 -15.24,-32.36 -6.11,-10.32 -13.02,-20.08 -20.7,-29.17 l 39.66,-33.54 c 11.3,13.35 21.22,27.88 29.6,43.25" /><path
         id="path166"
         style="fill:#4a5bb3;fill-opacity:1;fill-rule:nonzero;stroke:none"
         d="m 7340.5,2018.73 c 11.02,-18.9 22.88,-37.62 35.38,-55.67 20.66,9.06 40.39,20.3 58.74,33.48 -9.17,19.99 -19.14,39.62 -29.85,58.81 13.79,10.77 26.46,22.96 37.75,36.32 l -39.66,33.54 c -30.51,-36.53 -74.54,-61.35 -121.63,-69.38 l 8.79,-51.19 c 17.25,2.97 34.19,7.7 50.48,14.09" /><path
         id="path168"
         style="fill:#4a5bb3;fill-opacity:1;fill-rule:nonzero;stroke:none"
         d="m 7164.94,2014.24 c -3.7,-21.52 -6.6,-43.31 -8.66,-65.34 21.68,-6.38 44.06,-10.49 66.6,-12.09 5.8,21.35 10.75,42.78 14.85,64.23 17.49,-0.64 35.04,0.63 52.29,3.6 l -8.79,51.19 c -23.53,-4 -47.69,-3.91 -71.11,0.26 -23.4,4.29 -45.94,12.76 -66.7,24.72 l -26.19,-44.85 c 15.12,-8.83 31.12,-16.15 47.71,-21.72" /><path
         id="path170"
         style="fill:#ef3363;fill-opacity:1;fill-rule:nonzero;stroke:none"
         d="m 5240.74,6541.08 c -179.64,85.94 -255.6,301.23 -169.66,480.87 85.94,179.64 301.23,255.6 480.87,169.66 179.65,-85.93 255.6,-301.23 169.67,-480.87 -85.94,-179.64 -301.23,-255.6 -480.88,-169.66" /><path
         id="path172"
         style="fill:#ffffff;fill-opacity:1;fill-rule:nonzero;stroke:none"
         d="m 5323.48,6714.03 c -84.12,40.24 -119.7,141.06 -79.45,225.18 40.24,84.13 141.06,119.7 225.19,79.46 84.12,-40.25 119.69,-141.07 79.45,-225.19 -40.25,-84.13 -141.07,-119.7 -225.19,-79.45" /><path
         id="path174"
         style="fill:#ef3363;fill-opacity:1;fill-rule:nonzero;stroke:none"
         d="m 5041.34,6649.38 c -27.01,-22.87 -53.31,-46.92 -78.82,-72.1 20.2,-30.53 43.81,-58.85 70.09,-84.36 29.44,20.45 57.89,41.88 85.31,64.24 21.07,-18.98 44.13,-35.73 68.63,-50.04 l 42.44,72.67 c -33.41,19.78 -63.3,44.83 -87.98,74.45 -24.52,29.72 -43.89,63.74 -56.98,100.14 l -79.24,-28.35 c 9.54,-26.7 21.72,-52.48 36.55,-76.65" /><path
         id="path176"
         style="fill:#ef3363;fill-opacity:1;fill-rule:nonzero;stroke:none"
         d="m 4985,6928.34 c -35.61,-0.16 -71.25,-1.71 -106.75,-4.69 -4.01,-36.39 -4.15,-73.18 -0.49,-109.55 35.42,-3.28 71.28,-5.11 106.73,-5.61 3.96,-28.08 10.77,-55.75 20.3,-82.46 l 79.24,28.35 c -26.15,72.85 -26.18,154.75 1.08,226.89 l -78.91,29.27 c -9.87,-26.58 -16.98,-54.17 -21.2,-82.2" /><path
         id="path178"
         style="fill:#ef3363;fill-opacity:1;fill-rule:nonzero;stroke:none"
         d="m 5121.08,7178.25 c -27.41,22.81 -55.63,44.44 -84.78,65.02 -26.48,-25.31 -50.25,-53.44 -70.77,-83.65 25.07,-25.28 51.2,-49.62 78.15,-72.88 -15.02,-24.06 -27.63,-49.62 -37.48,-76.2 l 78.91,-29.27 c 6.72,18.07 14.99,35.6 24.68,52.43 9.9,16.71 21.1,32.53 33.54,47.26 24.78,29.56 54.89,54.48 88.48,73.5 l -41.65,73.14 c -24.64,-14.03 -47.83,-30.59 -69.08,-49.35" /><path
         id="path180"
         style="fill:#ef3363;fill-opacity:1;fill-rule:nonzero;stroke:none"
         d="m 5385.99,7282.21 c -6.36,34.85 -14.1,69.67 -23.2,104.37 -36.5,-2.43 -72.69,-8.7 -107.86,-18.63 2.99,-35.73 7.19,-70.78 12.89,-106.03 -26.96,-8.77 -53.03,-20.29 -77.66,-34.32 l 41.65,-73.14 c 33.54,19.02 70.44,32.57 108.61,38.92 38.12,6.48 77.28,6.33 115.21,-0.43 l 15.02,82.81 c -27.89,5.11 -56.32,7.2 -84.66,6.45" /><path
         id="path182"
         style="fill:#ef3363;fill-opacity:1;fill-rule:nonzero;stroke:none"
         d="m 5655.72,7191.57 c 17.52,30.78 33.96,62.43 49.27,94.86 -29.49,21.66 -61.05,40.09 -94.4,55.14 -20.73,-29.28 -40.21,-59.14 -58.42,-89.52 -26.27,10.66 -53.63,18.63 -81.52,23.71 l -15.02,-82.81 c 37.92,-6.94 74.43,-20.67 108.07,-40.05 33.41,-19.78 63.31,-44.83 87.98,-74.45 l 64.75,53.77 c -18.13,21.8 -38.51,41.71 -60.71,59.35" /><path
         id="path184"
         style="fill:#ef3363;fill-opacity:1;fill-rule:nonzero;stroke:none"
         d="m 5804.04,6948.77 c 33.49,12.35 66.09,25.91 98.68,40.87 -8.63,35.5 -20.95,70.11 -36.77,103.08 -34.7,-9.11 -68.83,-19.48 -102.3,-31.07 -13.28,25.05 -29.07,48.79 -47.22,70.57 l -64.75,-53.77 c 24.53,-29.72 43.9,-63.74 56.99,-100.14 13.22,-36.36 19.55,-75.15 19.46,-113.71 l 84.17,-0.35 c 0.12,28.35 -2.66,56.72 -8.26,84.52" /><path
         id="path186"
         style="fill:#ef3363;fill-opacity:1;fill-rule:nonzero;stroke:none"
         d="m 5761.59,6667.47 c 33.49,-12.05 67.53,-22.85 101.87,-32.25 16.23,32.71 29.05,67.24 38.09,102.74 -32.26,15.27 -64.96,29.22 -98.29,41.88 5.9,27.73 8.92,56.06 9.04,84.41 l -84.17,0.35 c -0.06,-38.61 -6.97,-77.07 -20.54,-113.18 -6.72,-18.07 -14.99,-35.6 -24.69,-52.43 -9.89,-16.71 -21.09,-32.53 -33.53,-47.26 l 64.26,-54.35 c 18.31,21.64 34.38,45.19 47.96,70.09" /><path
         id="path188"
         style="fill:#ef3363;fill-opacity:1;fill-rule:nonzero;stroke:none"
         d="m 5548.32,6479.2 c 17.85,-30.63 37.07,-60.96 57.32,-90.2 33.49,14.68 65.45,32.89 95.19,54.25 -14.86,32.38 -31.02,64.2 -48.37,95.28 22.34,17.45 42.87,37.2 61.17,58.85 l -64.26,54.35 c -49.44,-59.19 -120.79,-99.4 -197.09,-112.42 l 14.24,-82.95 c 27.95,4.83 55.4,12.49 81.8,22.84" /><path
         id="path190"
         style="fill:#ef3363;fill-opacity:1;fill-rule:nonzero;stroke:none"
         d="m 5263.86,6471.93 c -6,-34.87 -10.69,-70.19 -14.04,-105.87 35.14,-10.35 71.4,-17 107.91,-19.6 9.41,34.59 17.43,69.32 24.07,104.08 28.34,-1.04 56.78,1.02 84.72,5.82 l -14.24,82.95 c -38.13,-6.48 -77.28,-6.33 -115.21,0.43 -37.92,6.94 -74.43,20.67 -108.08,40.05 l -42.44,-72.67 c 24.5,-14.31 50.43,-26.16 77.31,-35.19" /><path
         id="path192"
         style="fill:#ef3363;fill-opacity:1;fill-rule:nonzero;stroke:none"
         d="m 4777.28,3627.32 573,20.29 v 84.55 l -398.67,94.85 -133.84,440.12 -264.83,-17.47 224.34,-622.34" /><path
         id="path194"
         style="fill:#fcd0cd;fill-opacity:1;fill-rule:nonzero;stroke:none"
         d="m 5345.48,3728.04 56.77,11.65 c 19.92,4.09 40.64,-0.3 57.17,-12.11 l 51.79,-36.99 c 3.35,-2.39 1.47,-7.66 -2.65,-7.41 l -76.81,4.69 c -8,0.48 -15.59,-3.54 -19.66,-10.42 -9.12,-15.43 -25.32,-25.34 -43.24,-26.45 l -29.14,-1.81 5.77,78.85" /><path
         id="path196"
         style="fill:#4a5bb3;fill-opacity:1;fill-rule:nonzero;stroke:none"
         d="M 4233.9,3478.13 4323.7,2429.61 4069,1450.96 h 76.17 l 360.16,978.66 33.83,718.74 h 72.08 l 144.15,-718.74 127.09,-978.66 h 76.16 l -21.62,978.66 -79.32,1048.51 h -623.8" /><path
         id="path198"
         style="fill:#ef3363;fill-opacity:1;fill-rule:nonzero;stroke:none"
         d="m 4287.52,1366.24 h -71.18 l -71.18,22.9 v 61.82 l 71.18,-34.34 71.18,-16.75 v -33.63" /><path
         id="path200"
         style="fill:#ef3363;fill-opacity:1;fill-rule:nonzero;stroke:none"
         d="m 4123.02,1366.24 h -53.98 v 84.72 h 76.12 v -61.82 l -22.14,-22.9" /><path
         id="path202"
         style="fill:#ef3363;fill-opacity:1;fill-rule:nonzero;stroke:none"
         d="m 5101,1366.24 h -71.19 l -71.17,22.9 v 61.82 l 71.17,-34.34 71.19,-16.75 v -33.63" /><path
         id="path204"
         style="fill:#ef3363;fill-opacity:1;fill-rule:nonzero;stroke:none"
         d="m 4936.49,1366.24 h -53.98 v 84.72 h 76.13 v -61.82 l -22.15,-22.9" /><path
         id="path206"
         style="fill:#ef3363;fill-opacity:1;fill-rule:nonzero;stroke:none"
         d="m 4914.42,3540.39 -90.62,703.93 c -10.66,62.83 -65.23,108.82 -129.13,108.82 h -293.86 c -63.91,0 -118.49,-45.99 -129.14,-108.82 l -90.62,-703.93 c -38.39,-226.31 771.76,-226.31 733.37,0" /><path
         id="path208"
         style="fill:#fcd0cd;fill-opacity:1;fill-rule:nonzero;stroke:none"
         d="m 4574.78,4565.69 h -72.86 l -54.26,-217.9 h 185.44 l -58.32,217.9" /><path
         id="path210"
         style="fill:#fcd0cd;fill-opacity:1;fill-rule:nonzero;stroke:none"
         d="m 4532.97,4262.72 h 14.81 c 47.12,0 85.32,38.09 85.32,85.07 h -185.44 c 0,-46.98 38.19,-85.07 85.31,-85.07" /><path
         id="path212"
         style="fill:#1a304e;fill-opacity:1;fill-rule:nonzero;stroke:none"
         d="m 5129.65,2825.39 c 102.88,110.57 97,232.01 37.61,338.54 l 504.52,566.74 c 113.1,-46.26 234.72,-37.81 332.7,77.08 64.79,75.98 107.73,180.92 85.52,266.13 l -51.34,45.46 -97.26,-109.17 c -44.24,-49.63 -89.35,-74.17 -126.95,-40.85 l -57.37,50.82 c -37.58,33.29 -75.15,68.2 0.39,152.98 l 97.27,109.19 -49.46,43.82 c -87.49,11.98 -211.06,-39.52 -275.86,-114.57 -77.29,-89.55 -81.55,-201.23 -58.99,-291.31 l -515.66,-579.23 c -92.4,11.72 -203.08,-5.63 -283.15,-92.72 -67.11,-73.01 -103.85,-201.46 -81.61,-286.67 l 49.45,-43.8 97.27,109.13 c 75.55,84.82 114.73,51.74 152.29,18.44 l 57.41,-50.86 c 37.56,-33.29 18.44,-80.84 -25.8,-130.53 l -97.24,-109.14 51.33,-45.49 c 87.47,-11.98 186.9,42.93 254.93,116.01" /><path
         id="path214"
         style="fill:#fcd0cd;fill-opacity:1;fill-rule:nonzero;stroke:none"
         d="m 5221.48,3296.48 56.76,-11.65 c 19.92,-4.09 40.64,0.3 57.18,12.11 l 51.78,36.99 c 3.35,2.39 1.47,7.66 -2.64,7.41 l -76.82,-4.69 c -7.99,-0.49 -15.59,3.54 -19.65,10.42 -9.13,15.43 -25.32,25.34 -43.25,26.45 l -29.14,1.81 5.78,-78.85" /><path
         id="path216"
         style="fill:#ef3363;fill-opacity:1;fill-rule:nonzero;stroke:none"
         d="m 4467.75,3496.58 759.67,-208.87 v 92.79 l -599.7,270.61 -117.83,610.98 -241.38,-47.7 199.24,-717.81" /><path
         id="path218"
         style="fill:#f79226;fill-opacity:1;fill-rule:nonzero;stroke:none"
         d="m 4589.15,4624.38 19.22,-0.39 c 37.51,-0.75 68.52,29.05 69.28,66.56 l 1.24,62.28 -87.13,1.74 -2.61,-130.19" /><path
         id="path220"
         style="fill:#f79226;fill-opacity:1;fill-rule:nonzero;stroke:none"
         d="m 4398.39,4572.55 100.59,-2.01 2.6,129.43 -80.93,1.62 c 1.83,-42.89 -5.87,-85.66 -21.33,-126.56 l -0.93,-2.48" /><path
         id="path222"
         style="fill:#fcd0cd;fill-opacity:1;fill-rule:nonzero;stroke:none"
         d="m 4584.73,4491.42 -98.79,1.98 c -20.71,0.41 -37.16,17.53 -36.74,38.24 l 3.94,197.02 203.25,-4.07 -3.35,-167.54 c -0.75,-36.99 -31.33,-66.37 -68.31,-65.63" /><path
         id="path224"
         style="fill:#f79226;fill-opacity:1;fill-rule:nonzero;stroke:none"
         d="m 4420.65,4701.59 180.23,-3.61 c 52.09,-1.04 95.16,40.34 96.2,92.43 l -196.45,3.93 c -43.13,0.86 -78.79,-33.39 -79.65,-76.52 l -0.33,-16.23" /><path
         id="path226"
         style="fill:#fcd0cd;fill-opacity:1;fill-rule:nonzero;stroke:none"
         d="m 4437.97,4621.96 c -0.23,-11.15 8.63,-20.36 19.77,-20.59 11.15,-0.22 20.37,8.63 20.59,19.78 0.22,11.14 -8.63,20.36 -19.78,20.58 -11.14,0.23 -20.36,-8.63 -20.58,-19.77" /><path
         id="path228"
         style="fill:#1a304e;fill-opacity:1;fill-rule:nonzero;stroke:none"
         d="m 9036.04,2727.8 451.41,-204.27 451.41,204.27 -451.41,204.26 z m 451.41,-237.2 -524.19,237.2 524.19,237.19 524.15,-237.19 -524.15,-237.2" /><path
         id="path230"
         style="fill:#1a304e;fill-opacity:1;fill-rule:nonzero;stroke:none"
         d="m 9036.04,2286.33 451.41,-204.27 451.41,204.27 -451.41,204.27 z m 451.41,-237.2 -524.19,237.2 524.19,237.2 524.15,-237.2 -524.15,-237.2" /><path
         id="path232"
         style="fill:#1a304e;fill-opacity:1;fill-rule:nonzero;stroke:none"
         d="m 9036.04,1844.86 451.41,-204.27 451.41,204.27 -451.41,204.27 z m 451.41,-237.19 -524.19,237.19 524.19,237.2 524.15,-237.2 -524.15,-237.19" /><path
         id="path234"
         style="fill:#4a5bb3;fill-opacity:1;fill-rule:nonzero;stroke:none"
         d="M 10072.7,1358.19 H 8902.15 V 1686 h 1170.55 v -327.81" /><path
         id="path236"
         style="fill:#1a304e;fill-opacity:1;fill-rule:nonzero;stroke:none"
         d="m 9172.41,1512.35 c 0,-29.54 -23.95,-53.49 -53.49,-53.49 -29.54,0 -53.48,23.95 -53.48,53.49 0,29.54 23.94,53.48 53.48,53.48 29.54,0 53.49,-23.94 53.49,-53.48" /><path
         id="path238"
         style="fill:#1a304e;fill-opacity:1;fill-rule:nonzero;stroke:none"
         d="m 9912.86,1512.35 c 0,-29.54 -23.94,-53.49 -53.48,-53.49 -29.54,0 -53.48,23.95 -53.48,53.49 0,29.54 23.94,53.48 53.48,53.48 29.54,0 53.48,-23.94 53.48,-53.48" /><path
         id="path240"
         style="fill:#ef3363;fill-opacity:1;fill-rule:nonzero;stroke:none"
         d="M 10341.4,2859.85 H 8652.65 v 177.36 h 1688.75 v -177.36" /><path
         id="path242"
         style="fill:#fcd0cd;fill-opacity:1;fill-rule:nonzero;stroke:none"
         d="m 9339.48,4255.75 h 175.14 L 9758.09,3120.8 h -75.35 l -343.26,1134.95" /><path
         id="path244"
         style="fill:#fcd0cd;fill-opacity:1;fill-rule:nonzero;stroke:none"
         d="m 9275.18,4255.75 20.64,-1134.95 h -75.33 l -107.75,1134.95 h 162.44" /><path
         id="path246"
         style="fill:#f79226;fill-opacity:1;fill-rule:nonzero;stroke:none"
         d="m 9539.8,3037.21 h 71.12 l 103.52,33.47 -32.41,51.4 -142.23,-68.41 v -16.46" /><path
         id="path248"
         style="fill:#f79226;fill-opacity:1;fill-rule:nonzero;stroke:none"
         d="m 9704.16,3037.21 h 53.93 v 84.87 h -76.06 l 32.41,-51.4 -10.28,-33.47" /><path
         id="path250"
         style="fill:#f79226;fill-opacity:1;fill-rule:nonzero;stroke:none"
         d="m 9077.54,3037.21 h 71.12 l 103.53,33.47 -32.42,51.4 -142.23,-68.41 v -16.46" /><path
         id="path252"
         style="fill:#f79226;fill-opacity:1;fill-rule:nonzero;stroke:none"
         d="m 9241.89,3037.21 h 53.93 v 84.87 h -76.05 l 32.42,-51.4 -10.3,-33.47" /><path
         id="path254"
         style="fill:#f79226;fill-opacity:1;fill-rule:nonzero;stroke:none"
         d="m 8797.22,4857.32 471.52,375.03 -6.44,581.92 -237.21,5.82 -3.26,-491.93 -274.79,-423.96 50.18,-46.88" /><path
         id="path256"
         style="fill:#1a304e;fill-opacity:1;fill-rule:nonzero;stroke:none"
         d="m 9291.14,6143.28 c 39.43,-58.11 108.5,-80.04 154.28,-48.98 45.77,31.05 50.91,103.34 11.48,161.45 -39.43,58.11 -108.51,80.04 -154.28,48.99 -45.77,-31.06 -50.91,-103.35 -11.48,-161.46" /><path
         id="path258"
         style="fill:#1a304e;fill-opacity:1;fill-rule:nonzero;stroke:none"
         d="m 9191,6258.33 c 10.38,-28.67 -4.44,-60.33 -33.11,-70.72 -28.67,-10.38 -60.34,4.44 -70.72,33.11 -10.39,28.67 4.44,60.33 33.11,70.72 28.67,10.38 60.33,-4.44 70.72,-33.11" /><path
         id="path260"
         style="fill:#f79226;fill-opacity:1;fill-rule:nonzero;stroke:none"
         d="m 9113.63,4954.98 h 402.81 l 100.21,843.28 c 10.31,86.7 -57.41,162.94 -144.72,162.94 h -301.08 c -87.31,0 -155.03,-76.24 -144.73,-162.94 l 87.51,-843.28" /><path
         id="path262"
         style="fill:#4a5bb3;fill-opacity:1;fill-rule:nonzero;stroke:none"
         d="m 9113.63,4247.88 h 402.81 l 145.95,608.51 c 16.15,67.31 8.9,138.12 -20.56,200.76 l -90.92,193.32 -472.18,3.63 -92.61,-201.44 c -28.64,-62.3 -35.44,-132.43 -19.29,-199.07 l 146.8,-605.71" /><path
         id="path264"
         style="fill:#fcd0cd;fill-opacity:1;fill-rule:nonzero;stroke:none"
         d="m 9222.02,6050.75 126.95,47.69 c 13.8,5.18 20.78,20.56 15.6,34.35 l -75.81,201.8 -196.53,-73.82 68.42,-182.17 c 9.26,-24.63 36.73,-37.1 61.37,-27.85" /><path
         id="path266"
         style="fill:#fcd0cd;fill-opacity:1;fill-rule:nonzero;stroke:none"
         d="m 9297.75,6208.31 c 0,-13.26 10.76,-24.02 24.02,-24.02 13.26,0 24.01,10.76 24.01,24.02 0,13.26 -10.75,24.01 -24.01,24.01 -13.26,0 -24.02,-10.75 -24.02,-24.01" /><path
         id="path268"
         style="fill:#fcd0cd;fill-opacity:1;fill-rule:nonzero;stroke:none"
         d="m 9254.91,6172.08 98.24,-22.45 51.26,-188.43 h -171.32 l 21.82,210.88" /><path
         id="path270"
         style="fill:#1a304e;fill-opacity:1;fill-rule:nonzero;stroke:none"
         d="m 9335.83,6250.1 -104.94,-27.97 c -91.81,-22.61 -141.51,2.59 -163.7,63.86 -7.94,21.91 8.2,47.85 36.04,57.94 l 91.08,25.28 c 48.03,17.4 98.06,0.86 111.76,-36.94 l 29.76,-82.17" /><path
         id="path272"
         style="fill:#fcd0cd;fill-opacity:1;fill-rule:nonzero;stroke:none"
         d="m 8747.31,4904.45 -48.02,-20.9 c -16.47,-8.91 -28.47,-24.29 -33.1,-42.43 l -14.53,-56.83 c -0.94,-3.67 3.52,-6.28 6.26,-3.67 l 51.37,48.82 c 5.34,5.08 13.08,6.74 20.04,4.28 15.59,-5.5 32.9,-2.91 46.19,6.92 l 21.7,16.68 -49.91,47.13" /><path
         id="path274"
         style="fill:#ef3363;fill-opacity:1;fill-rule:nonzero;stroke:none"
         d="m 8761.09,4635.78 -1046.7,-3.91 -2.68,718.52 1046.7,3.91 2.68,-718.52" /><path
         id="path276"
         style="fill:#ffffff;fill-opacity:1;fill-rule:nonzero;stroke:none"
         d="m 7882.59,5034.92 225.31,87.47 0.17,-47.41 -143.26,-55.7 v -0.82 l 143.69,-54.66 0.17,-47.41 -225.96,85.83 -0.12,32.7" /><path
         id="path278"
         style="fill:#ffffff;fill-opacity:1;fill-rule:nonzero;stroke:none"
         d="m 8281.78,5183.55 47.42,0.18 -136.94,-327.52 -47.41,-0.17 136.93,327.51" /><path
         id="path280"
         style="fill:#ffffff;fill-opacity:1;fill-rule:nonzero;stroke:none"
         d="m 8365.97,4964.78 143.27,55.71 -0.01,0.82 -143.68,54.64 -0.17,47.41 225.95,-85.8 0.13,-32.7 -225.31,-87.51 -0.18,47.43" /><path
         id="path282"
         style="fill:#f79226;fill-opacity:1;fill-rule:nonzero;stroke:none"
         d="m 8593.11,5317.52 h 671.51 l 316.56,394.67 -171.52,163.97 -252.81,-418.07 -569.31,-72.12 5.57,-68.45" /><path
         id="path284"
         style="fill:#fcd0cd;fill-opacity:1;fill-rule:nonzero;stroke:none"
         d="m 8587.92,5385.97 -49.58,16.87 c -18.18,4.49 -37.41,1.2 -53.04,-9.1 l -49,-32.25 c -3.17,-2.09 -1.63,-7.02 2.17,-6.94 l 70.84,1.54 c 7.37,0.16 14.22,-3.83 17.71,-10.32 7.82,-14.57 22.36,-24.3 38.81,-25.98 l 27.28,-2.27 -5.19,68.45" /><path
         id="path286"
         style="fill:#1a304e;fill-opacity:1;fill-rule:nonzero;stroke:none"
         d="m 6601.78,6044.16 -1.12,547.83 c -0.12,57.35 46.27,103.93 103.61,104.04 l 547.84,1.12 c 57.34,0.12 103.93,-46.27 104.04,-103.62 l 0.2,-98.4 0.92,-449.43 c 0.11,-57.35 -46.27,-103.93 -103.62,-104.04 l -547.83,-1.12 c -57.35,-0.12 -103.93,46.27 -104.04,103.62" /><path
         id="path288"
         style="fill:#4a5bb3;fill-opacity:1;fill-rule:nonzero;stroke:none"
         d="m 6834.48,5940.8 -1.18,583.63 522.99,1.06 0.04,-20 -503,-1.02 1.15,-563.63 -20,-0.04" /><path
         id="path290"
         style="fill:#4a5bb3;fill-opacity:1;fill-rule:nonzero;stroke:none"
         d="m 7000.04,6197.99 -0.04,20 356.91,0.77 0.04,-20 -356.91,-0.77" /><path
         id="path292"
         style="fill:#4a5bb3;fill-opacity:1;fill-rule:nonzero;stroke:none"
         d="m 6999.73,6351.36 -0.04,20 356.91,0.77 0.04,-20 -356.91,-0.77" /><path
         id="path294"
         style="fill:#4a5bb3;fill-opacity:1;fill-rule:nonzero;stroke:none"
         d="m 6600.83,6503.95 -0.03,20 114.88,0.24 0.04,-20 -114.89,-0.24" /><path
         id="path296"
         style="fill:#4a5bb3;fill-opacity:1;fill-rule:nonzero;stroke:none"
         d="m 6601.15,6350.58 -0.04,20 114.88,0.24 0.04,-20 -114.88,-0.24" /><path
         id="path298"
         style="fill:#4a5bb3;fill-opacity:1;fill-rule:nonzero;stroke:none"
         d="m 6601.46,6197.22 -0.04,20 114.88,0.23 0.04,-20 -114.88,-0.23" /><path
         id="path300"
         style="fill:#ef3363;fill-opacity:1;fill-rule:nonzero;stroke:none"
         d="m 8108.37,8608.37 c 0,-23.97 -19.43,-43.4 -43.4,-43.4 -23.97,0 -43.41,19.43 -43.41,43.4 0,23.97 19.44,43.4 43.41,43.4 23.97,0 43.4,-19.43 43.4,-43.4" /><path
         id="path302"
         style="fill:#ef3363;fill-opacity:1;fill-rule:nonzero;stroke:none"
         d="m 8171.55,8615.51 c 0,-23.97 -19.43,-43.4 -43.4,-43.4 -23.97,0 -43.4,19.43 -43.4,43.4 0,23.97 19.43,43.4 43.4,43.4 23.97,0 43.4,-19.43 43.4,-43.4" /><path
         id="path304"
         style="fill:#ef3363;fill-opacity:1;fill-rule:nonzero;stroke:none"
         d="m 8224.29,8599.02 c 0,-23.97 -19.44,-43.41 -43.41,-43.41 -23.97,0 -43.4,19.44 -43.4,43.41 0,23.97 19.43,43.4 43.4,43.4 23.97,0 43.41,-19.43 43.41,-43.4" /><path
         id="path306"
         style="fill:#ef3363;fill-opacity:1;fill-rule:nonzero;stroke:none"
         d="m 8246.46,8560.67 c 0,-23.97 -19.43,-43.4 -43.4,-43.4 -23.97,0 -43.4,19.43 -43.4,43.4 0,23.98 19.43,43.41 43.4,43.41 23.97,0 43.4,-19.43 43.4,-43.41" /><path
         id="path308"
         style="fill:#ef3363;fill-opacity:1;fill-rule:nonzero;stroke:none"
         d="m 8241.52,8512.53 c 0,-21.24 -17.22,-38.46 -38.46,-38.46 -21.24,0 -38.46,17.22 -38.46,38.46 0,21.25 17.22,38.47 38.46,38.47 21.24,0 38.46,-17.22 38.46,-38.47" /><path
         id="path310"
         style="fill:#ef3363;fill-opacity:1;fill-rule:nonzero;stroke:none"
         d="m 8229.61,8469.52 c 0,-18.73 -15.18,-33.91 -33.9,-33.91 -18.73,0 -33.91,15.18 -33.91,33.91 0,18.72 15.18,33.9 33.91,33.9 18.72,0 33.9,-15.18 33.9,-33.9" /><path
         id="path312"
         style="fill:#ef3363;fill-opacity:1;fill-rule:nonzero;stroke:none"
         d="m 8218.99,8435.61 c 0,-18.73 -15.18,-33.91 -33.91,-33.91 -18.72,0 -33.9,15.18 -33.9,33.91 0,18.73 15.18,33.91 33.9,33.91 18.73,0 33.91,-15.18 33.91,-33.91" /><path
         id="path314"
         style="fill:#ef3363;fill-opacity:1;fill-rule:nonzero;stroke:none"
         d="m 8070.09,8455 22.98,158.71 -28.2,4.09 c -32.63,4.72 -62.91,-17.9 -67.63,-50.53 l -1.79,-12.35 c -6.98,-48.2 26.44,-92.94 74.64,-99.92" /><path
         id="path316"
         style="fill:#4a5bb3;fill-opacity:1;fill-rule:nonzero;stroke:none"
         d="m 8342.7,7221.82 -497.06,201.28 v 199.43 l -81.26,445.53 c -27.11,69.36 24.04,144.29 98.52,144.29 h 510.2 c 74.47,0 125.63,-74.93 98.5,-144.29 l -128.9,-445.53 v -400.71" /><path
         id="path318"
         style="fill:#fcd0cd;fill-opacity:1;fill-rule:nonzero;stroke:none"
         d="m 8063.75,8309.7 56.41,-8.16 c 24.87,-3.61 47.96,13.64 51.56,38.52 l 23.87,164.85 -181.91,26.33 -18.74,-129.43 c -6.43,-44.44 24.38,-85.68 68.81,-92.11" /><path
         id="path320"
         style="fill:#fcd0cd;fill-opacity:1;fill-rule:nonzero;stroke:none"
         d="m 8040.67,8395.91 86,-19.66 44.88,-164.96 -106.64,-36.7 -43.35,36.7 19.11,184.62" /><path
         id="path322"
         style="fill:#ef3363;fill-opacity:1;fill-rule:nonzero;stroke:none"
         d="m 8168.54,8379.39 5.16,-0.74 c 11.89,-1.72 22.93,6.52 24.64,18.41 l 15.42,106.46 -26.69,3.86 -18.53,-127.99" /><path
         id="path324"
         style="fill:#ef3363;fill-opacity:1;fill-rule:nonzero;stroke:none"
         d="m 8083.09,8521.15 122.45,-17.73 7.58,52.36 c 4.87,33.66 -18.47,64.89 -52.13,69.77 l -61.5,8.9 c -31.28,4.53 -60.32,-17.16 -64.85,-48.45 -4.53,-31.29 17.16,-60.32 48.45,-64.85" /><path
         id="path326"
         style="fill:#ef3363;fill-opacity:1;fill-rule:nonzero;stroke:none"
         d="m 8181.82,8453.46 21.24,146.75 -26.69,3.87 -17.38,-120.07 c -2.13,-14.74 8.09,-28.42 22.83,-30.55" /><path
         id="path328"
         style="fill:#fcd0cd;fill-opacity:1;fill-rule:nonzero;stroke:none"
         d="m 8196.91,8443.35 c -1.29,-8.96 -9.61,-15.17 -18.57,-13.88 -8.96,1.3 -15.17,9.62 -13.87,18.58 1.3,8.96 9.61,15.17 18.57,13.87 8.96,-1.3 15.17,-9.61 13.87,-18.57" /><path
         id="path330"
         style="fill:#4a5bb3;fill-opacity:1;fill-rule:nonzero;stroke:none"
         d="m 7690.6,7341.8 -362.16,483.33 c -29.43,39.27 -17.44,95.48 25.44,119.34 l 459.53,255.66 102.31,-191.24 -394.76,-190.88 237.08,-452.86 -67.44,-23.35" /><path
         id="path332"
         style="fill:#fcd0cd;fill-opacity:1;fill-rule:nonzero;stroke:none"
         d="m 7690.6,7341.8 22.55,-69.08 c 5.82,-18.04 18.92,-32.83 36.12,-40.79 l 53.88,-24.97 c 3.49,-1.61 6.92,2.34 4.82,5.56 l -39.11,60.15 c -4.07,6.26 -4.28,14.28 -0.55,20.75 8.36,14.5 8.98,32.21 1.65,47.26 l -11.92,24.47 -67.44,-23.35" /><path
         id="path334"
         style="fill:#f79226;fill-opacity:1;fill-rule:nonzero;stroke:none"
         d="m 8741.22,8190.82 c 78.63,-72.8 79.58,-196.84 2.07,-270.83 l -894.69,-879.06 -184.65,170.95 807.07,960.16 c 67.81,82.98 191.56,91.58 270.2,18.78" /><path
         id="path336"
         style="fill:#1a304e;fill-opacity:1;fill-rule:nonzero;stroke:none"
         d="m 7662.3,7124.12 98.93,-91.58 44.5,48.08 -98.92,91.58 -44.51,-48.08" /><path
         id="path338"
         style="fill:#ffffff;fill-opacity:1;fill-rule:nonzero;stroke:none"
         d="m 7125.26,6494.73 37.27,-34.5 567.87,600.85 -37.27,34.5 -567.87,-600.85" /><path
         id="path340"
         style="fill:#ffffff;fill-opacity:1;fill-rule:nonzero;stroke:none"
         d="m 7027.6,6456.27 104.1,-96.37 30.83,100.33 -37.27,34.5 -97.66,-38.46" /><path
         id="path342"
         style="fill:#d4d1e2;fill-opacity:1;fill-rule:nonzero;stroke:none"
         d="m 7131.7,6359.9 -104.1,96.37 -59.39,-131.18 37.27,-34.5 126.22,69.31" /><path
         id="path344"
         style="fill:#4a5bb3;fill-opacity:1;fill-rule:nonzero;stroke:none"
         d="m 8812.74,7893.29 -377.57,298.98 -123.6,-180.23 342.42,-183.64 -354.78,-334.33 19.37,-68.69 481.74,333.41 c 53.73,25.67 60.53,99.42 12.42,134.5" /><path
         id="path346"
         style="fill:#fcd0cd;fill-opacity:1;fill-rule:nonzero;stroke:none"
         d="M 8318.58,7425.38 8249,7404.42 c -18.14,-5.53 -37.75,-3.23 -54.12,6.34 l -51.27,29.96 c -3.32,1.94 -2.03,7.01 1.81,7.13 l 71.71,2.27 c 7.46,0.23 14.16,4.64 17.34,11.39 7.13,15.15 21.31,25.77 37.85,28.36 l 26.89,4.2 19.37,-68.69" /></g></g></svg>