<?xml version="1.0" encoding="UTF-8" standalone="no"?>
<svg
   xmlns:dc="http://purl.org/dc/elements/1.1/"
   xmlns:cc="http://creativecommons.org/ns#"
   xmlns:rdf="http://www.w3.org/1999/02/22-rdf-syntax-ns#"
   xmlns:svg="http://www.w3.org/2000/svg"
   xmlns="http://www.w3.org/2000/svg"
   viewBox="0 0 735.81335 200.64"
   height="200.64"
   width="735.81335"
   xml:space="preserve"
   id="svg2"
   version="1.1"><metadata
     id="metadata8"><rdf:RDF><cc:Work
         rdf:about=""><dc:format>image/svg+xml</dc:format><dc:type
           rdf:resource="http://purl.org/dc/dcmitype/StillImage" /></cc:Work></rdf:RDF></metadata><defs
     id="defs6" /><g
     transform="matrix(1.3333333,0,0,-1.3333333,0,200.64)"
     id="g10"><g
       transform="scale(0.1)"
       id="g12"><path
         id="path14"
         style="fill:#100f0d;fill-opacity:1;fill-rule:nonzero;stroke:none"
         d="m 2118.01,842.672 c 28.73,0 50.85,10.016 66.36,30.058 15.49,20.036 26.65,51.411 33.46,94.141 4.15,26.84 6.23,45.939 6.23,57.279 0,23.44 -5.48,39.89 -16.44,49.34 -10.97,9.44 -29.31,14.18 -55.01,14.18 h -53.88 l -38.56,-244.998 z m -103.22,332.898 h 162.2 c 54.06,0 91.78,-12.57 113.14,-37.71 21.36,-25.15 32.05,-61.73 32.05,-109.74 0,-26.85 -2.09,-52.745 -6.24,-77.694 -7.57,-46.887 -20.05,-84.699 -37.43,-113.43 -17.4,-28.734 -39.98,-49.621 -67.77,-62.66 -27.8,-13.047 -62.1,-19.57 -102.94,-19.57 h -159.92 l 66.91,420.804" /><path
         id="path16"
         style="fill:#100f0d;fill-opacity:1;fill-rule:nonzero;stroke:none"
         d="m 2522.93,928.871 c 9.08,6.426 13.61,16.637 13.61,30.625 0,19.656 -11.54,29.492 -34.59,29.492 -16.26,0 -28.74,-5.488 -37.43,-16.449 -8.7,-10.965 -14.94,-27.789 -18.72,-50.473 15.12,-1.894 24.96,-2.832 29.49,-2.832 22.69,0 38.57,3.207 47.64,9.637 z M 2370.09,780.852 c -18.71,19.656 -28.07,48.578 -28.07,86.769 0,13.984 1.89,32.703 5.67,56.149 7.56,49.144 24.76,84.78 51.61,106.91 26.84,22.11 63.32,33.17 109.45,33.17 34.4,0 62.86,-6.9 85.35,-20.7 22.5,-13.81 33.75,-38.1 33.75,-72.877 0,-40.078 -11.35,-67.488 -34.02,-82.23 -22.69,-14.746 -54.26,-22.121 -94.72,-22.121 -24.2,0 -44.05,1.699 -59.54,5.105 -0.77,-6.808 -1.14,-12.105 -1.14,-15.879 0,-10.972 5.01,-19.097 15.03,-24.386 10.01,-5.301 25.99,-7.938 47.92,-7.938 h 99.81 l -9.06,-57.285 c -41.6,-9.453 -84.89,-14.172 -129.88,-14.172 -42.73,0 -73.44,9.824 -92.16,29.485" /><path
         id="path18"
         style="fill:#100f0d;fill-opacity:1;fill-rule:nonzero;stroke:none"
         d="m 2680.3,774.043 c -16.82,12.852 -25.23,30.059 -25.23,51.613 0,16.633 0.56,28.543 1.7,35.731 l 52.17,326.093 h 97.54 l -45.93,-292.07 c -3.03,-21.176 -4.53,-34.402 -4.53,-39.695 0,-9.453 2.16,-15.977 6.51,-19.567 4.35,-3.597 11.25,-5.953 20.7,-7.089 l 18.72,-3.403 -10.78,-70.89 h -38 c -31.75,0 -56.05,6.425 -72.87,19.277" /><path
         id="path20"
         style="fill:#100f0d;fill-opacity:1;fill-rule:nonzero;stroke:none"
         d="m 2890.14,772.063 c -16.09,11.531 -24.11,29.394 -24.11,53.593 0,16.633 1.7,34.594 5.1,53.875 l 19.29,102.653 h -47.08 l 10.21,62.386 52.75,15.31 26.08,85.63 h 77.7 l -13.62,-85.63 h 66.36 l -11.91,-77.696 h -66.35 l -16.44,-102.653 c -2.28,-12.476 -3.41,-21.176 -3.41,-26.082 0,-7.57 1.98,-13.047 5.95,-16.453 3.97,-3.402 10.3,-5.48 19,-6.234 l 34.03,-3.403 -11.35,-72.593 h -49.33 c -32.52,0 -56.81,5.761 -72.87,17.297" /><path
         id="path22"
         style="fill:#100f0d;fill-opacity:1;fill-rule:nonzero;stroke:none"
         d="m 3231.26,835.016 c 7.18,3.589 14.37,8.027 21.55,13.324 l 20.42,130.441 c -9.84,4.153 -20.42,6.239 -31.77,6.239 -17.77,0 -31.67,-5.957 -41.67,-17.868 -10.02,-11.906 -16.93,-29.015 -20.71,-51.32 -3.03,-17.398 -4.53,-31.008 -4.53,-40.836 0,-13.238 2.55,-24.101 7.66,-32.609 5.09,-8.504 13.12,-12.762 24.1,-12.762 9.44,0 17.76,1.793 24.95,5.391 z M 3099.12,778.02 c -15.13,17.761 -22.68,44.23 -22.68,79.398 0,13.227 1.03,26.84 3.11,40.828 2.08,13.984 3.31,21.926 3.69,23.82 7.56,47.641 24.39,83.084 50.47,106.334 26.09,23.26 63.53,34.88 112.3,34.88 26.83,0 52.26,-3.4 76.28,-10.21 24,-6.8 42.99,-15.69 56.99,-26.65 l -43.1,-271.654 h -87.34 l -5.67,30.058 c -9.08,-8.32 -21.74,-15.976 -37.99,-22.969 -16.26,-7 -32.34,-10.488 -48.22,-10.488 -23.44,0 -42.72,8.879 -57.84,26.653" /><path
         id="path24"
         style="fill:#100f0d;fill-opacity:1;fill-rule:nonzero;stroke:none"
         d="m 3565.86,842.672 c 28.73,0 50.85,10.016 66.36,30.058 15.49,20.036 26.65,51.411 33.45,94.141 4.16,26.84 6.24,45.939 6.24,57.279 0,23.44 -5.48,39.89 -16.44,49.34 -10.97,9.44 -29.31,14.18 -55.01,14.18 h -53.88 l -38.56,-244.998 z m -103.21,332.898 h 162.19 c 54.07,0 91.78,-12.57 113.15,-37.71 21.35,-25.15 32.04,-61.73 32.04,-109.74 0,-26.85 -2.08,-52.745 -6.24,-77.694 -7.57,-46.887 -20.05,-84.699 -37.43,-113.43 -17.4,-28.734 -39.98,-49.621 -67.78,-62.66 -27.78,-13.047 -62.1,-19.57 -102.93,-19.57 h -159.93 l 66.93,420.804" /><path
         id="path26"
         style="fill:#100f0d;fill-opacity:1;fill-rule:nonzero;stroke:none"
         d="m 3970.78,928.871 c 9.07,6.426 13.6,16.637 13.6,30.625 0,19.656 -11.53,29.492 -34.59,29.492 -16.25,0 -28.74,-5.488 -37.43,-16.449 -8.7,-10.965 -14.94,-27.789 -18.71,-50.473 15.12,-1.894 24.95,-2.832 29.48,-2.832 22.69,0 38.57,3.207 47.65,9.637 z M 3817.94,780.852 c -18.72,19.656 -28.08,48.578 -28.08,86.769 0,13.984 1.89,32.703 5.68,56.149 7.56,49.144 24.75,84.78 51.61,106.91 26.83,22.11 63.32,33.17 109.45,33.17 34.4,0 62.85,-6.9 85.35,-20.7 22.49,-13.81 33.74,-38.1 33.74,-72.877 0,-40.078 -11.33,-67.488 -34.02,-82.23 -22.69,-14.746 -54.26,-22.121 -94.71,-22.121 -24.21,0 -44.05,1.699 -59.55,5.105 -0.76,-6.808 -1.13,-12.105 -1.13,-15.879 0,-10.972 5,-19.097 15.03,-24.386 10.01,-5.301 25.98,-7.938 47.92,-7.938 h 99.81 l -9.07,-57.285 c -41.6,-9.453 -84.88,-14.172 -129.87,-14.172 -42.74,0 -73.45,9.824 -92.16,29.485" /><path
         id="path28"
         style="fill:#100f0d;fill-opacity:1;fill-rule:nonzero;stroke:none"
         d="m 4099.51,1059.88 h 100.95 l 20.99,-214.372 55.57,127.031 c 7.18,17.387 12.66,32.801 16.45,46.221 3.78,13.42 6.42,28.64 7.94,45.65 h 90.74 c -0.38,-21.17 -4.26,-42.06 -11.63,-62.66 -7.38,-20.613 -17.49,-43.953 -30.34,-70.039 l -88.47,-176.945 h -112.86 l -49.34,305.114" /><path
         id="path30"
         style="fill:#100f0d;fill-opacity:1;fill-rule:nonzero;stroke:none"
         d="m 4630.33,852.027 c 12.09,8.125 21.64,20.703 28.64,37.715 7,17.012 12.94,40.262 17.87,69.754 5.29,34.402 7.94,59.554 7.94,75.434 0,21.92 -4.83,36.76 -14.47,44.52 -9.64,7.74 -26.18,11.62 -49.62,11.62 -20.05,0 -36.11,-3.6 -48.21,-10.78 -12.1,-7.18 -21.83,-19.66 -29.2,-37.42 -7.37,-17.78 -13.71,-43.491 -19,-77.132 -5.68,-32.144 -8.51,-56.527 -8.51,-73.16 0,-20.043 4.91,-33.844 14.75,-41.402 9.82,-7.567 26.83,-11.34 51.04,-11.34 20.41,0 36.66,4.055 48.77,12.191 z m -143.77,-89.605 c -21.35,7.375 -38.09,20.988 -50.18,40.832 -12.11,19.851 -18.16,47.922 -18.16,84.219 0,25.707 2.84,55.949 8.51,90.742 7.95,51.785 20.14,92.155 36.58,121.075 16.45,28.93 38.28,49.43 65.51,61.53 27.22,12.1 62.38,18.16 105.48,18.16 31.38,0 57.75,-3.89 79.12,-11.63 21.35,-7.76 38.28,-22.12 50.75,-43.1 12.48,-20.99 18.72,-50.39 18.72,-88.19 0,-23.82 -2.84,-53.693 -8.51,-89.603 -8.32,-52.941 -20.7,-93.391 -37.14,-121.367 -16.45,-27.981 -38,-47.266 -64.66,-57.844 -26.65,-10.594 -62.1,-15.879 -106.33,-15.879 -31.77,0 -58.33,3.684 -79.69,11.055" /><path
         id="path32"
         style="fill:#100f0d;fill-opacity:1;fill-rule:nonzero;stroke:none"
         d="m 4979.68,851.461 c 9.44,11.527 16.63,30.906 21.54,58.129 0.38,2.64 0.95,6.613 1.71,11.91 0.75,5.293 1.13,10.016 1.13,14.18 0,17.011 -2.65,29.492 -7.94,37.429 -5.3,7.942 -13.81,11.911 -25.52,11.911 l -42.53,-0.567 -23.26,-144.051 c 10.21,-4.168 22.12,-6.238 35.74,-6.238 16.63,0 29.66,5.758 39.13,17.297 z M 4840.17,1045.7 c 32.51,6.05 60.57,10.49 84.21,13.33 23.63,2.84 48.3,4.25 74.01,4.25 36.67,0 62.85,-8.98 78.54,-26.94 15.69,-17.96 23.54,-45.652 23.54,-83.082 0,-17.395 -1.9,-37.992 -5.67,-61.817 -7.56,-46.886 -24.01,-81.949 -49.34,-105.199 -25.33,-23.254 -56.34,-34.875 -93.01,-34.875 -12.48,0 -24.01,0.852 -34.59,2.551 -10.59,1.699 -18.91,4.246 -24.96,7.656 l -22.69,-141.211 h -97.53 l 67.49,425.337" /><path
         id="path34"
         style="fill:#100f0d;fill-opacity:1;fill-rule:nonzero;stroke:none"
         d="m 5119.76,767.246 9.07,57.277 h 134.97 c 15.12,0 23.62,5.293 25.53,15.879 l 1.7,9.075 0.56,5.671 c 0,8.692 -6.24,13.04 -18.72,13.04 h -41.96 c -26.47,0 -47.92,5.394 -64.37,16.167 -16.44,10.774 -24.67,26.938 -24.67,48.489 0,11.34 0.57,20.222 1.7,26.652 l 3.4,20.988 c 4.54,26.086 16.82,46.406 36.87,60.966 20.04,14.55 51.41,21.83 94.14,21.83 19.29,0 39.98,-1.51 62.1,-4.53 22.12,-3.04 40.55,-7 55.29,-11.91 l -9.07,-57.285 h -127.03 c -8.32,0 -14.28,-1.231 -17.87,-3.684 -3.6,-2.469 -6.15,-6.719 -7.66,-12.762 l -1.13,-5.105 -1.14,-9.641 c 0,-4.164 1.42,-7.281 4.26,-9.359 2.83,-2.078 8.03,-3.113 15.6,-3.113 h 48.2 c 24.95,0 44.99,-5.586 60.12,-16.735 15.12,-11.156 22.68,-25.996 22.68,-44.515 0,-8.321 -0.56,-17.399 -1.7,-27.223 l -3.97,-26.656 c -4.54,-27.989 -18.24,-48.203 -41.11,-60.684 -22.88,-12.48 -54.16,-18.711 -93.87,-18.711 -49.53,0 -90.17,5.285 -121.92,15.879" /><path
         id="path36"
         style="fill:#100f0d;fill-opacity:1;fill-rule:nonzero;stroke:none"
         d="m 1847.49,415.691 c -10.97,0 -19.62,-4.793 -25.97,-14.371 -6.35,-9.582 -9.52,-20.66 -9.52,-33.23 0,-9.238 1.5,-17.949 4.5,-26.149 3,-8.203 7.67,-15.043 14.02,-20.511 6.35,-5.481 13.79,-8.231 22.33,-8.231 7.39,0 13.85,2.403 19.39,7.192 5.54,4.789 9.61,10.73 12.21,17.828 2.6,7.09 3.89,14.679 3.89,22.769 0,9.231 -1.5,17.922 -4.5,26.051 -3,8.141 -7.68,14.941 -14.02,20.43 -6.35,5.48 -13.79,8.222 -22.33,8.222 z m -36.45,-92.793 c -10.79,11.434 -16.18,25.223 -16.18,41.383 0,16.149 5.39,29.969 16.18,41.449 10.8,11.489 23.81,17.231 39.04,17.231 15.24,0 28.28,-5.742 39.13,-17.231 10.84,-11.48 16.27,-25.3 16.27,-41.449 0,-16.16 -5.43,-29.949 -16.27,-41.383 -10.85,-11.418 -23.89,-17.136 -39.13,-17.136 -15.23,0 -28.24,5.718 -39.04,17.136" /><path
         id="path38"
         style="fill:#100f0d;fill-opacity:1;fill-rule:nonzero;stroke:none"
         d="m 1941.67,421.059 c 3.46,0 7.55,0.113 12.29,0.351 4.73,0.219 8.76,0.34 12.11,0.34 3.81,0 7.65,-0.578 11.51,-1.73 3.87,-1.161 7.62,-2.891 11.26,-5.2 3.63,-2.308 6.6,-5.59 8.91,-9.871 2.31,-4.269 3.47,-9.23 3.47,-14.879 0,-3.351 -0.73,-6.949 -2.17,-10.82 -1.44,-3.871 -3.55,-7.621 -6.32,-11.25 -2.77,-3.641 -6.49,-6.641 -11.16,-9.012 -4.68,-2.359 -9.9,-3.547 -15.67,-3.547 -6.47,0 -10.9,1.618 -13.33,4.848 -0.69,0.801 -0.87,2.133 -0.52,3.992 0.11,0.457 0.29,0.617 0.52,0.52 3.46,-1.27 7.33,-1.91 11.6,-1.91 5.77,0 10.73,2.418 14.89,7.269 4.15,4.852 6.23,10.61 6.23,17.309 0,8.191 -1.79,14.691 -5.37,19.472 -3.58,4.797 -9.11,7.188 -16.62,7.188 -5.19,0 -9.23,-0.41 -12.11,-1.207 -0.58,-0.121 -0.99,-0.551 -1.22,-1.301 -0.23,-0.75 -0.43,-2.512 -0.6,-5.281 -0.18,-2.77 -0.26,-6.93 -0.26,-12.461 V 332.07 c 0,-7.73 0.46,-12.75 1.38,-15.058 0.58,-1.5 2.63,-2.711 6.15,-3.633 3.52,-0.93 6.03,-1.391 7.53,-1.391 0.46,0 0.69,-0.808 0.69,-2.418 0,-1.039 -0.11,-1.898 -0.34,-2.601 -11.55,0.582 -19.05,0.863 -22.51,0.863 l -21.12,-0.863 c -0.35,0.34 -0.52,1.39 -0.52,3.121 0,1.492 0.17,2.242 0.52,2.242 1.61,0 3.87,0.359 6.75,1.047 2.88,0.691 4.62,1.551 5.19,2.601 0.81,1.372 1.22,6.801 1.22,16.27 v 65.441 c 0,6.797 -0.41,11.758 -1.22,14.879 -0.34,0.93 -2.05,1.801 -5.11,2.602 -3.05,0.808 -5.33,1.207 -6.83,1.207 -0.47,0 -0.69,0.691 -0.69,2.082 0,1.5 0.22,2.48 0.69,2.949 l 20.78,-0.351" /><path
         id="path40"
         style="fill:#100f0d;fill-opacity:1;fill-rule:nonzero;stroke:none"
         d="m 2033.94,421.059 c 5.19,0 14.19,0.23 27,0.691 12.81,0.461 22.45,0.691 28.91,0.691 0.46,-3.351 1.36,-7.761 2.68,-13.242 1.33,-5.488 2.11,-8.918 2.34,-10.301 -0.57,-0.578 -1.61,-0.867 -3.11,-0.867 -1.51,0 -2.31,0.41 -2.42,1.207 -1.74,6.352 -4.16,10.422 -7.28,12.211 -3.11,1.781 -7.38,2.68 -12.81,2.68 h -11.6 c -9.93,0 -15,-0.75 -15.23,-2.238 -0.58,-2.782 -0.87,-7.621 -0.87,-14.559 v -27.691 c 0,-0.692 2.48,-1.039 7.45,-1.039 h 9.17 c 3.23,0 5.57,0 7.02,0 1.44,0 2.96,0.23 4.58,0.699 1.62,0.461 2.66,0.738 3.12,0.859 0.46,0.11 1.07,0.871 1.82,2.25 0.74,1.391 1.18,2.399 1.3,3.031 0.11,0.629 0.51,2.278 1.21,4.93 0.11,0.809 0.97,1.211 2.59,1.211 1.39,0 2.37,-0.281 2.94,-0.863 V 348 c -0.46,-0.461 -1.38,-0.691 -2.76,-0.691 -1.5,0 -2.43,0.453 -2.77,1.382 -0.81,3.118 -1.51,5.457 -2.08,7.008 -0.58,1.571 -1.01,2.481 -1.3,2.781 -0.29,0.282 -0.78,0.661 -1.47,1.122 -1.5,0.918 -7.62,1.386 -18.35,1.386 -8.31,0 -12.47,-0.519 -12.47,-1.566 V 332.59 c 0,-7.5 0.52,-12.758 1.56,-15.75 0.35,-1.16 4.27,-1.731 11.77,-1.731 h 8.31 c 10.74,0 18.01,0.973 21.81,2.942 1.74,0.929 3.67,2.98 5.81,6.148 2.13,3.172 3.83,6.949 5.1,11.34 0.23,0.691 1.04,1.031 2.42,1.031 2.2,0 3.64,-0.34 4.34,-1.031 -0.59,-1.508 -1.48,-3.898 -2.69,-7.187 -1.21,-3.293 -2.16,-5.954 -2.86,-7.961 -0.69,-2.02 -1.44,-4.36 -2.25,-7.012 -0.81,-2.66 -1.33,-4.848 -1.55,-6.578 -5.89,0 -15.18,0.109 -27.88,0.347 -12.7,0.223 -23.08,0.34 -31.16,0.34 l -20.95,-0.519 c -0.34,0.34 -0.51,1.269 -0.51,2.769 0,1.5 0.17,2.25 0.51,2.25 1.5,0 3.73,0.403 6.67,1.211 2.94,0.813 4.7,1.731 5.28,2.781 0.8,1.372 1.21,6.801 1.21,16.27 v 65.441 c 0,6.797 -0.41,11.758 -1.21,14.879 -0.35,0.93 -2.05,1.801 -5.11,2.602 -3.06,0.808 -5.34,1.207 -6.84,1.207 -0.46,0 -0.69,0.691 -0.69,2.082 0,1.5 0.23,2.48 0.69,2.949 6.01,-0.238 12.87,-0.351 20.61,-0.351" /><path
         id="path42"
         style="fill:#100f0d;fill-opacity:1;fill-rule:nonzero;stroke:none"
         d="m 2201.86,398.199 c 0,7.039 -0.41,12.121 -1.22,15.242 -0.34,0.93 -2.33,1.809 -5.97,2.68 -3.63,0.867 -6.2,1.301 -7.7,1.301 -0.46,0 -0.69,0.668 -0.69,1.988 0,1.32 0.23,2.219 0.69,2.68 1.5,-0.11 4.5,-0.309 9,-0.61 4.5,-0.281 8.31,-0.421 11.43,-0.421 3,0 6.77,0.171 11.34,0.511 4.56,0.352 7.24,0.52 8.05,0.52 0.23,-0.68 0.34,-1.551 0.34,-2.59 0,-1.379 -0.23,-2.078 -0.69,-2.078 -1.15,0 -3.67,-0.473 -7.53,-1.383 -3.87,-0.93 -5.92,-1.789 -6.15,-2.598 -0.92,-3.582 -1.38,-8.953 -1.38,-16.109 v -65.781 c 0,-7.16 0.17,-15.231 0.52,-24.242 -0.46,-0.45 -1.56,-0.688 -3.29,-0.688 -1.96,0 -3.87,1.328 -5.71,3.988 l -67.17,95.211 v -73.922 c 0,-7.609 0.4,-12.976 1.21,-16.097 0.23,-0.813 2.16,-1.641 5.8,-2.512 3.63,-0.867 6.03,-1.301 7.18,-1.301 0.35,0 0.55,-0.687 0.61,-2.078 0.06,-1.379 -0.03,-2.359 -0.26,-2.941 -11.54,0.582 -18.18,0.863 -19.91,0.863 l -19.91,-0.863 c -0.34,0.34 -0.52,1.211 -0.52,2.601 0,1.61 0.18,2.418 0.52,2.418 1.62,0 4.24,0.434 7.88,1.301 3.63,0.871 5.63,1.82 5.97,2.852 1.15,3.007 1.73,8.429 1.73,16.281 v 68.039 c 0,5.641 -0.4,9.98 -1.21,12.98 -0.35,0.93 -2.31,1.758 -5.88,2.508 -3.58,0.75 -6.18,1.121 -7.8,1.121 -0.46,0 -0.69,0.719 -0.69,2.168 0,1.442 0.23,2.391 0.69,2.852 9.01,-0.219 14.89,-0.34 17.66,-0.34 6,0 10.62,0.121 13.85,0.34 4.27,-7.84 23.83,-36.121 58.69,-84.82 0.34,1.96 0.52,4.32 0.52,7.101 v 53.828" /><path
         id="path44"
         style="fill:#100f0d;fill-opacity:1;fill-rule:nonzero;stroke:none"
         d="m 2299.33,421.059 c 3.46,0 7.55,0.113 12.29,0.351 4.73,0.219 8.77,0.34 12.12,0.34 3.8,0 7.64,-0.578 11.5,-1.73 3.87,-1.161 7.62,-2.891 11.26,-5.2 3.63,-2.308 6.61,-5.59 8.92,-9.871 2.3,-4.269 3.46,-9.23 3.46,-14.879 0,-3.351 -0.73,-6.949 -2.17,-10.82 -1.44,-3.871 -3.55,-7.621 -6.31,-11.25 -2.78,-3.641 -6.5,-6.641 -11.17,-9.012 -4.67,-2.359 -9.9,-3.547 -15.67,-3.547 -6.47,0 -10.9,1.618 -13.33,4.848 -0.69,0.801 -0.86,2.133 -0.52,3.992 0.11,0.457 0.29,0.617 0.52,0.52 3.46,-1.27 7.33,-1.91 11.6,-1.91 5.77,0 10.73,2.418 14.89,7.269 4.15,4.852 6.23,10.61 6.23,17.309 0,8.191 -1.79,14.691 -5.37,19.472 -3.58,4.797 -9.11,7.188 -16.62,7.188 -5.19,0 -9.23,-0.41 -12.11,-1.207 -0.58,-0.121 -0.99,-0.551 -1.22,-1.301 -0.23,-0.75 -0.43,-2.512 -0.6,-5.281 -0.17,-2.77 -0.26,-6.93 -0.26,-12.461 V 332.07 c 0,-7.73 0.46,-12.75 1.38,-15.058 0.58,-1.5 2.63,-2.711 6.15,-3.633 3.52,-0.93 6.03,-1.391 7.53,-1.391 0.46,0 0.69,-0.808 0.69,-2.418 0,-1.039 -0.11,-1.898 -0.34,-2.601 -11.55,0.582 -19.05,0.863 -22.51,0.863 l -21.12,-0.863 c -0.35,0.34 -0.52,1.39 -0.52,3.121 0,1.492 0.17,2.242 0.52,2.242 1.62,0 3.87,0.359 6.75,1.047 2.88,0.691 4.62,1.551 5.19,2.601 0.81,1.372 1.22,6.801 1.22,16.27 v 65.441 c 0,6.797 -0.41,11.758 -1.22,14.879 -0.34,0.93 -2.05,1.801 -5.1,2.602 -3.06,0.808 -5.34,1.207 -6.84,1.207 -0.46,0 -0.69,0.691 -0.69,2.082 0,1.5 0.23,2.48 0.69,2.949 l 20.78,-0.351" /><path
         id="path46"
         style="fill:#100f0d;fill-opacity:1;fill-rule:nonzero;stroke:none"
         d="m 2393.15,421.059 c 2.31,0 4.56,0.05 6.76,0.171 2.19,0.11 4.55,0.25 7.1,0.43 2.53,0.18 4.61,0.32 6.23,0.43 0.23,-0.68 0.34,-1.551 0.34,-2.59 0,-1.621 -0.23,-2.43 -0.69,-2.43 -1.16,0 -3.23,-0.398 -6.23,-1.211 -3,-0.808 -4.62,-1.609 -4.85,-2.418 -1.04,-4.05 -1.56,-9.41 -1.56,-16.109 V 332.07 c 0,-6.109 0.52,-11.191 1.56,-15.23 0.35,-1.16 4.27,-1.731 11.77,-1.731 h 8.31 c 10.74,0 18.01,0.973 21.82,2.942 1.72,0.929 3.66,2.98 5.8,6.148 2.13,3.172 3.83,6.949 5.1,11.34 0.23,0.691 1.04,1.031 2.43,1.031 2.19,0 3.63,-0.34 4.32,-1.031 -0.57,-1.508 -1.47,-3.898 -2.68,-7.187 -1.21,-3.293 -2.16,-5.954 -2.85,-7.961 -0.7,-2.02 -1.45,-4.36 -2.26,-7.012 -0.81,-2.66 -1.32,-4.848 -1.55,-6.578 -6.01,0 -15.38,0.168 -28.14,0.508 -12.75,0.363 -23.05,0.523 -30.9,0.523 l -20.94,-0.523 c -0.35,0.363 -0.53,1.273 -0.53,2.781 0,1.492 0.18,2.242 0.53,2.242 1.61,0 3.86,0.359 6.74,1.047 2.89,0.691 4.62,1.551 5.2,2.601 0.81,1.372 1.21,6.801 1.21,16.27 v 65.441 c 0,7.379 -0.4,12.629 -1.21,15.75 -0.35,0.93 -1.99,1.758 -4.93,2.508 -2.95,0.75 -5.17,1.121 -6.67,1.121 -0.46,0 -0.69,0.75 -0.69,2.262 0,1.379 0.23,2.297 0.69,2.758 1.5,-0.11 4.56,-0.309 9.18,-0.61 4.61,-0.281 8.48,-0.421 11.59,-0.421" /><path
         id="path48"
         style="fill:#100f0d;fill-opacity:1;fill-rule:nonzero;stroke:none"
         d="m 2506.72,359.25 c 6,-0.23 10.1,-0.34 12.29,-0.34 5.08,0 10.33,0.172 15.76,0.512 l 0.51,0.867 -14.02,38.27 -14.89,-38.618 c 0,-0.461 0.12,-0.691 0.35,-0.691 z m 20.08,62.5 34.63,-91.41 c 2.07,-5.43 3.75,-9.578 5.02,-12.461 0.69,-1.738 2.48,-3.141 5.36,-4.25 2.89,-1.09 5.02,-1.641 6.41,-1.641 0.46,0 0.69,-1.097 0.69,-3.289 0,-0.461 -0.12,-1.027 -0.35,-1.73 -11.54,0.582 -17.89,0.863 -19.04,0.863 -0.12,0 -6.81,-0.281 -20.08,-0.863 -0.47,0.461 -0.67,1.41 -0.61,2.851 0.06,1.45 0.32,2.168 0.78,2.168 1.39,0 3.12,0.293 5.19,0.871 2.08,0.582 3.3,1.321 3.64,2.25 0.23,0.922 0.35,1.84 0.35,2.77 0,1.5 -0.21,3.25 -0.61,5.269 -0.41,2.032 -0.78,3.622 -1.12,4.774 l -0.7,1.898 -7.09,19.571 c -0.35,0.449 -0.7,0.691 -1.04,0.691 -4.5,0.34 -8.89,0.52 -13.16,0.52 -6,0 -13.33,-0.301 -21.98,-0.872 l -0.87,-0.519 -7.44,-19.039 c -1.97,-5.781 -2.95,-9.762 -2.95,-11.953 0,-1.617 0.46,-2.77 1.39,-3.449 1.03,-0.809 2.71,-1.481 5.02,-2 2.3,-0.508 3.98,-0.782 5.02,-0.782 0.34,0 0.54,-0.687 0.6,-2.078 0.06,-1.379 -0.03,-2.359 -0.26,-2.941 -11.54,0.582 -17.48,0.863 -17.83,0.863 -2.31,0 -4.32,-0.062 -6.06,-0.16 -1.73,-0.121 -3.66,-0.242 -5.79,-0.363 -2.14,-0.098 -4.19,-0.219 -6.15,-0.34 -0.47,0.461 -0.69,1.332 -0.69,2.601 0,1.61 0.22,2.418 0.69,2.418 1.39,0 3.17,0.293 5.36,0.871 2.2,0.582 3.7,1.379 4.51,2.422 2.42,3.117 5.13,8.539 8.13,16.27 l 30.12,77.39 c 0.23,0.571 0.55,1.5 0.96,2.77 0.4,1.269 0.72,2.219 0.95,2.848 0.23,0.64 0.57,1.453 1.04,2.429 0.46,0.981 0.86,1.703 1.21,2.16 0.35,0.461 0.78,0.981 1.3,1.563 0.52,0.578 1.09,0.98 1.73,1.211 0.63,0.226 1.35,0.348 2.16,0.348 l 1.56,-0.52" /><path
         id="path50"
         style="fill:#100f0d;fill-opacity:1;fill-rule:nonzero;stroke:none"
         d="m 2620.55,421.41 c 7.91,-0.238 14.39,-0.351 19.47,-0.351 5.08,0 11.6,0.113 19.57,0.351 7.95,0.219 14.12,0.34 18.52,0.34 2.89,0 6.87,0.629 11.95,1.898 l 3.28,-24.75 c -0.8,-0.808 -2.19,-1.207 -4.16,-1.207 -1.04,0 -1.6,0.278 -1.72,0.868 -1.62,6.453 -3.61,10.64 -5.98,12.543 -2.36,1.91 -6.83,2.859 -13.41,2.859 -12.23,0 -18.58,-0.859 -19.05,-2.602 -1.03,-3.687 -1.56,-9.468 -1.56,-17.308 v -62.5 c 0,-6.692 0.53,-12.063 1.56,-16.102 0.24,-0.801 1.84,-1.578 4.85,-2.328 3.01,-0.762 5.08,-1.133 6.23,-1.133 0.47,0 0.7,-0.867 0.7,-2.597 0,-0.922 -0.12,-1.719 -0.35,-2.422 -11.54,0.582 -18.24,0.863 -20.08,0.863 -0.58,0 -7.5,-0.281 -20.78,-0.863 -0.47,0.461 -0.68,1.332 -0.68,2.601 0,1.61 0.21,2.418 0.68,2.418 1.5,0 3.73,0.344 6.66,1.043 2.95,0.688 4.59,1.5 4.94,2.418 0.8,3.121 1.21,8.25 1.21,15.41 v 62.672 c 0,10.039 -0.52,15.981 -1.56,17.828 -0.92,1.743 -7.15,2.602 -18.69,2.602 -6.58,0 -11.06,-0.949 -13.42,-2.859 -2.36,-1.903 -4.35,-6.09 -5.98,-12.543 -0.11,-0.59 -0.68,-0.868 -1.71,-0.868 -1.98,0 -3.36,0.399 -4.16,1.207 l 3.28,24.75 c 5.07,-1.269 9.06,-1.898 11.95,-1.898 4.37,0 10.53,-0.121 18.44,-0.34" /><path
         id="path52"
         style="fill:#100f0d;fill-opacity:1;fill-rule:nonzero;stroke:none"
         d="m 2726.06,421.059 c 5.19,0 14.19,0.23 27.01,0.691 12.81,0.461 22.44,0.691 28.9,0.691 0.47,-3.351 1.36,-7.761 2.69,-13.242 1.33,-5.488 2.11,-8.918 2.34,-10.301 -0.58,-0.578 -1.62,-0.867 -3.12,-0.867 -1.5,0 -2.31,0.41 -2.42,1.207 -1.73,6.352 -4.16,10.422 -7.27,12.211 -3.12,1.781 -7.39,2.68 -12.81,2.68 h -11.6 c -9.93,0 -15,-0.75 -15.24,-2.238 -0.58,-2.782 -0.86,-7.621 -0.86,-14.559 v -28.211 c 0,-0.691 2.42,-1.031 7.27,-1.031 h 9.18 c 7.72,0 12.46,0.539 14.19,1.64 1.73,1.09 3.23,4.239 4.5,9.43 0.12,0.692 0.23,1.211 0.35,1.559 0.11,0.801 0.98,1.211 2.6,1.211 1.37,0 2.36,-0.289 2.94,-0.871 V 347.48 c -0.46,-0.46 -1.39,-0.691 -2.78,-0.691 -1.49,0 -2.42,0.461 -2.76,1.383 -0.81,3.117 -1.5,5.449 -2.08,7.019 -0.58,1.547 -1.02,2.481 -1.3,2.77 -0.29,0.277 -0.78,0.648 -1.47,1.121 -1.5,0.918 -7.62,1.387 -18.35,1.387 -8.2,0 -12.29,-0.528 -12.29,-1.559 v -27.359 c 0,-6.692 0.52,-12.063 1.55,-16.102 0.24,-0.801 1.85,-1.578 4.85,-2.328 3.01,-0.762 5.08,-1.133 6.24,-1.133 0.46,0 0.69,-0.867 0.69,-2.597 0,-0.922 -0.12,-1.719 -0.35,-2.422 -11.54,0.582 -18.23,0.863 -20.08,0.863 -0.58,0 -7.51,-0.281 -20.78,-0.863 -0.46,0.461 -0.68,1.332 -0.68,2.601 0,1.61 0.22,2.418 0.68,2.418 1.5,0 3.73,0.344 6.67,1.043 2.94,0.688 4.59,1.5 4.93,2.418 0.81,3.121 1.21,8.313 1.21,15.59 v 66.652 c 0,6.797 -0.4,11.758 -1.21,14.879 -0.34,0.93 -2.05,1.801 -5.11,2.602 -3.05,0.808 -5.34,1.207 -6.83,1.207 -0.46,0 -0.69,0.691 -0.69,2.082 0,1.5 0.23,2.48 0.69,2.949 6,-0.238 12.87,-0.351 20.6,-0.351" /><path
         id="path54"
         style="fill:#100f0d;fill-opacity:1;fill-rule:nonzero;stroke:none"
         d="m 2853.48,415.691 c -10.97,0 -19.62,-4.793 -25.97,-14.371 -6.35,-9.582 -9.52,-20.66 -9.52,-33.23 0,-9.238 1.49,-17.949 4.5,-26.149 3,-8.203 7.68,-15.043 14.02,-20.511 6.35,-5.481 13.79,-8.231 22.34,-8.231 7.38,0 13.85,2.403 19.38,7.192 5.54,4.789 9.61,10.73 12.21,17.828 2.6,7.09 3.9,14.679 3.9,22.769 0,9.231 -1.51,17.922 -4.51,26.051 -3,8.141 -7.67,14.941 -14.02,20.43 -6.35,5.48 -13.79,8.222 -22.33,8.222 z m -36.44,-92.793 c -10.8,11.434 -16.19,25.223 -16.19,41.383 0,16.149 5.39,29.969 16.19,41.449 10.78,11.489 23.8,17.231 39.03,17.231 15.24,0 28.28,-5.742 39.13,-17.231 10.84,-11.48 16.27,-25.3 16.27,-41.449 0,-16.16 -5.43,-29.949 -16.27,-41.383 -10.85,-11.418 -23.89,-17.136 -39.13,-17.136 -15.23,0 -28.25,5.718 -39.03,17.136" /><path
         id="path56"
         style="fill:#100f0d;fill-opacity:1;fill-rule:nonzero;stroke:none"
         d="m 2968.95,414.129 c -5.2,0 -9.24,-0.41 -12.12,-1.207 -0.47,-0.121 -0.84,-0.551 -1.13,-1.301 -0.29,-0.75 -0.52,-2.48 -0.69,-5.191 -0.18,-2.719 -0.26,-6.899 -0.26,-12.551 V 372.93 c 0,-3.348 5.02,-5.02 15.05,-5.02 h 4.34 c 4.03,0 8.22,2.012 12.55,6.059 4.33,4.043 6.49,9.402 6.49,16.101 0,16.032 -8.08,24.059 -24.23,24.059 z m 2.76,7.621 c 3.92,0 7.91,-0.578 11.95,-1.73 4.04,-1.161 8.02,-2.891 11.95,-5.2 3.91,-2.308 7.14,-5.59 9.68,-9.871 2.54,-4.269 3.81,-9.23 3.81,-14.879 0,-4.84 -1.81,-9.929 -5.45,-15.238 -3.63,-5.312 -8.56,-9.402 -14.8,-12.293 -1.15,-0.457 -1.5,-1.039 -1.04,-1.73 5.77,-12.118 12.4,-22.27 19.91,-30.469 11.08,-12.121 20.08,-18.168 27.01,-18.168 0.35,-0.692 0.51,-1.512 0.51,-2.434 0,-1.039 -0.16,-1.906 -0.51,-2.59 -1.27,-0.347 -2.84,-0.527 -4.68,-0.527 -16.15,0 -30.18,8.309 -42.06,24.93 -1.85,2.539 -3.96,5.57 -6.32,9.09 -2.37,3.519 -4.1,6.058 -5.2,7.621 -1.1,1.547 -2.36,3.258 -3.8,5.109 -1.45,1.848 -2.72,3.219 -3.81,4.149 -1.11,0.929 -2.29,1.671 -3.56,2.261 -1.27,0.449 -3.4,0.688 -6.39,0.688 -0.93,0 -1.62,-0.028 -2.08,-0.09 -0.47,-0.059 -0.93,-0.32 -1.39,-0.777 -0.46,-0.461 -0.69,-1.153 -0.69,-2.082 v -25.45 c 0,-7.73 0.46,-12.75 1.38,-15.058 0.58,-1.5 2.63,-2.711 6.15,-3.633 3.52,-0.93 6.03,-1.391 7.52,-1.391 0.46,0 0.7,-0.808 0.7,-2.418 0,-1.039 -0.12,-1.898 -0.34,-2.601 -11.55,0.582 -19.05,0.863 -22.51,0.863 l -21.12,-0.863 c -0.35,0.34 -0.52,1.39 -0.52,3.121 0,1.492 0.17,2.242 0.52,2.242 1.61,0 3.86,0.359 6.75,1.047 2.88,0.691 4.61,1.551 5.2,2.601 0.8,1.372 1.21,6.801 1.21,16.27 v 65.441 c 0,6.797 -0.41,11.758 -1.21,14.879 -0.35,0.93 -2.05,1.801 -5.11,2.602 -3.06,0.808 -5.34,1.207 -6.84,1.207 -0.47,0 -0.69,0.691 -0.69,2.082 0,1.5 0.22,2.48 0.69,2.949 l 20.77,-0.351 c 3.46,0 7.56,0.113 12.29,0.351 4.74,0.219 8.77,0.34 12.12,0.34" /><path
         id="path58"
         style="fill:#100f0d;fill-opacity:1;fill-rule:nonzero;stroke:none"
         d="m 3062.42,421.23 c 4.28,0 9.58,0.282 15.93,0.86 0.81,-2.66 12.24,-31.559 34.28,-86.731 0.11,-0.23 0.35,-0.339 0.69,-0.339 0.46,0 0.75,0.218 0.87,0.691 11.31,26.551 20.31,48.41 27,65.609 l 6.93,20.77 c 7.39,-0.461 12.17,-0.68 14.37,-0.68 7.15,0 13.61,0.219 19.39,0.68 0.35,-1.031 0.51,-1.899 0.51,-2.59 0,-1.621 -0.28,-2.43 -0.86,-2.43 h -0.35 c -1.27,0 -2.94,-0.371 -5.02,-1.121 -2.07,-0.75 -3.63,-1.539 -4.67,-2.34 -1.38,-1.039 -2.08,-4.91 -2.08,-11.597 0,-1.84 0.52,-25.274 1.56,-70.282 0.11,-6.582 0.98,-11.898 2.59,-15.929 0.46,-1.031 2.2,-1.93 5.2,-2.68 3,-0.762 5.14,-1.133 6.41,-1.133 0.46,0 0.69,-0.808 0.69,-2.418 0,-1.039 -0.12,-1.898 -0.34,-2.601 -11.55,0.582 -18.42,0.863 -20.61,0.863 -0.57,0 -7.5,-0.281 -20.77,-0.863 -0.47,0.461 -0.69,1.39 -0.69,2.769 0,1.5 0.22,2.25 0.69,2.25 1.15,0 2.91,0.293 5.27,0.871 2.38,0.582 4.08,1.153 5.11,1.731 1.39,0.801 2.08,3.289 2.08,7.441 v 9.18 l -2.08,60.937 c -0.12,1.84 -0.43,4 -0.95,6.481 -0.51,2.48 -1.07,3.73 -1.65,3.73 -0.22,0 -0.51,-0.41 -0.86,-1.218 l -36.18,-86.551 c -2.19,-4.961 -4.32,-7.442 -6.4,-7.442 -0.35,0 -0.87,0.114 -1.57,0.34 l -39.63,100.75 c -0.24,-11.066 -0.58,-23.769 -1.05,-38.078 -0.46,-14.308 -0.86,-26.121 -1.21,-35.398 -0.34,-9.293 -0.52,-14.063 -0.52,-14.282 0,-2.082 0.35,-3.589 1.05,-4.5 0.68,-0.929 2.79,-1.82 6.32,-2.691 3.51,-0.867 5.84,-1.301 7.01,-1.301 0.46,0 0.68,-0.867 0.68,-2.597 0,-0.922 -0.11,-1.719 -0.34,-2.422 -11.54,0.582 -18.23,0.863 -20.08,0.863 -0.23,0 -6.99,-0.281 -20.25,-0.863 -0.59,0.582 -0.87,1.441 -0.87,2.601 0,1.61 0.28,2.418 0.87,2.418 1.61,0 4,0.371 7.17,1.133 3.18,0.75 5.29,1.649 6.32,2.68 1.85,2.078 2.89,7.097 3.12,15.058 0.23,12 0.5,23.832 0.78,35.493 0.29,11.66 0.55,20.796 0.78,27.437 0.23,6.641 0.34,10.883 0.34,12.723 0,2.879 -0.22,5.199 -0.69,6.929 -0.34,0.93 -2.31,1.758 -5.88,2.508 -3.58,0.75 -6.18,1.121 -7.79,1.121 -0.46,0 -0.7,0.809 -0.7,2.43 0,1.262 0.24,2.129 0.7,2.59 1.96,-0.11 4.12,-0.219 6.49,-0.34 2.36,-0.121 4.52,-0.238 6.5,-0.34 1.95,-0.121 4.09,-0.18 6.39,-0.18" /><path
         id="path60"
         style="fill:#100f0d;fill-opacity:1;fill-rule:nonzero;stroke:none"
         d="m 3340.46,339.172 c 0,-1.274 -0.81,-5.684 -2.42,-13.242 -1.62,-7.559 -2.78,-11.52 -3.47,-11.86 -8.42,-5.09 -22.22,-7.609 -41.37,-7.609 -15.23,0 -28.19,5.59 -38.86,16.777 -10.68,11.192 -16.02,24.524 -16.02,39.992 0,16.391 5.48,30.442 16.45,42.161 10.96,11.711 24.41,17.57 40.34,17.57 13.61,0 27.63,-1.449 42.06,-4.332 -0.24,-15.469 -0.34,-23.777 -0.34,-24.93 0,-1.73 -1.21,-2.597 -3.64,-2.597 -1.16,0 -1.9,0.296 -2.25,0.867 -0.34,1.5 -0.78,3.031 -1.3,4.59 -0.52,1.562 -1.61,3.582 -3.29,6.062 -1.67,2.481 -3.69,4.617 -6.06,6.399 -2.36,1.789 -5.71,3.351 -10.04,4.679 -4.32,1.321 -9.21,1.992 -14.62,1.992 -11.32,0 -20.95,-5 -28.92,-14.98 -7.96,-9.981 -11.94,-21.27 -11.94,-33.84 0,-9.351 1.61,-17.941 4.84,-25.801 3.23,-7.851 8.34,-14.332 15.32,-19.468 6.98,-5.133 15.27,-7.704 24.85,-7.704 11.42,0 20.25,3.352 26.48,10.043 1.62,1.719 3.04,4.008 4.25,6.829 1.21,2.832 2.13,5.199 2.76,7.101 0.64,1.91 1.13,2.859 1.48,2.859 0.69,0 1.53,-0.109 2.51,-0.351 0.97,-0.231 1.75,-0.457 2.33,-0.688 l 0.87,-0.519" /><path
         id="path62"
         style="fill:#100f0d;fill-opacity:1;fill-rule:nonzero;stroke:none"
         d="m 3404.51,415.691 c -10.97,0 -19.62,-4.793 -25.97,-14.371 -6.34,-9.582 -9.52,-20.66 -9.52,-33.23 0,-9.238 1.5,-17.949 4.51,-26.149 2.99,-8.203 7.67,-15.043 14.02,-20.511 6.35,-5.481 13.79,-8.231 22.33,-8.231 7.39,0 13.85,2.403 19.39,7.192 5.53,4.789 9.61,10.73 12.2,17.828 2.6,7.09 3.9,14.679 3.9,22.769 0,9.231 -1.5,17.922 -4.5,26.051 -3.01,8.141 -7.68,14.941 -14.02,20.43 -6.35,5.48 -13.79,8.222 -22.34,8.222 z m -36.43,-92.793 c -10.8,11.434 -16.2,25.223 -16.2,41.383 0,16.149 5.4,29.969 16.2,41.449 10.78,11.489 23.8,17.231 39.03,17.231 15.23,0 28.27,-5.742 39.12,-17.231 10.85,-11.48 16.28,-25.3 16.28,-41.449 0,-16.16 -5.43,-29.949 -16.28,-41.383 -10.85,-11.418 -23.89,-17.136 -39.12,-17.136 -15.23,0 -28.25,5.718 -39.03,17.136" /><path
         id="path64"
         style="fill:#100f0d;fill-opacity:1;fill-rule:nonzero;stroke:none"
         d="m 3565.68,398.199 c 0,7.039 -0.41,12.121 -1.21,15.242 -0.35,0.93 -2.34,1.809 -5.97,2.68 -3.64,0.867 -6.21,1.301 -7.71,1.301 -0.46,0 -0.69,0.668 -0.69,1.988 0,1.32 0.23,2.219 0.69,2.68 1.5,-0.11 4.5,-0.309 9,-0.61 4.51,-0.281 8.32,-0.421 11.43,-0.421 3,0 6.78,0.171 11.34,0.511 4.56,0.352 7.24,0.52 8.05,0.52 0.23,-0.68 0.35,-1.551 0.35,-2.59 0,-1.379 -0.24,-2.078 -0.7,-2.078 -1.15,0 -3.66,-0.473 -7.53,-1.383 -3.86,-0.93 -5.91,-1.789 -6.14,-2.598 -0.93,-3.582 -1.38,-8.953 -1.38,-16.109 v -65.781 c 0,-7.16 0.16,-15.231 0.51,-24.242 -0.46,-0.45 -1.56,-0.688 -3.29,-0.688 -1.96,0 -3.87,1.328 -5.71,3.988 l -67.17,95.211 v -73.922 c 0,-7.609 0.4,-12.976 1.21,-16.097 0.24,-0.813 2.17,-1.641 5.8,-2.512 3.64,-0.867 6.03,-1.301 7.19,-1.301 0.34,0 0.55,-0.687 0.61,-2.078 0.04,-1.379 -0.03,-2.359 -0.27,-2.941 -11.54,0.582 -18.17,0.863 -19.91,0.863 l -19.9,-0.863 c -0.35,0.34 -0.52,1.211 -0.52,2.601 0,1.61 0.17,2.418 0.52,2.418 1.61,0 4.24,0.434 7.87,1.301 3.64,0.871 5.62,1.82 5.98,2.852 1.15,3.007 1.72,8.429 1.72,16.281 v 68.039 c 0,5.641 -0.4,9.98 -1.21,12.98 -0.34,0.93 -2.3,1.758 -5.89,2.508 -3.57,0.75 -6.17,1.121 -7.78,1.121 -0.47,0 -0.69,0.719 -0.69,2.168 0,1.442 0.22,2.391 0.69,2.852 8.99,-0.219 14.88,-0.34 17.66,-0.34 5.99,0 10.61,0.121 13.84,0.34 4.27,-7.84 23.83,-36.121 58.7,-84.82 0.34,1.96 0.51,4.32 0.51,7.101 v 53.828" /><path
         id="path66"
         style="fill:#100f0d;fill-opacity:1;fill-rule:nonzero;stroke:none"
         d="m 3633.63,421.41 c 7.91,-0.238 14.4,-0.351 19.49,-0.351 5.07,0 11.59,0.113 19.56,0.351 7.95,0.219 14.13,0.34 18.52,0.34 2.88,0 6.87,0.629 11.94,1.898 l 3.3,-24.75 c -0.81,-0.808 -2.2,-1.207 -4.16,-1.207 -1.04,0 -1.62,0.278 -1.73,0.868 -1.62,6.453 -3.62,10.64 -5.98,12.543 -2.36,1.91 -6.84,2.859 -13.42,2.859 -12.22,0 -18.57,-0.859 -19.04,-2.602 -1.04,-3.687 -1.55,-9.468 -1.55,-17.308 v -62.5 c 0,-6.692 0.51,-12.063 1.55,-16.102 0.23,-0.801 1.85,-1.578 4.85,-2.328 3,-0.762 5.08,-1.133 6.23,-1.133 0.46,0 0.7,-0.867 0.7,-2.597 0,-0.922 -0.12,-1.719 -0.35,-2.422 -11.54,0.582 -18.24,0.863 -20.08,0.863 -0.58,0 -7.5,-0.281 -20.77,-0.863 -0.47,0.461 -0.7,1.332 -0.7,2.601 0,1.61 0.23,2.418 0.7,2.418 1.49,0 3.72,0.344 6.66,1.043 2.94,0.688 4.59,1.5 4.94,2.418 0.8,3.121 1.21,8.25 1.21,15.41 v 62.672 c 0,10.039 -0.53,15.981 -1.56,17.828 -0.93,1.743 -7.16,2.602 -18.7,2.602 -6.58,0 -11.05,-0.949 -13.41,-2.859 -2.38,-1.903 -4.37,-6.09 -5.98,-12.543 -0.12,-0.59 -0.69,-0.868 -1.73,-0.868 -1.96,0 -3.35,0.399 -4.16,1.207 l 3.29,24.75 c 5.08,-1.269 9.06,-1.898 11.95,-1.898 4.38,0 10.53,-0.121 18.43,-0.34" /><path
         id="path68"
         style="fill:#100f0d;fill-opacity:1;fill-rule:nonzero;stroke:none"
         d="m 3754.03,359.25 c 6,-0.23 10.1,-0.34 12.3,-0.34 5.08,0 10.32,0.172 15.75,0.512 l 0.52,0.867 -14.03,38.27 -14.88,-38.618 c 0,-0.461 0.11,-0.691 0.34,-0.691 z m 20.08,62.5 34.63,-91.41 c 2.08,-5.43 3.75,-9.578 5.02,-12.461 0.69,-1.738 2.48,-3.141 5.37,-4.25 2.88,-1.09 5.02,-1.641 6.4,-1.641 0.47,0 0.69,-1.097 0.69,-3.289 0,-0.461 -0.12,-1.027 -0.34,-1.73 -11.54,0.582 -17.89,0.863 -19.04,0.863 -0.12,0 -6.82,-0.281 -20.08,-0.863 -0.47,0.461 -0.68,1.41 -0.61,2.851 0.05,1.45 0.31,2.168 0.77,2.168 1.39,0 3.12,0.293 5.2,0.871 2.08,0.582 3.29,1.321 3.63,2.25 0.24,0.922 0.35,1.84 0.35,2.77 0,1.5 -0.2,3.25 -0.6,5.269 -0.41,2.032 -0.78,3.622 -1.12,4.774 l -0.7,1.898 -7.1,19.571 c -0.35,0.449 -0.69,0.691 -1.04,0.691 -4.5,0.34 -8.89,0.52 -13.16,0.52 -5.99,0 -13.33,-0.301 -21.98,-0.872 l -0.87,-0.519 -7.44,-19.039 c -1.96,-5.781 -2.94,-9.762 -2.94,-11.953 0,-1.617 0.46,-2.77 1.38,-3.449 1.04,-0.809 2.71,-1.481 5.02,-2 2.31,-0.508 3.98,-0.782 5.03,-0.782 0.34,0 0.54,-0.687 0.6,-2.078 0.05,-1.379 -0.03,-2.359 -0.26,-2.941 -11.54,0.582 -17.48,0.863 -17.83,0.863 -2.31,0 -4.33,-0.062 -6.06,-0.16 -1.74,-0.121 -3.67,-0.242 -5.8,-0.363 -2.14,-0.098 -4.19,-0.219 -6.15,-0.34 -0.46,0.461 -0.69,1.332 -0.69,2.601 0,1.61 0.23,2.418 0.69,2.418 1.38,0 3.17,0.293 5.37,0.871 2.19,0.582 3.69,1.379 4.5,2.422 2.42,3.117 5.14,8.539 8.14,16.27 l 30.12,77.39 c 0.23,0.571 0.55,1.5 0.95,2.77 0.4,1.269 0.72,2.219 0.96,2.848 0.22,0.64 0.57,1.453 1.03,2.429 0.46,0.981 0.87,1.703 1.21,2.16 0.35,0.461 0.78,0.981 1.3,1.563 0.52,0.578 1.1,0.98 1.73,1.211 0.64,0.226 1.36,0.348 2.17,0.348 l 1.55,-0.52" /><path
         id="path70"
         style="fill:#100f0d;fill-opacity:1;fill-rule:nonzero;stroke:none"
         d="m 3849.42,398.031 c 0,7.16 -0.4,12.289 -1.21,15.41 -0.34,0.93 -1.99,1.758 -4.93,2.508 -2.94,0.75 -5.16,1.121 -6.66,1.121 -0.47,0 -0.69,0.75 -0.69,2.262 0,1.379 0.22,2.297 0.69,2.758 13.26,-0.578 20.2,-0.86 20.77,-0.86 1.85,0 8.54,0.282 20.08,0.86 0.24,-0.68 0.35,-1.551 0.35,-2.59 0,-1.621 -0.23,-2.43 -0.69,-2.43 -1.16,0 -3.23,-0.398 -6.23,-1.211 -3.01,-0.808 -4.62,-1.609 -4.86,-2.418 -1.03,-4.05 -1.55,-9.41 -1.55,-16.109 v -65.781 c 0,-6.692 0.52,-12.063 1.55,-16.102 0.24,-0.801 1.85,-1.578 4.86,-2.328 3,-0.762 5.07,-1.133 6.23,-1.133 0.46,0 0.69,-0.867 0.69,-2.597 0,-0.922 -0.11,-1.719 -0.35,-2.422 -11.54,0.582 -18.23,0.863 -20.08,0.863 -0.57,0 -7.51,-0.281 -20.77,-0.863 -0.47,0.461 -0.69,1.332 -0.69,2.601 0,1.61 0.22,2.418 0.69,2.418 1.5,0 3.72,0.344 6.66,1.043 2.94,0.688 4.59,1.5 4.93,2.418 0.81,3.121 1.21,8.25 1.21,15.41 v 67.172" /><path
         id="path72"
         style="fill:#100f0d;fill-opacity:1;fill-rule:nonzero;stroke:none"
         d="m 3979.79,398.199 c 0,7.039 -0.41,12.121 -1.22,15.242 -0.35,0.93 -2.34,1.809 -5.97,2.68 -3.64,0.867 -6.2,1.301 -7.71,1.301 -0.46,0 -0.69,0.668 -0.69,1.988 0,1.32 0.23,2.219 0.69,2.68 1.51,-0.11 4.5,-0.309 9.01,-0.61 4.5,-0.281 8.31,-0.421 11.42,-0.421 3,0 6.78,0.171 11.34,0.511 4.56,0.352 7.25,0.52 8.05,0.52 0.23,-0.68 0.35,-1.551 0.35,-2.59 0,-1.379 -0.24,-2.078 -0.69,-2.078 -1.16,0 -3.67,-0.473 -7.53,-1.383 -3.87,-0.93 -5.92,-1.789 -6.15,-2.598 -0.92,-3.582 -1.38,-8.953 -1.38,-16.109 v -65.781 c 0,-7.16 0.16,-15.231 0.51,-24.242 -0.45,-0.45 -1.56,-0.688 -3.29,-0.688 -1.96,0 -3.86,1.328 -5.71,3.988 l -67.17,95.211 v -73.922 c 0,-7.609 0.4,-12.976 1.21,-16.097 0.24,-0.813 2.17,-1.641 5.8,-2.512 3.64,-0.867 6.03,-1.301 7.19,-1.301 0.34,0 0.55,-0.687 0.61,-2.078 0.05,-1.379 -0.03,-2.359 -0.27,-2.941 -11.54,0.582 -18.17,0.863 -19.91,0.863 l -19.9,-0.863 c -0.35,0.34 -0.52,1.211 -0.52,2.601 0,1.61 0.17,2.418 0.52,2.418 1.61,0 4.24,0.434 7.87,1.301 3.64,0.871 5.63,1.82 5.98,2.852 1.15,3.007 1.73,8.429 1.73,16.281 v 68.039 c 0,5.641 -0.41,9.98 -1.22,12.98 -0.34,0.93 -2.3,1.758 -5.88,2.508 -3.58,0.75 -6.18,1.121 -7.79,1.121 -0.47,0 -0.69,0.719 -0.69,2.168 0,1.442 0.22,2.391 0.69,2.852 9,-0.219 14.89,-0.34 17.66,-0.34 5.99,0 10.61,0.121 13.85,0.34 4.26,-7.84 23.82,-36.121 58.69,-84.82 0.34,1.96 0.52,4.32 0.52,7.101 v 53.828" /><path
         id="path74"
         style="fill:#100f0d;fill-opacity:1;fill-rule:nonzero;stroke:none"
         d="m 4035.53,421.059 c 5.18,0 14.19,0.23 27,0.691 12.81,0.461 22.44,0.691 28.91,0.691 0.46,-3.351 1.35,-7.761 2.68,-13.242 1.33,-5.488 2.11,-8.918 2.34,-10.301 -0.58,-0.578 -1.62,-0.867 -3.12,-0.867 -1.49,0 -2.3,0.41 -2.42,1.207 -1.73,6.352 -4.15,10.422 -7.27,12.211 -3.11,1.781 -7.39,2.68 -12.81,2.68 h -11.6 c -9.92,0 -15,-0.75 -15.24,-2.238 -0.57,-2.782 -0.86,-7.621 -0.86,-14.559 v -27.691 c 0,-0.692 2.49,-1.039 7.45,-1.039 h 9.17 c 3.23,0 5.56,0 7.01,0 1.44,0 2.97,0.23 4.59,0.699 1.61,0.461 2.65,0.738 3.11,0.859 0.46,0.11 1.07,0.871 1.82,2.25 0.75,1.391 1.18,2.399 1.3,3.031 0.12,0.629 0.52,2.278 1.21,4.93 0.12,0.809 0.99,1.211 2.6,1.211 1.38,0 2.36,-0.281 2.95,-0.863 V 348 c -0.47,-0.461 -1.39,-0.691 -2.78,-0.691 -1.5,0 -2.42,0.453 -2.77,1.382 -0.8,3.118 -1.5,5.457 -2.07,7.008 -0.59,1.571 -1.02,2.481 -1.3,2.781 -0.29,0.282 -0.78,0.661 -1.47,1.122 -1.51,0.918 -7.62,1.386 -18.35,1.386 -8.32,0 -12.47,-0.519 -12.47,-1.566 V 332.59 c 0,-7.5 0.52,-12.758 1.56,-15.75 0.35,-1.16 4.26,-1.731 11.77,-1.731 h 8.31 c 10.74,0 18,0.973 21.81,2.942 1.73,0.929 3.66,2.98 5.8,6.148 2.14,3.172 3.84,6.949 5.11,11.34 0.22,0.691 1.04,1.031 2.42,1.031 2.19,0 3.63,-0.34 4.33,-1.031 -0.58,-1.508 -1.47,-3.898 -2.68,-7.187 -1.22,-3.293 -2.17,-5.954 -2.86,-7.961 -0.69,-2.02 -1.44,-4.36 -2.25,-7.012 -0.81,-2.66 -1.32,-4.848 -1.56,-6.578 -5.89,0 -15.17,0.109 -27.87,0.347 -12.69,0.223 -23.08,0.34 -31.16,0.34 l -20.95,-0.519 c -0.34,0.34 -0.52,1.269 -0.52,2.769 0,1.5 0.18,2.25 0.52,2.25 1.5,0 3.72,0.403 6.67,1.211 2.94,0.813 4.7,1.731 5.28,2.781 0.81,1.372 1.21,6.801 1.21,16.27 v 65.441 c 0,6.797 -0.4,11.758 -1.21,14.879 -0.35,0.93 -2.06,1.801 -5.11,2.602 -3.06,0.808 -5.34,1.207 -6.84,1.207 -0.46,0 -0.69,0.691 -0.69,2.082 0,1.5 0.23,2.48 0.69,2.949 6,-0.238 12.87,-0.351 20.61,-0.351" /><path
         id="path76"
         style="fill:#100f0d;fill-opacity:1;fill-rule:nonzero;stroke:none"
         d="m 4157.75,414.129 c -5.19,0 -9.23,-0.41 -12.12,-1.207 -0.46,-0.121 -0.84,-0.551 -1.12,-1.301 -0.29,-0.75 -0.53,-2.48 -0.69,-5.191 -0.18,-2.719 -0.27,-6.899 -0.27,-12.551 V 372.93 c 0,-3.348 5.02,-5.02 15.06,-5.02 h 4.34 c 4.03,0 8.22,2.012 12.55,6.059 4.32,4.043 6.49,9.402 6.49,16.101 0,16.032 -8.08,24.059 -24.24,24.059 z m 2.77,7.621 c 3.92,0 7.91,-0.578 11.95,-1.73 4.03,-1.161 8.02,-2.891 11.94,-5.2 3.92,-2.308 7.15,-5.59 9.69,-9.871 2.54,-4.269 3.81,-9.23 3.81,-14.879 0,-4.84 -1.82,-9.929 -5.45,-15.238 -3.63,-5.312 -8.56,-9.402 -14.8,-12.293 -1.16,-0.457 -1.5,-1.039 -1.04,-1.73 5.77,-12.118 12.4,-22.27 19.91,-30.469 11.08,-12.121 20.08,-18.168 27.01,-18.168 0.35,-0.692 0.51,-1.512 0.51,-2.434 0,-1.039 -0.16,-1.906 -0.51,-2.59 -1.27,-0.347 -2.84,-0.527 -4.68,-0.527 -16.15,0 -30.18,8.309 -42.06,24.93 -1.85,2.539 -3.96,5.57 -6.32,9.09 -2.37,3.519 -4.1,6.058 -5.2,7.621 -1.1,1.547 -2.36,3.258 -3.81,5.109 -1.44,1.848 -2.71,3.219 -3.8,4.149 -1.11,0.929 -2.29,1.671 -3.56,2.261 -1.27,0.449 -3.4,0.688 -6.4,0.688 -0.92,0 -1.62,-0.028 -2.08,-0.09 -0.46,-0.059 -0.92,-0.32 -1.38,-0.777 -0.46,-0.461 -0.7,-1.153 -0.7,-2.082 v -25.45 c 0,-7.73 0.46,-12.75 1.39,-15.058 0.58,-1.5 2.63,-2.711 6.14,-3.633 3.53,-0.93 6.04,-1.391 7.53,-1.391 0.46,0 0.7,-0.808 0.7,-2.418 0,-1.039 -0.12,-1.898 -0.35,-2.601 -11.54,0.582 -19.04,0.863 -22.5,0.863 l -21.12,-0.863 c -0.35,0.34 -0.53,1.39 -0.53,3.121 0,1.492 0.18,2.242 0.53,2.242 1.61,0 3.86,0.359 6.75,1.047 2.88,0.691 4.61,1.551 5.2,2.601 0.8,1.372 1.21,6.801 1.21,16.27 v 65.441 c 0,6.797 -0.41,11.758 -1.21,14.879 -0.36,0.93 -2.06,1.801 -5.11,2.602 -3.06,0.808 -5.34,1.207 -6.84,1.207 -0.47,0 -0.69,0.691 -0.69,2.082 0,1.5 0.22,2.48 0.69,2.949 l 20.77,-0.351 c 3.46,0 7.56,0.113 12.29,0.351 4.73,0.219 8.77,0.34 12.12,0.34" /><path
         id="path78"
         style="fill:#100f0d;fill-opacity:1;fill-rule:nonzero;stroke:none"
         d="m 4296.76,400.109 v -68.558 c 0,-4.84 0.87,-9.242 2.6,-13.153 0.45,-1.148 3.55,-2.019 9.26,-2.597 5.72,-0.571 10.13,-0.871 13.25,-0.871 26.54,0 39.81,17.14 39.81,51.422 0,13.16 -3.5,24.347 -10.48,33.578 -6.98,9.242 -17.17,13.859 -30.55,13.859 h -0.86 c -12.47,0 -19.4,-0.93 -20.78,-2.769 -1.5,-2.079 -2.25,-5.719 -2.25,-10.911 z m -7.62,20.95 c 4.39,0 9.96,0.05 16.71,0.171 6.75,0.11 11.22,0.18 13.42,0.18 18.81,0 33.46,-5.551 43.96,-16.621 10.51,-11.09 15.76,-24.129 15.76,-39.141 0,-16.718 -5.31,-30.687 -15.92,-41.886 -10.63,-11.192 -25.28,-16.793 -43.98,-16.793 -1.38,0 -5.51,0.121 -12.37,0.34 -6.88,0.242 -12.62,0.3 -17.23,0.179 l -20.95,-0.519 c -0.35,0.34 -0.52,1.211 -0.52,2.601 0,1.61 0.17,2.418 0.52,2.418 1.5,0 3.73,0.403 6.67,1.211 2.94,0.813 4.7,1.731 5.28,2.781 0.8,1.372 1.21,6.801 1.21,16.27 v 65.441 c 0,6.797 -0.41,11.758 -1.21,14.879 -0.35,0.93 -2.05,1.801 -5.11,2.602 -3.06,0.808 -5.34,1.207 -6.84,1.207 -0.46,0 -0.69,0.691 -0.69,2.082 0,1.5 0.23,2.48 0.69,2.949 6,-0.238 12.87,-0.351 20.6,-0.351" /><path
         id="path80"
         style="fill:#100f0d;fill-opacity:1;fill-rule:nonzero;stroke:none"
         d="m 4413.27,421.059 c 5.19,0 14.19,0.23 27,0.691 12.82,0.461 22.44,0.691 28.91,0.691 0.47,-3.351 1.36,-7.761 2.69,-13.242 1.32,-5.488 2.1,-8.918 2.34,-10.301 -0.59,-0.578 -1.62,-0.867 -3.13,-0.867 -1.49,0 -2.3,0.41 -2.42,1.207 -1.73,6.352 -4.15,10.422 -7.26,12.211 -3.12,1.781 -7.4,2.68 -12.82,2.68 h -11.6 c -9.92,0 -15,-0.75 -15.23,-2.238 -0.58,-2.782 -0.86,-7.621 -0.86,-14.559 v -27.691 c 0,-0.692 2.48,-1.039 7.44,-1.039 h 9.17 c 3.23,0 5.57,0 7.01,0 1.45,0 2.97,0.23 4.59,0.699 1.61,0.461 2.66,0.738 3.12,0.859 0.46,0.11 1.06,0.871 1.81,2.25 0.76,1.391 1.18,2.399 1.3,3.031 0.12,0.629 0.52,2.278 1.21,4.93 0.12,0.809 0.99,1.211 2.6,1.211 1.39,0 2.36,-0.281 2.95,-0.863 V 348 c -0.47,-0.461 -1.39,-0.691 -2.77,-0.691 -1.51,0 -2.43,0.453 -2.78,1.382 -0.8,3.118 -1.49,5.457 -2.07,7.008 -0.58,1.571 -1.01,2.481 -1.3,2.781 -0.29,0.282 -0.78,0.661 -1.47,1.122 -1.5,0.918 -7.62,1.386 -18.35,1.386 -8.31,0 -12.46,-0.519 -12.46,-1.566 V 332.59 c 0,-7.5 0.52,-12.758 1.55,-15.75 0.35,-1.16 4.27,-1.731 11.78,-1.731 h 8.3 c 10.74,0 18.01,0.973 21.82,2.942 1.72,0.929 3.66,2.98 5.8,6.148 2.14,3.172 3.83,6.949 5.1,11.34 0.23,0.691 1.04,1.031 2.43,1.031 2.18,0 3.63,-0.34 4.32,-1.031 -0.57,-1.508 -1.46,-3.898 -2.67,-7.187 -1.22,-3.293 -2.17,-5.954 -2.86,-7.961 -0.7,-2.02 -1.45,-4.36 -2.25,-7.012 -0.81,-2.66 -1.33,-4.848 -1.56,-6.578 -5.89,0 -15.18,0.109 -27.87,0.347 -12.7,0.223 -23.09,0.34 -31.17,0.34 l -20.94,-0.519 c -0.35,0.34 -0.52,1.269 -0.52,2.769 0,1.5 0.17,2.25 0.52,2.25 1.49,0 3.72,0.403 6.67,1.211 2.94,0.813 4.69,1.731 5.27,2.781 0.81,1.372 1.21,6.801 1.21,16.27 v 65.441 c 0,6.797 -0.4,11.758 -1.21,14.879 -0.34,0.93 -2.05,1.801 -5.11,2.602 -3.05,0.808 -5.34,1.207 -6.83,1.207 -0.46,0 -0.7,0.691 -0.7,2.082 0,1.5 0.24,2.48 0.7,2.949 5.99,-0.238 12.87,-0.351 20.6,-0.351" /><path
         id="path82"
         style="fill:#100f0d;fill-opacity:1;fill-rule:nonzero;stroke:none"
         d="m 4509.36,421.23 c 2.77,0 9.92,0.282 21.46,0.86 0.23,-0.461 0.32,-1.41 0.26,-2.852 -0.05,-1.449 -0.26,-2.168 -0.6,-2.168 -0.81,0 -1.91,-0.121 -3.29,-0.34 -1.39,-0.242 -2.89,-0.808 -4.5,-1.73 -1.63,-0.93 -2.43,-2.141 -2.43,-3.641 0,-3.347 7.27,-22.8 21.81,-58.339 3.12,-7.848 5.6,-13.969 7.45,-18.348 0.34,-0.582 0.83,-0.723 1.47,-0.434 0.63,0.282 1.06,0.723 1.3,1.301 l 25.96,62.66 c 2.2,5.66 3.29,9.699 3.29,12.121 0,1.61 -0.92,3 -2.76,4.149 -1.86,1.16 -3.61,1.883 -5.28,2.172 -1.68,0.281 -3.03,0.429 -4.08,0.429 -0.46,0 -0.69,0.719 -0.69,2.168 0,1.442 0.23,2.391 0.69,2.852 10.74,-0.578 16.91,-0.86 18.53,-0.86 0.12,0 5.95,0.282 17.49,0.86 0.22,-0.68 0.34,-1.551 0.34,-2.59 0,-1.621 -0.23,-2.43 -0.69,-2.43 -5.2,0 -8.65,-1.609 -10.39,-4.84 -2.66,-4.851 -5.48,-10.789 -8.48,-17.839 l -34.63,-82.75 c -1.49,-3.809 -3.51,-5.711 -6.05,-5.711 -0.81,0 -1.39,0.351 -1.73,1.039 l -35.49,89.511 c -2.89,7.61 -5.49,13.149 -7.79,16.622 -0.81,1.269 -2.48,2.238 -5.02,2.937 -2.54,0.691 -4.56,1.031 -6.07,1.031 -0.46,0 -0.69,0.75 -0.69,2.262 0,1.379 0.23,2.297 0.69,2.758 1.85,-0.11 4.05,-0.219 6.59,-0.34 2.53,-0.121 4.81,-0.238 6.83,-0.34 2.02,-0.121 4.18,-0.18 6.5,-0.18" /><path
         id="path84"
         style="fill:#100f0d;fill-opacity:1;fill-rule:nonzero;stroke:none"
         d="m 4634.86,421.059 c 5.19,0 14.19,0.23 27.01,0.691 12.81,0.461 22.44,0.691 28.9,0.691 0.47,-3.351 1.36,-7.761 2.69,-13.242 1.33,-5.488 2.11,-8.918 2.34,-10.301 -0.59,-0.578 -1.62,-0.867 -3.12,-0.867 -1.5,0 -2.31,0.41 -2.43,1.207 -1.72,6.352 -4.15,10.422 -7.26,12.211 -3.12,1.781 -7.39,2.68 -12.81,2.68 h -11.61 c -9.92,0 -15,-0.75 -15.23,-2.238 -0.58,-2.782 -0.86,-7.621 -0.86,-14.559 v -27.691 c 0,-0.692 2.48,-1.039 7.44,-1.039 h 9.17 c 3.23,0 5.57,0 7.01,0 1.45,0 2.97,0.23 4.59,0.699 1.61,0.461 2.66,0.738 3.12,0.859 0.46,0.11 1.06,0.871 1.82,2.25 0.75,1.391 1.18,2.399 1.29,3.031 0.12,0.629 0.52,2.278 1.21,4.93 0.12,0.809 0.99,1.211 2.6,1.211 1.39,0 2.37,-0.281 2.95,-0.863 V 348 c -0.47,-0.461 -1.39,-0.691 -2.77,-0.691 -1.51,0 -2.42,0.453 -2.78,1.382 -0.8,3.118 -1.49,5.457 -2.07,7.008 -0.58,1.571 -1.01,2.481 -1.29,2.781 -0.3,0.282 -0.79,0.661 -1.48,1.122 -1.5,0.918 -7.62,1.386 -18.35,1.386 -8.31,0 -12.46,-0.519 -12.46,-1.566 V 332.59 c 0,-7.5 0.52,-12.758 1.55,-15.75 0.35,-1.16 4.27,-1.731 11.78,-1.731 h 8.3 c 10.74,0 18.01,0.973 21.82,2.942 1.73,0.929 3.66,2.98 5.8,6.148 2.14,3.172 3.84,6.949 5.11,11.34 0.22,0.691 1.03,1.031 2.42,1.031 2.19,0 3.63,-0.34 4.32,-1.031 -0.57,-1.508 -1.46,-3.898 -2.67,-7.187 -1.22,-3.293 -2.17,-5.954 -2.86,-7.961 -0.7,-2.02 -1.45,-4.36 -2.25,-7.012 -0.81,-2.66 -1.33,-4.848 -1.56,-6.578 -5.89,0 -15.18,0.109 -27.87,0.347 -12.7,0.223 -23.09,0.34 -31.16,0.34 l -20.95,-0.519 c -0.34,0.34 -0.52,1.269 -0.52,2.769 0,1.5 0.18,2.25 0.52,2.25 1.49,0 3.72,0.403 6.67,1.211 2.94,0.813 4.7,1.731 5.27,2.781 0.81,1.372 1.21,6.801 1.21,16.27 v 65.441 c 0,6.797 -0.4,11.758 -1.21,14.879 -0.34,0.93 -2.05,1.801 -5.11,2.602 -3.05,0.808 -5.34,1.207 -6.83,1.207 -0.46,0 -0.7,0.691 -0.7,2.082 0,1.5 0.24,2.48 0.7,2.949 5.99,-0.238 12.87,-0.351 20.6,-0.351" /><path
         id="path86"
         style="fill:#100f0d;fill-opacity:1;fill-rule:nonzero;stroke:none"
         d="m 4735.27,421.059 c 2.31,0 4.56,0.05 6.75,0.171 2.2,0.11 4.56,0.25 7.1,0.43 2.54,0.18 4.62,0.32 6.23,0.43 0.24,-0.68 0.35,-1.551 0.35,-2.59 0,-1.621 -0.23,-2.43 -0.69,-2.43 -1.15,0 -3.23,-0.398 -6.23,-1.211 -3.01,-0.808 -4.62,-1.609 -4.85,-2.418 -1.04,-4.05 -1.56,-9.41 -1.56,-16.109 V 332.07 c 0,-6.109 0.52,-11.191 1.56,-15.23 0.35,-1.16 4.27,-1.731 11.77,-1.731 h 8.31 c 10.74,0 18,0.973 21.81,2.942 1.74,0.929 3.67,2.98 5.8,6.148 2.14,3.172 3.84,6.949 5.11,11.34 0.23,0.691 1.04,1.031 2.42,1.031 2.2,0 3.64,-0.34 4.34,-1.031 -0.59,-1.508 -1.48,-3.898 -2.69,-7.187 -1.21,-3.293 -2.17,-5.954 -2.86,-7.961 -0.69,-2.02 -1.45,-4.36 -2.25,-7.012 -0.81,-2.66 -1.32,-4.848 -1.56,-6.578 -6,0 -15.38,0.168 -28.12,0.508 -12.76,0.363 -23.06,0.523 -30.91,0.523 l -20.95,-0.523 c -0.34,0.363 -0.52,1.273 -0.52,2.781 0,1.492 0.18,2.242 0.52,2.242 1.62,0 3.87,0.359 6.76,1.047 2.88,0.691 4.61,1.551 5.19,2.601 0.8,1.372 1.21,6.801 1.21,16.27 v 65.441 c 0,7.379 -0.41,12.629 -1.21,15.75 -0.35,0.93 -1.99,1.758 -4.94,2.508 -2.94,0.75 -5.16,1.121 -6.66,1.121 -0.47,0 -0.69,0.75 -0.69,2.262 0,1.379 0.22,2.297 0.69,2.758 1.5,-0.11 4.56,-0.309 9.17,-0.61 4.62,-0.281 8.49,-0.421 11.6,-0.421" /><path
         id="path88"
         style="fill:#100f0d;fill-opacity:1;fill-rule:nonzero;stroke:none"
         d="m 4865.98,415.691 c -10.97,0 -19.62,-4.793 -25.97,-14.371 -6.35,-9.582 -9.52,-20.66 -9.52,-33.23 0,-9.238 1.49,-17.949 4.5,-26.149 3,-8.203 7.68,-15.043 14.02,-20.511 6.35,-5.481 13.79,-8.231 22.34,-8.231 7.38,0 13.85,2.403 19.38,7.192 5.54,4.789 9.61,10.73 12.21,17.828 2.6,7.09 3.9,14.679 3.9,22.769 0,9.231 -1.51,17.922 -4.51,26.051 -3,8.141 -7.67,14.941 -14.02,20.43 -6.35,5.48 -13.79,8.222 -22.33,8.222 z m -36.44,-92.793 c -10.8,11.434 -16.19,25.223 -16.19,41.383 0,16.149 5.39,29.969 16.19,41.449 10.78,11.489 23.8,17.231 39.03,17.231 15.24,0 28.28,-5.742 39.13,-17.231 10.84,-11.48 16.27,-25.3 16.27,-41.449 0,-16.16 -5.43,-29.949 -16.27,-41.383 -10.85,-11.418 -23.89,-17.136 -39.13,-17.136 -15.23,0 -28.25,5.718 -39.03,17.136" /><path
         id="path90"
         style="fill:#100f0d;fill-opacity:1;fill-rule:nonzero;stroke:none"
         d="m 4960.15,421.059 c 3.46,0 7.56,0.113 12.29,0.351 4.73,0.219 8.77,0.34 12.12,0.34 3.81,0 7.65,-0.578 11.51,-1.73 3.87,-1.161 7.62,-2.891 11.25,-5.2 3.64,-2.308 6.61,-5.59 8.92,-9.871 2.3,-4.269 3.46,-9.23 3.46,-14.879 0,-3.351 -0.72,-6.949 -2.16,-10.82 -1.45,-3.871 -3.56,-7.621 -6.32,-11.25 -2.77,-3.641 -6.49,-6.641 -11.17,-9.012 -4.67,-2.359 -9.89,-3.547 -15.67,-3.547 -6.46,0 -10.9,1.618 -13.33,4.848 -0.69,0.801 -0.86,2.133 -0.51,3.992 0.11,0.457 0.28,0.617 0.51,0.52 3.47,-1.27 7.33,-1.91 11.61,-1.91 5.77,0 10.73,2.418 14.88,7.269 4.16,4.852 6.24,10.61 6.24,17.309 0,8.191 -1.8,14.691 -5.37,19.472 -3.58,4.797 -9.12,7.188 -16.62,7.188 -5.2,0 -9.23,-0.41 -12.12,-1.207 -0.58,-0.121 -0.98,-0.551 -1.21,-1.301 -0.24,-0.75 -0.43,-2.512 -0.61,-5.281 -0.17,-2.77 -0.25,-6.93 -0.25,-12.461 V 332.07 c 0,-7.73 0.46,-12.75 1.37,-15.058 0.58,-1.5 2.63,-2.711 6.16,-3.633 3.51,-0.93 6.02,-1.391 7.53,-1.391 0.46,0 0.69,-0.808 0.69,-2.418 0,-1.039 -0.12,-1.898 -0.35,-2.601 -11.54,0.582 -19.04,0.863 -22.5,0.863 l -21.12,-0.863 c -0.35,0.34 -0.52,1.39 -0.52,3.121 0,1.492 0.17,2.242 0.52,2.242 1.61,0 3.86,0.359 6.74,1.047 2.89,0.691 4.62,1.551 5.2,2.601 0.81,1.372 1.21,6.801 1.21,16.27 v 65.441 c 0,6.797 -0.4,11.758 -1.21,14.879 -0.34,0.93 -2.05,1.801 -5.11,2.602 -3.06,0.808 -5.34,1.207 -6.83,1.207 -0.46,0 -0.7,0.691 -0.7,2.082 0,1.5 0.24,2.48 0.7,2.949 l 20.77,-0.351" /><path
         id="path92"
         style="fill:#100f0d;fill-opacity:1;fill-rule:nonzero;stroke:none"
         d="m 5055.01,421.23 c 4.28,0 9.58,0.282 15.93,0.86 0.81,-2.66 12.23,-31.559 34.27,-86.731 0.12,-0.23 0.36,-0.339 0.7,-0.339 0.46,0 0.75,0.218 0.87,0.691 11.31,26.551 20.31,48.41 27,65.609 l 6.92,20.77 c 7.4,-0.461 12.18,-0.68 14.38,-0.68 7.15,0 13.61,0.219 19.38,0.68 0.35,-1.031 0.52,-1.899 0.52,-2.59 0,-1.621 -0.28,-2.43 -0.86,-2.43 h -0.35 c -1.27,0 -2.94,-0.371 -5.02,-1.121 -2.07,-0.75 -3.63,-1.539 -4.67,-2.34 -1.38,-1.039 -2.08,-4.91 -2.08,-11.597 0,-1.84 0.52,-25.274 1.55,-70.282 0.12,-6.582 0.99,-11.898 2.6,-15.929 0.46,-1.031 2.2,-1.93 5.2,-2.68 3,-0.762 5.13,-1.133 6.4,-1.133 0.46,0 0.7,-0.808 0.7,-2.418 0,-1.039 -0.12,-1.898 -0.34,-2.601 -11.55,0.582 -18.42,0.863 -20.61,0.863 -0.58,0 -7.5,-0.281 -20.77,-0.863 -0.47,0.461 -0.69,1.39 -0.69,2.769 0,1.5 0.22,2.25 0.69,2.25 1.15,0 2.91,0.293 5.27,0.871 2.38,0.582 4.07,1.153 5.11,1.731 1.39,0.801 2.08,3.289 2.08,7.441 v 9.18 l -2.08,60.937 c -0.12,1.84 -0.43,4 -0.95,6.481 -0.52,2.48 -1.07,3.73 -1.65,3.73 -0.22,0 -0.52,-0.41 -0.86,-1.218 l -36.18,-86.551 c -2.2,-4.961 -4.33,-7.442 -6.41,-7.442 -0.35,0 -0.86,0.114 -1.56,0.34 l -39.64,100.75 c -0.23,-11.066 -0.57,-23.769 -1.04,-38.078 -0.46,-14.308 -0.86,-26.121 -1.21,-35.398 -0.34,-9.293 -0.52,-14.063 -0.52,-14.282 0,-2.082 0.35,-3.589 1.04,-4.5 0.69,-0.929 2.8,-1.82 6.32,-2.691 3.52,-0.867 5.85,-1.301 7.01,-1.301 0.46,0 0.69,-0.867 0.69,-2.597 0,-0.922 -0.11,-1.719 -0.34,-2.422 -11.55,0.582 -18.24,0.863 -20.08,0.863 -0.24,0 -6.99,-0.281 -20.26,-0.863 -0.58,0.582 -0.86,1.441 -0.86,2.601 0,1.61 0.28,2.418 0.86,2.418 1.62,0 4.01,0.371 7.18,1.133 3.18,0.75 5.29,1.649 6.32,2.68 1.85,2.078 2.89,7.097 3.12,15.058 0.23,12 0.49,23.832 0.78,35.493 0.29,11.66 0.54,20.796 0.78,27.437 0.22,6.641 0.34,10.883 0.34,12.723 0,2.879 -0.22,5.199 -0.69,6.929 -0.34,0.93 -2.31,1.758 -5.88,2.508 -3.59,0.75 -6.18,1.121 -7.79,1.121 -0.46,0 -0.7,0.809 -0.7,2.43 0,1.262 0.24,2.129 0.7,2.59 1.96,-0.11 4.12,-0.219 6.49,-0.34 2.36,-0.121 4.52,-0.238 6.49,-0.34 1.96,-0.121 4.1,-0.18 6.4,-0.18" /><path
         id="path94"
         style="fill:#100f0d;fill-opacity:1;fill-rule:nonzero;stroke:none"
         d="m 5209.96,421.059 c 5.19,0 14.19,0.23 27,0.691 12.82,0.461 22.44,0.691 28.91,0.691 0.47,-3.351 1.36,-7.761 2.68,-13.242 1.33,-5.488 2.11,-8.918 2.35,-10.301 -0.59,-0.578 -1.62,-0.867 -3.13,-0.867 -1.49,0 -2.3,0.41 -2.42,1.207 -1.73,6.352 -4.15,10.422 -7.26,12.211 -3.12,1.781 -7.4,2.68 -12.82,2.68 h -11.6 c -9.92,0 -15,-0.75 -15.23,-2.238 -0.58,-2.782 -0.86,-7.621 -0.86,-14.559 v -27.691 c 0,-0.692 2.48,-1.039 7.44,-1.039 h 9.17 c 3.23,0 5.57,0 7.01,0 1.45,0 2.97,0.23 4.59,0.699 1.61,0.461 2.66,0.738 3.12,0.859 0.46,0.11 1.06,0.871 1.81,2.25 0.75,1.391 1.18,2.399 1.3,3.031 0.12,0.629 0.52,2.278 1.21,4.93 0.12,0.809 0.99,1.211 2.6,1.211 1.39,0 2.36,-0.281 2.95,-0.863 V 348 c -0.47,-0.461 -1.39,-0.691 -2.77,-0.691 -1.51,0 -2.43,0.453 -2.78,1.382 -0.8,3.118 -1.49,5.457 -2.07,7.008 -0.58,1.571 -1.01,2.481 -1.3,2.781 -0.29,0.282 -0.78,0.661 -1.47,1.122 -1.51,0.918 -7.62,1.386 -18.35,1.386 -8.31,0 -12.46,-0.519 -12.46,-1.566 V 332.59 c 0,-7.5 0.52,-12.758 1.55,-15.75 0.35,-1.16 4.27,-1.731 11.78,-1.731 h 8.3 c 10.74,0 18.01,0.973 21.82,2.942 1.72,0.929 3.66,2.98 5.8,6.148 2.13,3.172 3.83,6.949 5.1,11.34 0.23,0.691 1.04,1.031 2.43,1.031 2.18,0 3.63,-0.34 4.32,-1.031 -0.57,-1.508 -1.46,-3.898 -2.67,-7.187 -1.22,-3.293 -2.17,-5.954 -2.87,-7.961 -0.69,-2.02 -1.44,-4.36 -2.24,-7.012 -0.81,-2.66 -1.33,-4.848 -1.56,-6.578 -5.89,0 -15.18,0.109 -27.88,0.347 -12.69,0.223 -23.08,0.34 -31.16,0.34 l -20.94,-0.519 c -0.35,0.34 -0.52,1.269 -0.52,2.769 0,1.5 0.17,2.25 0.52,2.25 1.49,0 3.72,0.403 6.67,1.211 2.93,0.813 4.69,1.731 5.27,2.781 0.81,1.372 1.21,6.801 1.21,16.27 v 65.441 c 0,6.797 -0.4,11.758 -1.21,14.879 -0.34,0.93 -2.05,1.801 -5.11,2.602 -3.06,0.808 -5.34,1.207 -6.83,1.207 -0.46,0 -0.7,0.691 -0.7,2.082 0,1.5 0.24,2.48 0.7,2.949 5.99,-0.238 12.87,-0.351 20.6,-0.351" /><path
         id="path96"
         style="fill:#100f0d;fill-opacity:1;fill-rule:nonzero;stroke:none"
         d="m 5377.89,398.199 c 0,7.039 -0.41,12.121 -1.21,15.242 -0.35,0.93 -2.34,1.809 -5.98,2.68 -3.63,0.867 -6.2,1.301 -7.7,1.301 -0.46,0 -0.7,0.668 -0.7,1.988 0,1.32 0.24,2.219 0.7,2.68 1.5,-0.11 4.5,-0.309 9,-0.61 4.5,-0.281 8.31,-0.421 11.43,-0.421 3,0 6.78,0.171 11.34,0.511 4.56,0.352 7.24,0.52 8.04,0.52 0.24,-0.68 0.35,-1.551 0.35,-2.59 0,-1.379 -0.23,-2.078 -0.69,-2.078 -1.15,0 -3.66,-0.473 -7.53,-1.383 -3.87,-0.93 -5.92,-1.789 -6.14,-2.598 -0.93,-3.582 -1.39,-8.953 -1.39,-16.109 v -65.781 c 0,-7.16 0.17,-15.231 0.52,-24.242 -0.46,-0.45 -1.56,-0.688 -3.29,-0.688 -1.96,0 -3.87,1.328 -5.71,3.988 l -67.17,95.211 v -73.922 c 0,-7.609 0.4,-12.976 1.21,-16.097 0.23,-0.813 2.17,-1.641 5.8,-2.512 3.63,-0.867 6.02,-1.301 7.19,-1.301 0.34,0 0.54,-0.687 0.6,-2.078 0.05,-1.379 -0.03,-2.359 -0.26,-2.941 -11.54,0.582 -18.17,0.863 -19.91,0.863 l -19.91,-0.863 c -0.35,0.34 -0.51,1.211 -0.51,2.601 0,1.61 0.16,2.418 0.51,2.418 1.62,0 4.24,0.434 7.88,1.301 3.64,0.871 5.62,1.82 5.97,2.852 1.15,3.007 1.73,8.429 1.73,16.281 v 68.039 c 0,5.641 -0.4,9.98 -1.21,12.98 -0.34,0.93 -2.31,1.758 -5.89,2.508 -3.57,0.75 -6.17,1.121 -7.78,1.121 -0.47,0 -0.7,0.719 -0.7,2.168 0,1.442 0.23,2.391 0.7,2.852 8.99,-0.219 14.88,-0.34 17.65,-0.34 6,0 10.62,0.121 13.85,0.34 4.27,-7.84 23.83,-36.121 58.69,-84.82 0.34,1.96 0.52,4.32 0.52,7.101 v 53.828" /><path
         id="path98"
         style="fill:#100f0d;fill-opacity:1;fill-rule:nonzero;stroke:none"
         d="m 5445.83,421.41 c 7.91,-0.238 14.39,-0.351 19.48,-0.351 5.08,0 11.59,0.113 19.56,0.351 7.96,0.219 14.13,0.34 18.53,0.34 2.88,0 6.86,0.629 11.94,1.898 l 3.29,-24.75 c -0.81,-0.808 -2.19,-1.207 -4.16,-1.207 -1.03,0 -1.61,0.278 -1.73,0.868 -1.62,6.453 -3.61,10.64 -5.97,12.543 -2.37,1.91 -6.84,2.859 -13.42,2.859 -12.23,0 -18.57,-0.859 -19.04,-2.602 -1.04,-3.687 -1.56,-9.468 -1.56,-17.308 v -62.5 c 0,-6.692 0.52,-12.063 1.56,-16.102 0.23,-0.801 1.84,-1.578 4.85,-2.328 3,-0.762 5.08,-1.133 6.23,-1.133 0.46,0 0.69,-0.867 0.69,-2.597 0,-0.922 -0.11,-1.719 -0.35,-2.422 -11.53,0.582 -18.23,0.863 -20.08,0.863 -0.57,0 -7.5,-0.281 -20.77,-0.863 -0.47,0.461 -0.69,1.332 -0.69,2.601 0,1.61 0.22,2.418 0.69,2.418 1.5,0 3.72,0.344 6.66,1.043 2.95,0.688 4.59,1.5 4.94,2.418 0.81,3.121 1.22,8.25 1.22,15.41 v 62.672 c 0,10.039 -0.53,15.981 -1.57,17.828 -0.92,1.743 -7.16,2.602 -18.69,2.602 -6.58,0 -11.05,-0.949 -13.42,-2.859 -2.37,-1.903 -4.36,-6.09 -5.97,-12.543 -0.12,-0.59 -0.7,-0.868 -1.73,-0.868 -1.96,0 -3.35,0.399 -4.16,1.207 l 3.29,24.75 c 5.08,-1.269 9.06,-1.898 11.94,-1.898 4.39,0 10.54,-0.121 18.44,-0.34" /><path
         id="path100"
         style="fill:#100f0d;fill-opacity:1;fill-rule:nonzero;stroke:none"
         d="m 0,752.402 c 0,415.518 336.871,752.408 752.383,752.408 415.517,0 752.387,-336.89 752.387,-752.408 C 1504.77,336.891 1167.9,0 752.383,0 336.871,0 0,336.891 0,752.402" /><path
         id="path102"
         style="fill:#ffffff;fill-opacity:1;fill-rule:nonzero;stroke:none"
         d="m 736.445,1117.31 -147.312,54.35 16.797,-51.7 C 502.973,1078.91 420.992,994.59 384.469,889.336 l 59.078,-20.477 c 30.148,86.844 97.25,156.711 181.68,191.601 l 15.894,-48.93 95.324,105.78" /><path
         id="path104"
         style="fill:#ffffff;fill-opacity:1;fill-rule:nonzero;stroke:none"
         d="m 1116.45,757.617 62.11,152.852 -52.15,-15.473 C 1088.09,999.027 1005.99,1083.2 901.734,1122.52 l -22.046,-58.5 c 86.05,-32.46 154.082,-101.391 186.722,-186.735 l -49.33,-14.578 99.37,-105.09" /><path
         id="path106"
         style="fill:#ffffff;fill-opacity:1;fill-rule:nonzero;stroke:none"
         d="m 747.172,395 136.152,-64.301 -12.558,52.93 c 105.968,32.582 194.484,109.941 239.414,211.898 l -57.21,25.235 C 1015.88,536.574 943.32,472.391 856.371,444.512 L 844.48,494.539 747.172,395" /><path
         id="path108"
         style="fill:#ffffff;fill-opacity:1;fill-rule:nonzero;stroke:none"
         d="m 392.449,765.879 -61.199,-158.25 52.242,15.176 C 421.301,518.574 502.953,434.039 607.02,394.18 l 22.378,58.429 C 543.484,485.469 475.77,554.727 443.57,640.195 l 49.383,14.375 -100.504,111.309" /></g></g></svg>